<svg id="Layer_1" data-name="Layer 1" xmlns="http://www.w3.org/2000/svg" viewBox="0 0 1322.42 663.15"><defs><style>.cls-1{fill:#717171;}.cls-2{fill:#e1e1e1;}</style></defs><path class="cls-1" d="M342.87,430.2c.08,0,0,0,0,0Z" transform="translate(-48.94 -80.22)"/><path class="cls-1" d="M868.06,210.92c-6.45-1.81-11.85-5.24-17.39-9.08-11.38-7.88-24.47-11.52-38.45-11.64-2,0-4.29-.74-5.22,1.39-1.07,2.46,1.41,3.48,3.09,4.5-7.58,4.61-8.15-2.74-10.37-6-3.44-.3,1.58,5.5-3.17,3.4-4.53-2-9.46-1.78-13.94-3.45-2.55-1-4.51.56-6.77.73-3.81.3-.51-4-3.46-4.88-4.51-1.28-8.44-4.15-13.6-3.68-5.78.52-11.27-2.78-17.18-1.94-.46.06-.62-.41-.86-.88-3.88-7.62-10.71-8.32-18.14-7.74-2.54.2-4.72.47-6.78-2.52s-6.55-3.11-9.45-5.95c-1.22-1.19-5.53.8-8.45,1.32-1.13.2-1.86.79-1.81,2,.07,1.72,1.57,1.58,2.61,1.58,2.58,0,5.16-.25,8-.42-1.12,2.33-3,1.76-4.53,2-4,.68-5.79,3.26-5.26,6.84.58,4-1.39,4-3.94,3.11a28,28,0,0,0-9.76-1.19c-2.05,0-4.79-.18-6-1.45-3.52-3.57-3.84-1-4.26,1.76-.37,2.46-1.32,4.63-4.08,3.38a24,24,0,0,1-8.19-5.51c-.7-.78-1.19-1.51-.13-2.5,3-2.77,1.21-4.92-1.09-6.88-5.85-5-16-5-22,.05-.76.65-1.54.37-2.28.61-4.38,1.39-8.45-.1-12.68-1-7.18-1.6-14.26-4.69-21.89-2.37-.52.16-1.32.8-1.47-.29-.68-5-4.13-2.48-6.46-2.25s-4.46,1.18-6.68,1.81c-.63-.45-1.86.2-2-1.1,6.19-3.68,13.37-5.8,18.18-11.61,1-1.21,2.27-2.2,1.23-4.32-3.15-6.48-12.26-10.79-18.94-8.23-2.53,1-4.69.95-6.37-.71-6.13-6.06-13.28-3.4-20.15-2.55-4.06.5-7,2.38-4,7.65-2.68-.24-4.71-1.11-6.86-.3-5.76,2.18-11.46,5.17-17.92,2.45-.13-.05-.32.05-.48.08-11.5,2-22.54,5.57-33.49,9.48-3.09,1.11-6.69,3.45-6.44,6.25.44,4.94-2.33,3.35-4.66,3.64a14.85,14.85,0,0,1-5.86-.54c-4.66-1.28-8.87,0-12.71,2.65-3.21,2.21-3.13,4.3.32,6.37,1.54.92,3.37,1.34,5,2.11,1.06.49,2.3,1.3,1.75,2.62-.69,1.65-1.93.5-2.91.08a24.38,24.38,0,0,1-2.21-1.16c-7.06-4-14.28-5.31-21.84-1.43-.74.38-1.54,1.06-2.26.4-2.64-2.42-4,0-5.87,1.25-2.5,1.62-3.8,4-5,6.71-2-2.84-1.16-5.27.33-7.64.74-1.17,1.24-2.23.31-3.65-3.05-4.67-8.63-5.58-13.4-2.78-5,2.94-8,8.16-13.65,10.49-2.87,1.18-4.05,5-3.74,8.35.22,2.42,3,2.09,4.38,3.27,2.81,2.46,5.49,5.17,6.77,8.78-1.36.88-2,0-2.66-.28-9.63-4.5-19.35-8.65-30.05-10-2.37-.3-4.34-.44-6.74,1.67,4,1.56,6.66,3.74,7.78,7.47-6.8.94-13.25-1.61-19.59-.31-4.31.88-8.26,4.67-12.71.32-.7-.69-1.88.08-2.85.23-4.53.71-8.38,3-12.31,5.09-3.12,1.69-6.33,3.26-9.56,4.74-2.24,1-4.24,0-6-1.33-.67-.51-1.65-1.47-.44-2.39,1.5-1.15,2.59-2.39.92-4a8.21,8.21,0,0,0-6.93-2.1c-2.54.33-1.44,2.69-1.86,4.31-1.06,4.19,4.32,7,2,11.16a16.42,16.42,0,0,0-11.07,1c-3.32,1.49-7.48,2.3-6.44,7.63a3,3,0,0,1-1.39,2.46c-4.21,2-9.43,1.57-12.88,5.45-.11.13-.62-.09-.94-.16-3.66-.74-6.73-2.82-9.79-4.72-1.88-1.16-.46-3.63-.89-5.44a6.51,6.51,0,0,0-2.88-3.8c-1.52-1.06-3.54-1.64-4.91-4.57,6.56,2.57,12.83,2.67,18.78,4.27,7.17,1.91,12.77-.58,18-5.2,3.11-2.77,2.55-5.28-.53-7.1-9.76-5.76-19.92-10.52-31.39-12-5.38-.69-10.68-2-16.2-3.1,1.15-1.86,5.53-.72,3.52-4.17-2.44-4.19-14.79-7.27-19.1-4.68-2,1.18-3.55,1.49-5.36.56-2.68-1.36-4.88-.58-6.75,1.33a12.4,12.4,0,0,1-4.22,2.49c-6.34,2.77-12.59,5.62-19.79,5.61-3,0-5.35,2.36-4.2,5.32.88,2.27.1,2.65-1.28,3.67a67.45,67.45,0,0,0-15,14.5c-6.58,9.19-14.29,16.7-24.53,21.85-4.9,2.47-9.41,6.26-8.54,13.17.6,4.74.65,9.55,1.07,14.32.31,3.5,2,5.24,5.88,4.93,6.32-.51,11.78-3,17.28-6.86,1.62,3.69,4,7,5.42,10.51.92,2.23,3.55,4.34,2.58,7.13-1.16,3.32.49,4.08,3.19,4.2,4.75.2,13.07-5.51,14.3-10.14,1.54-5.83,5.28-9.8,10-13.09,1.56-1.08,3.42-1.84,4.7-3.92-1.83-.82-3.34-1.42-4.78-2.16-8.14-4.17-8.5-11.23-.94-16.54a40.27,40.27,0,0,0,11.59-12c4.56-7.57,10.72-8.77,18.21-2.59-5.53,2-7.39,7.5-11.36,10.93-5.83,5.06-7.36,11.31-6.33,18.83.57,4.19,2.62,4.93,6.1,5,6.86.09,13.5-1.57,20.25-2.3,1.86-.2,4.19-.56,4.32,1.74.1,1.84-2.18,2.87-4,3.12a95.8,95.8,0,0,1-11.69,1.06c-3,0-5.55.93-6.67,3.46-1.21,2.72,1.9,3.36,3.42,4.67,1,.87,2.26,1.59,1.53,3.24-.63,1.41-1.81,1.74-3.26,1.76-2.42,0-4.54-.94-6.69-1.77-1.3-.5-2.56-2.3-3.87-.52s-1.83,3.74-.16,5.53c1,1.07,1.7,2,.93,3.47-.47.87-11.26,6.4-12.16,6-4.22-1.78-8,.22-12,.82-2.92.43-5.76,4.31-8.6,1.48-2.45-2.43-4.65-2.54-7.52-1.69-1.76.53-3.23-.35-4.32-1.64-1.64-1.94,2.31-1.6,1.38-3.45-.67-.19-1.43-.48-2.22-.64-5.43-1.1-5.76-1.89-3.24-6.85,1.18-2.31-.78-2.52-2.22-2.52-6.88,0-9.13,3.66-6.19,9.87,2.71,5.73-.27,9.65-6.46,10-4.09.23-8.67,1.3-11.17,5.41-2,3.3-1.8,8.61-7.81,8-.22,0-.53.38-.74.63-3.7,4.54-5.7,11.77-14.09,8.91-4.24,4.36-10.34,5.76-15.1,9.07,2.57,4.08,7.07,4.23,10.65,6,2.39,1.21,4,2.3,4.15,5.43.12,3.29-.29,5.71-3.43,7.51a12,12,0,0,1-8.09,1.52c-5.74-.82-11.4-2.25-17.32-1.53-6.87.82-8.41,3.11-6,9.42a11.6,11.6,0,0,1,.19,8.23c-1.6,4.7-1.77,9.16.89,13.8,2.43,4.24,6.22,3.72,9.93,4.1a10.76,10.76,0,0,1,2.39.66c13.88,5,25.59.33,28.82-14.59.75-3.46,2.51-5.4,5.9-5.59,5.1-.28,7.31-3.26,7.43-7.9.07-2.67,1.62-3.25,3.5-3,5.74.68,11.06-1.1,16.54-2.19,4.52-.9,9.06-.51,11.8,4.17,2.92,5,6.8,8.78,12.35,10.76a25.47,25.47,0,0,1,5.48,3.2c2.58,1.78,1.21,4.27,1.85,6.26s-2.56,1.19-3.88,1.74a24.49,24.49,0,0,1-4.66,1c-1.6.27-2.1,1.38-1.77,2.93.65,3,7.89,5.53,10.21,3.44,4.34-3.92,8-8.27,8.87-14.35,1.65-1.79,2.63-3.54-.28-5.07-4.54-3.74-8.89-7.74-13.68-11.12A15.9,15.9,0,0,1,178,338.7c2.3,2.75,4.1,3.77,6.09,2.42,2.61-1.77,3.59-.07,5,1.71,3.41,4.43,7.66,8.07,13.14,9.32s8.21,3.9,7.17,9c-.5,2.48.09,4.36.66,6.63,1,3.9,3.12,6.8,5.36,10,1.94,2.75,4,3.5,6.65,2.67,3.28-1,6.65-6.93,5.8-9.39-.11-.3-.21-.79-.41-.85-4.6-1.35-1.24-4.6-1-6.49s3.16-2.41,5.38-2.21c3.41.3,6.8.68,10.33,1-1,2.07-2.82,2.08-4.29,2.66-3.59,1.41-2.77,4.37-1.34,6.12a40.23,40.23,0,0,1,4.83,6.83c1.61,3.1,5.49,3.24,7.52,5.92.28.38,3.37-1.39,5.19-2.12,2.3-.92,10.62.9,10.39,2.31-.93,5.83,2.47,1.51,3.34,1.28,1.52-.4,2.73-1.89,4.25-2.45,1.93-.73,4.74-.56,4.37,1.93a30.38,30.38,0,0,1-4.66,12.51c-2.36,3.51-5.61,5.5-10.23,3.81-2.31-.85-5-1.54-7.18.2-2.39,1.89-5.07,1.67-7.53,1.12-5.63-1.24-11.44-1.46-16.95-3.46a82.92,82.92,0,0,0-11.12-2.64c-3.75-.79-6.82.63-9.48,3.21-2.34,2.28-.39,4.16.41,6.26.92,2.42-.39,2.32-2.28,1.89-7-1.61-14.32-2.25-19.49-8.44-2.72-3.25-7-3.26-11-3.81-6.78-.94-7.9-3.5-4.34-9.44.41-.7,1.15-2,1-2.13-3.78-3.15,1.81-2.09,1.78-3.37a7.82,7.82,0,0,0-7.7-2.67c-9.65,1.56-19.53.32-29.08,2.5-6.41,1.46-13.35,0-19.36,3.69a13.72,13.72,0,0,1-11,1.57c-3-.72-6.84-1.43-9,1.69A11.42,11.42,0,0,1,94,391.85c-8.4,3.53-12.69,10.08-14,18.92a5.75,5.75,0,0,1-4.28,4.94c-7.67,2.51-13,8-16.73,14.81-3.09,5.64-6.53,11.33-4.39,18.29,1.82,6,1,11.8-1.24,17.44-3.16,8.14-1.07,14.55,6.72,19.19a30.67,30.67,0,0,1,12,12.88c5,9.94,18.75,16.34,29.6,14.23,2.43-.48,5.14-1.16,7.39-.55,6.52,1.77,12.34-.05,18.39-2.08,6.4-2.15,13.16-4.76,19.42.31,4.1,3.32,8.61,3.53,13.51,3.26,4.62-.25,7.59,2.93,7.67,7.62a22.83,22.83,0,0,1-1.48,8.78c-2.35,6.09-1.05,10.07,3.71,14.56,2.95,2.78,6.15,5.2,7.85,9.4A102.57,102.57,0,0,1,185,577a13.39,13.39,0,0,1-2.49,10.76c-5.9,7.86-5.89,15.28-.52,23.52,2.18,3.34,4.34,6.7,6.7,9.91,2.08,2.81,3.13,5.66,2.38,9.26a21.16,21.16,0,0,0,3.54,17c4.72,6.89,10.3,13.31,11.25,22.31.86,8.18,5.52,11,13.73,8.91a107.5,107.5,0,0,1,20-3.09c4.13-.26,7.36-2,10.38-5.13,4.73-4.81,6.88-11.39,11.72-16a11.2,11.2,0,0,0,3.67-10.33c-.44-2.67.39-3.2,2.88-3.81,8.9-2.16,12.13-7.59,10.23-16.6-.37-1.74-.4-3.57-1.5-5.19-1.79-2.64-.79-4.78,1.78-6.21,1.72-1,3.62-1.58,5.37-2.48,5.73-2.92,12.6-5.24,14.52-11.92a47.58,47.58,0,0,0,.49-23.6c-.37-1.65-1.5-2.83-2.51-4.16-3.63-4.81-5.62-10.05-3.29-16.19,4.17-11,12.25-19.34,21.21-25.75,13.12-9.39,22.65-20.5,26.74-36.15.51-2,1.43-4.09-.07-5.63-1.81-1.88-4.21-1.11-6.54-.39a82,82,0,0,1-17.56,3.51c-4.17.34-8.65-4.22-8.59-8.78,3.73,2.23,4.17,2.66,6.42,1.94,12.36-3.92,25.76-5.31,36-14.56a7.59,7.59,0,0,1,3.89-2.12c5.08-.49,7.94-3.89,10.59-7.55,3.51-4.84,6.82-9.82,10.26-14.71,1.49-2.12,1-3.29-1.27-4.6-2.43-1.4-5.45-1.45-7.49-3.57-1.12-6.61-3.58-7.61-9.37-3.81-8,5.26-8,5.26-14.51-1.31-.14-.15-.18-.21-.17-.23a1,1,0,0,1-.21-.07c-6.34-2.68-7.6-9.94-12.54-13.89a1.66,1.66,0,0,1-.64-2.19c.65-1,1.75-.78,2.72-.6,2.91.56,4.57,2.79,5.87,5.07,5.3,9.32,13.44,11.7,23.37,9.92,1.52-.27,2.91-.62,4.21.6,2.43,2.28,5.59,2.75,8.7,3.33,7.76.86,15.53.15,23.3,0,4.41-.07,13.75,6.32,15.11,10,3,8.1,5.41,9,12.92,5,1.19,2,.88,4.16,1,6.31.32,5.95.63,12.05,4.08,17.12a41,41,0,0,1,5.32,11.66c1.61,5.39,3.07,10.89,6.28,15.65,2.72,4,5.55,3.9,8.37.08,1.25-1.68,1.62-4.52,4.92-4.66-.47,3.73-1,7.29-.24,10.88.65,2.94,3.05,4.65,5.31,4.39,2.53-.28,3.51-3,3.35-5.8a10.37,10.37,0,0,0-2.76-6.81c-3.71-3.61-3.94-7.85-3.33-12.41a37.86,37.86,0,0,0,.11-8.84c-.23-2.41-1.2-5.38,1.31-7.47,5.33-4.46,10.88-8.68,15.95-13.41,6-5.64,12.08-10.43,20.84-11.8,4.31-.68,7.53-3,9.21,2.86,0,.15.19.26.28.4,3.9,6.24,8.91,12,7.25,20.33-.38,1.88,1,2.2,2.84,2.16,4.22-.07,5.66-3.47,8.25-6.75,1.53,5.68,3.37,10.63,4.12,15.75s2.64,10.88.48,15.64c-2,4.41-.51,6.21,2.38,8.66,3.88,3.29,8.1,6.43,7.12,12.7-.2,1.3,1.73,2.93-.68,4a3.73,3.73,0,0,1-4.82-1.48c-3.45-4.7-8.73-6.47-13.72-8.66-1.43-.62-3.59-1.26-4.27.86a4.5,4.5,0,0,0,1.27,4.63c4.72,5.21,10,9.54,13.71,16.23a70.53,70.53,0,0,0,19.83,22.71c7.53,5.43,10,4.62,11.6-4.35.17-1,.74-1.88.83-2.84.25-2.84,1.27-6.35-4-5a4,4,0,0,1-4.07-1.37c-3.74-4.77-6.63-10.18-10.83-14.62-.45-.48-1.16-1.47-.48-2.22a1.81,1.81,0,0,1,2.69.12c1.9,1.87,4.28,2.48,6.76,2.89,2.72.45,4.22-1.84,3.42-3.4-3.19-6.21-4.5-13.59-10.86-18-9.47-6.5-11.64-11.87-9.27-22.51.56-2.5,1.69-4.62,4.7-2.26,5.75,4.51,11.49,9,14.29,16.19.62,1.6,1.09,3.92,3.08,4.1s3.51-1.63,4.57-3.39a21.54,21.54,0,0,0,1.37-2.66c1.3-3.15,3-5,7-4.68,4.65.31,7-2.9,6.93-7.71a22.91,22.91,0,0,0-7.15-16.43c-3.17-3.17-6-6.66-9-10-1.9-2.09-2-4.51,0-6.15,2.63-2.09,4.93-4.87,8.54-5.5,2.33,1.15,5,.41,7.44,1.62,2,1,3.26-.33,3.22-2.6a4.15,4.15,0,0,1,2.49-1.19c6.07-1.29,12.49-1.92,17.74-5.45,7.93-5.34,16.06-10.67,19.47-20.41,2.55-.22,3.47-1.93,3.81-4.17a48.35,48.35,0,0,0,2.74-5.3c1.1-2.89,2.16-7,.18-8.68-3.35-2.87-4-4.1.12-6.37,1.13-.63,1.55-2.44,2.46-3.58s.38-2.23-.61-2.07c-5.62.93-6.71-5.71-11.4-6.61-1.78-.35-2.52-2.73-.31-4.73,3.7-3.34,7.12-7,10.94-10.77-4.46-2.75-8.74-1.69-12.89-1.14-3.63.48-5.34-2.21-6.49-4.43s2-2.57,3.37-3.43c2.67-1.65,6.09-2.47,8.15-4.63,2.92-3.06,5.59-2.39,8.77-1.5-.47,2.59-4.51,3.85-2.93,5.9s4.66.46,7-.23a6.77,6.77,0,0,0,1.43-.43c2.08-1.14,3.83.48,5.38,1.14,1,.45.06,2.71-.56,4.07-.94,2.06-1.89,4.42,1.15,5.26,4,1.09,3.69,3.9,2.67,6.43-.93,2.29-.79,4.53-1.08,6.79-.46,3.64,1.31,3.7,4.15,2.69,6.2-2.23,9.66-6.25,10.3-13,.38-4,1.09-7.53-3.82-9.2-2.74-.93-3.06-2.3-.17-3.69,2.56-1.23,3.71-3.64,5.11-5.92,2.74-4.49,5.09-9.26,9.63-12.45,2.41-1.69,5.18-.61,5.41.86,1.28,8.2,5.7,2.62,7.31,1.26a78.48,78.48,0,0,0,21-27.85c3.37-7.44,2.4-15.25,1.09-23-.32-1.93.09-4.45-2.17-5.12-2-.58-3.88.15-5.81,1.68-2.59,2.06-6.07,3.51-7.9-1.25-.87-2.27-3.07-2-4.83-3,8.52-4.72,15-11.59,21.76-18.21,5.19-5.1,11.15-8.27,18.77-6.49,4.8,1.13,9.5,1.94,14.47.24,2.44-.83,5.06.11,7.43,1.88,3.36,2.51,10.23.7,11.34-3.14,1.48-5.12,5.43-8,9.16-10.75,2.85-2.13,6.69-4.24,9.95.24,1.1,1.51,2.33.24,3.3-.47,3-2.13,5.86-4.36,9.14-6.82-.25,3.51-.12,6.74-2.41,8.53-7.34,5.72-12,14.23-20.33,19-5.4,3.08-8.15,8.06-6.94,14.63,1.11,6,2,12.11,3.27,18.12.32,1.52-.77,3.94,1,4.45s3-1.72,4.24-3a18.58,18.58,0,0,0,1.77-2.4c3.9-5.35,7.57-10.75,12.46-15.46,3.91-3.77,7.81-9,3.39-15.35-1.16-1.67-.3-3.48.55-5.18,3.48-7,15.23-11.74,23.18-9.08,2.44.82,4.06,1,5.2-1.63.59-1.39,1.85-2.21,3-3.17,5.38-4.37,11-7.94,18.31-7.88,2.23,0,4.66-.83,5.41-3.59s-.76-4.2-2.85-5.64c-1.29-.89-2.07-2.51-2.72-3.34,2.18,0,4-2.22,6-4,1.07-.93,1.88-1.74,3.43-1.19,4.06,1.43,8.4,2.31,12.16,4.29a9.93,9.93,0,0,0,10.14,0c3.65-2,2.37-6.86,4.81-9.79C870.43,212.15,868.94,211.16,868.06,210.92Z" transform="translate(-48.94 -80.22)"/><path class="cls-1" d="M1336.84,518.57c-1.72-.26-3.21-.56-4.36-2-3.68-4.48-8.7-6.36-14.22-7.27-3.6-.59-8.39,0-10.55-2.08-5.44-5.26-12.36-5.24-18.7-7.32-4-1.33-7.93-2-11.14,2.17a10.68,10.68,0,0,1,2.16-4.37c2.31-2.46,2.11-5.1,1-7.84-3.33-7.81-8.55-13.62-17.52-14.23-9.57-.65-17.15-5.88-23.42-11.82-5.19-4.91-10.27-5.91-16.65-6.51-6.14-.59-13.09,1-18-5.13-1.38-1.7-4.26-1.26-5.86,1.36-1.11,1.81-1.06,4.34-3.28,5.79-.18-.81-.24-1.31-.38-1.78-.46-1.47,2.05-2.89-.09-4.46s-3.72-.38-5.56.34c-4.34,1.69-7.8,4.25-9.34,8.88-.75,2.24-1.51,3.09-3.62.75-2.84-3.13-6.4-4.54-10.6-2.17a4.2,4.2,0,0,1-2.84.48c-5.47-1.48-10-12.41-7.37-17.63,1.87-3.72.44-6-3.81-6-2.8,0-5.6.5-8.4.5-4.31,0-5.83-2.36-3.59-5.92,3-4.82,5.37-9.76,4.73-15.71-1.43.26-2.91.88-4.61.72-7.6-.73-8.11-.35-11.35,7-.52,1.17-.68,2.46-2.17,3.14-7.77,3.57-19-3.73-18.37-12.23.36-4.93,1.6-9.8,2-14.73a13.16,13.16,0,0,1,17.1-11.62c2.14.64,4.35,1.48,5.79-.88,2.82-4.62,7.06-3.87,11-2.67,2.48.76,4.48,1.21,6.39-.72,2.58,6.47,3.63,13.15,8.07,18.34,1,1.17,1.58,3.07,3.88,2.24s2.91-2.6,2.73-4.7a48.15,48.15,0,0,0-4-15.78c-1.31-2.9-.9-4.75,1.35-6.86a72.64,72.64,0,0,1,9.13-6.9c5.55-3.75,6.47-6.22,3.55-11.81-1.33-2.53-.17-2.51,1.58-3.24,1.59-.68,4-.07,4.47-3,1.39-9.42,7.94-13.33,16.67-14.8-1.48-4-3.94-8.55,1.23-11.43,3.83-2.15,8.65-1.39,12.86-3a35.89,35.89,0,0,1-2.88,3.61c-.84,1.08-2.65,2.06-1.3,3.77,1.21,1.54,2.92,1.31,4.54.57,1-.48,2.39-.78,3-1.6,3.74-4.64,9.28-6.86,13.75-10.51,2.27-1.45,4.16-3.61,2.84-6.13s-3.92-.58-5.88-.13c-6.68,1.54-9.49-.73-9.07-7.49.28-4.41-2-6.56-6.69-6.3-3.19.18-5.46,2.28-8,3.82-1.28,1-2.88,1.46-3.92,2.76.69-1.13,1.89-1.74,2.79-2.66,1.62-1.07,3.4-1.94,4.55-3.62l.25-.2c11.71-1.55,24,.39,35.7-6.29-1.94,3.05-4,4.75-5.48,6.87-2.81,4-4.77,8.24-2.93,13.29,5.7-2.37,11.06-2.79,16.37,1.42a4.91,4.91,0,0,0,6.34-.58c1.94-1.9,1.75-3.76,0-5.64-.59-.64-1-1.33-.62-2.21,2.27-4.73-1-5.66-4.42-6.44-2.71-.63-6.12-5.48-5.76-8.09.56-4,.89-7.61-1.9-11.57-4.09-5.82-10.68-6.08-16-9.12-1.06-3.12-2-6.27-3.2-9.35-2-5.48-4.74-10.59-9.16-14.59-2-1.82-4.26-1.62-6.48-.53-3.07,1.51.6,1.92.63,3.06,0,2.09-1.49,2.24-2.57,2.31a26.37,26.37,0,0,1-5.93-.46c-2.66-.42-4.62-1.22-4.09-4.8s-2-5.81-4.74-8.06c-5.47-4.53-12-4.64-18.41-5.28-4.43-.44-6,1.68-5.55,6.16.26,2.87.6,5.7-1.45,8.65s-2.14,6.43,2.15,8.75c4.92,2.66,6.56,9.09,2.38,12.12-5.64,4.09-5.06,9-4.71,14.39a32,32,0,0,1-.14,5,14.31,14.31,0,0,1-.82,2.69c-1-.5-2.22-.77-2.92-1.53-3.15-3.43-6.07-6.93-5.22-12.22.54-3.3-1-6.21-4.41-6.64a34.38,34.38,0,0,1-12.5-4.56c-2.92-1.61-6-3.16-9.41-2.76-3,.35-4.51-.91-5.7-3.55-1.39-3.11-2.59-6.81-6.66-7.37-3.6-.5-3.45-2.38-3.06-5.22.72-5.24,6-7.05,7.91-11,2.54-5.22,5.62-8.85,11.41-10.64,3-.93,6-3.68,4.4-7.92-.34-.88-1.41-1.57-.61-2.56a2.44,2.44,0,0,1,2.77-.49c1.1.37,2.32.84,2.09,2.35a25.66,25.66,0,0,1-.88,3.86c-1.22,3.94,1.46,7,3.49,9.14,1.75,1.83,4.83.1,7.14-2.26,2.08-2.14,5.49-2.67,8.8,1.39-2.11-5.74-4.67-8.44-9.83-9.24-2.61-.41-5-3.27-7.09-5.41-1.19-1.23.46-1.79,1.52-2.19l16.75-6.33c-1.07-1.42-2.47-2.5-2.74-3.82-.75-3.61-4.09-6.78-1.57-11,2.2-3.71,6.41-3.14,8.48-2.34,7.73,3,15,7.14,19.17,14.93,1.29,2.42.61,4.09-1.62,5.91-3.2,2.6-7.41,2.07-10.81,4.45-2.84,2-4.79,3.55-4,7,1.08,4.66,3.8,3.34,7.07,2.08,3.86-1.48,7.92,0,11.44,1.64,1.64.75,1.86,3.52,1.14,5.74-.36,1.11.75,1.75,1.49,2.33,3.83,3,9.12,3.17,13.58.86,1.83-1,1.82-1.83,1.4-3.5-.2-.79-2.53-.36-1-1.74.8-.71,1.53-.36,2.47.43,1.36,1.16,3.07.86,4.55-.33,1.7-1.37-.08-2.37-.33-3.49a45.31,45.31,0,0,0-1.47-4.46c5.62.08,6.66-5.06,9.23-8.43,4.26-5.57,3.93-6.8-2.85-9.45-4.75-1.84-8.33-5.24-12.29-8.14a4.05,4.05,0,0,1-1.57-5.1c1.3-3.8-.33-6.7-4.08-8.44-4.81-2.24-9.52-4.66-14.47-6.64-4.15-1.67-9.37-2.83-10.44-8.06-.76-3.68-3.23-4.94-5.8-4.77-7.83.53-16.77-3-22.79,5.38-.13.18-.62.09-1,.12-.75-4.45-2.25-6.6-4.76-6.8-4.27-.34-11.68,7.44-10.19,11.44,1.88,5.07,3.66,10.58,7.89,14.23,2.44,2.11,5.67,4.34,9.48,2.21,2.54-1.41,4.65-.16,7.61,1.34-4.78.25-8.15,1.77-7.8,6.38.3,3.89-2.34,5.91-4.55,9.66-1.87-6.92-6.52-10.55-11.54-13.69-4.45-2.77-5.69-7.91-9.08-11.44-4.35-4.53-8-4.17-11.35,1.16-.64,1-.56,2.48-2.23,3-3.09.91-1.52,2.46.06,3.06,2.87,1.09,5.24,3.63,9,3-2.32.59-2.92,1.43-2.43,3.7,1,4.52-1.7,6.64-6.23,5.54-2.73-.66-6.09-1.65-8.18.18-3.08,2.71-6.13,1.32-9.28,1.44-4.2.17-6.76-3.15-10.31-4.39-2.85-1-4,.17-5.83,2.05-2.07,2.17-1.07,3.15.36,4.84,1.16,1.37,2,3.18,1.64,6.36-4.67-6.69-11.53-7.43-17.56-9.83-2-2.13-4,.25-6,0-2.49-.78-2.18-4.51-5-4.87-6.4-.8-12.43-3-18.28-5.41-5-2.08-9.56-3.87-14.53-.46a1.29,1.29,0,0,1-2-.22c-3.8-4-7.84-4.39-12.34-1.33-2.21,1.51-4.14,3.56-7.06,3.71-.77-2.54,3.17-2.1,2.33-4.22-5.66-1.05-10.48.5-15.05,3.64a7.51,7.51,0,0,1-6.67.76,180.38,180.38,0,0,0-29-6.76c-9.37-1.28-19.29-1.16-27.92-4.44-10.38-3.94-16.5,3-23.36,6.81-4.07,2.25-7.88,5.49-12.47,7.08-3.64,1.26-4.75,4.18-1.56,5.41,6.45,2.49,9.07,12,18.17,9.45a6.93,6.93,0,0,1-7.42,1.21c-3.87-1.44-7.77-1.51-11.13,1.52-1.17,1.05-3.58,3.16-2.82,3.42,3.53,1.18,1.29,6.22,5.53,6.94,4.95.84,9.53-.13,14.25-.94,1.12-.19,2.88-1.18,3.41.65a4.48,4.48,0,0,1-.92,4.67,4.56,4.56,0,0,1-3.16,1.27c-3.53.15-6.24,2.09-8.89,4-4.39,3.23-4.24,7.9-3.59,12.62.61,4.42,4.3,3.16,7,3.57.85.13,1.74.11,2.21.86,3.23,5.08,8.67,4.77,13.62,5.6,1.85.32,3.06,1.14,1.68,2.92-3.06,4-4.81,9.25-10.54,10.64-2.46.6-4.35,2.31-6.34,3.79a9.83,9.83,0,0,0-4.86,4c2.21.13,4.1-.82,6-1.83,7.2-1.21,13.3-5.14,19.11-9,6-3.91,11.18-9.15,13.15-16.63.78-3,3.29-4.47,5.65-6.47.46,2.81-1.91,3.79-2.45,5.58s-2.16,4.25,1,5.42c4.46,1.64,12.65-2.53,13.45-7.25.56-3.36,1.91-3.33,4.29-2.24,3.31,1.51,6.49,3.93,9.93,4.38,9,1.18,16.28,5.29,22.52,11.64,1.62,1.65,3.69,2.53,5.59.65,1.61-1.58,1.8,0,2.41.72,4.06,4.85,6.11,11.48,12.62,14.17.77.31-.24.87-.11,1.07,2.38,4,2.71,9,7,11.92,5.44,3.62,9.58,9.18,16.25,11,.2.05.27.57.39.88l-1.9-.08c-2.29-.92-4.57-1.86-6.87-2.75-1.46-.56-2.48,0-3.39,1.25-1.13,1.51-.4,2.46.79,3.3,1.62,1.15,3.41,2.09,4.91,3.37,1.3,1.13,3.42,1.68,3.46,3.89.1,5.6.91,11-.17,16.82-1.36,7.33-1.79,15.24,2.11,22.18,3.21,5.71,7.82,10.61,9.44,17.25a4.72,4.72,0,0,0,2.7,2.77c11.18,3.9,11.62,15.61,16.94,23.68,1.87,2.84,2.67,6.66,5.42,9.14a21.08,21.08,0,0,1,5.45,7.65c1.12,2.73,3.18,4.69,5.53,3.05,1.86-1.29.8-4.18-.76-6.2-5.36-6.94-9.21-14.79-13.23-22.53-.43-.83-1.44-1.67-.24-2.55s1.67.23,2.33,1c5.61,6.18,8.84,14,14,20.58,3.19,4.06,5.41,8.73,9.82,12,2.64,1.93,5.73,4.32,3,8.66a2.8,2.8,0,0,0,1.68,4.39c4.28,1.14,7.5,4.2,11.44,5.91,6.11,2.66,11.65,6.62,19,6.26,3.09-.15,7.11-1.07,9.56,2.67,3.14,4.8,7.42,7.88,13.39,8.2,1.93.1,4,1,4.55,2.67,2.39,7.24,8.15,10.48,14.47,13.47,3.55,1.68,6.56,2.19,10.23.34,5.37-2.71,9.47-.48,10.24,5.34.91,6.94,0,13.23-6.57,17.55a18.58,18.58,0,0,0-5.51,5.69c-2.79,4.59-6.4,9.38-1.92,14.89.91,1.14.17,1.4-.33,1.82-5.24,4.32-4.39,8.21.71,11.92a6,6,0,0,1,1.46,2c5.52,9.89,11.21,19.69,16.42,29.75,2.08,4,5.23,6.28,8.94,8.12,2.81,1.4,5.83,2.39,8.66,3.75,4.47,2.15,6.72,5.56,6.23,10.77-.62,6.61-2.08,13.09-2.33,19.78-.55,15.08-6.13,29.66-4.58,45a6.66,6.66,0,0,1-.59,2.39c-2.13,6.85-6,13.4-5,20.83.65,5.09-4.16,10.48.9,15.27.33.31.21,1.08.3,1.64.42-.47,1.08-.89,1.22-1.43.6-2.29.52-4.81,2.9-7.49,0,3.26-.28,5.7.07,8,.41,2.78,0,4.73-2.92,5.7a37.17,37.17,0,0,0-9.62,4.9c-1.79,1.27-4.11,1.9-5,4.86,4.6-.39,7.54,2.52,11.09,4.29-1,2-4.86,1.92-4.16,5,1.12,4.85-.24,11.07,6.66,13,.89.26,2,.74,1.93,2-.11,1.48-1.49.87-2.3,1.2-4.38,1.75-4.52,3.44-1.15,7,5.7,6.1,13.18,9,20.62,12.06,5.87,2.4,12.5-.42,15.35-6.53-2.94-1.76-6.64-.85-9.56-3.51-6.79-6.2-6.11-16.86-.27-22.05a16.45,16.45,0,0,0,3.77-4.6c1.4-2.72,3.18-5.65-1.76-7.29-2.36-.78-4.32-3.08-1.61-5.56,2.51-2.29,3.64-5.5,5.85-7.82,3.8-4,6.21-7.7,1.31-12.43-.13-.13.09-.61.18-1.11,5.2.11,9.5-.82,9.11-7.67-.1-1.78,1.79-2.43,3.68-2.57a29,29,0,0,0,11-2.86c7.91-4,10.1-11.43,5.37-17.92,12.72-.32,13.28-.58,20.08-8,4.09-4.47,6-10.47,9.87-14.85a17.75,17.75,0,0,0,4.8-14.49c-.17-1.73,0-3.25,1.6-4.4,5.27-3.83,10.89-7.24,17.27-8.41,9.68-1.79,18.22-10.44,19.09-20.46.36-4.12.72-8.26.82-12.39.08-3.23.62-6.05,2.8-8.7,3.77-4.56,7.15-9.45,10.66-14.22C1347.08,529.33,1343.31,519.56,1336.84,518.57Z" transform="translate(-48.94 -80.22)"/><path class="cls-1" d="M1370,99.75c-5-2.17-10.91-3.56-15.27-.24-3.46,2.63-6.74.94-9.88,2.12a1.58,1.58,0,0,1-2.16-.63c-2.49-5.57-7.47-3.49-11.64-3.76-2.33-.15-4.67,0-7,0,5.85-3.35,12.22-3.42,19-3.82-11-9.07-69.07-9.6-84.45-1.18,1.89,4,7.81,1.8,9.72,6.21-6.62-2.17-13.63-.89-19.81-3.91-1.27-.62-1.65.56-1.65,1.67,0,1.33,0,2.66,0,4-1.85-1.59-3.2-3.69-5.13-3.37-5,.83-10-1.54-15,.39-1.79.7-3.84.36-5.35,2.17a18.4,18.4,0,0,1-10.78,6.41c-2.12.42-3.73,2.08-5.21,3.68-.94,1-1.21,2.25.14,2.89,2,1,3.73,3.06,2.65,4.33-1.49,1.74-3.45,4-6.64,3.43-4.82-.87-9.06,1.47-13.18,3.3-3.57,1.58-3.56,5.42-.42,7.53s6.5,4.44,10.91,2.75c1.56-.59,3.36.2,5.07,1.81-3.15,1.09-5.71,2.36-8.41,2.83-3.33.58-2.43,3.25-2.69,5-.32,2.09,1.84,1.24,2.94,1.33a3.28,3.28,0,0,1,2.38,1.41c1.68,1.89,3.78,2,5.81.54a5,5,0,0,1,3.74-1c10.13,1.57,20.47,2.33,26.83,12.46,2.72,4.34,4,9,5.25,13.75,1,4.08,2.25,6.87,7.2,5.06,2.74-1,3.59,1.33,3.13,2.89-.52,1.78-2.84,1.78-4.69,1.76-2.6,0-5,.83-4.57,3.82.35,2.59,2.27,3.49,5.2,3.09,2.2-.3,5.82-1.15,6.69,1,1.31,3.25-2.8,4.36-4.6,6.31-.89,1-2.72,1-4,1.79-.88.54-2.56-.13-2.53,2.08.06,3.58-.64,7.36,1.29,10.48,3.94,6.39,8.58,12.31,12.15,19s10.33,9.87,16.56,13.73c6.07,3.76,8.42,3.26,10.15-3.84,1.12-4.63,2.49-9.18,3.71-13.78.59-2.21,3.33-3.17,3-6-.24-2.35-.8-5.25,3.39-5.48,2.14-.11.36-2.82,1.42-4.15,2.33,2.87,5,2.41,8,1.25,4.53-1.73,8.16-4.28,10.52-8.58,1-1.92,2.4-4.25,4.5-4.4,7.26-.53,13.24-4.73,20.07-6.41,3.72-.92,4.4-2.59,1.54-5.92-3-3.53-8.11-4.94-10.23-10,5.43,1,8.66,5.53,13.56,6.44,1.32.25,2.88,1.87,4,.09,1-1.54.08-3-.68-4.63-1.5-3.13-5.53-2.62-7.35-5.41.49,0,.88-.12,1.11,0,2.4,1.48,4.06.22,5.56-1.49a2.59,2.59,0,0,0,.35-3.25c-1.41-1.84-3.16.35-4.42,0-2.44-.63-6.4,2.72-7.49-2.59,3.41-.49,8,.88,9.61-1.42,3.29-4.67,8.67-3.57,12.31-6.29-.88-2.22-4-1.09-5.33-3.3,3.23-2.68,3.65-5.3,0-8.29-2-1.61-2.85-3.66.19-6,6.5-5,5.78-8.41-2-11.55-1-.4-2.05-.63-3.36-1,5.14-3.91,6.8-10.1,12.36-13.89,4.51-3.07,8.07-7.86,13.51-10.14C1370.93,102.33,1372.56,100.85,1370,99.75Z" transform="translate(-48.94 -80.22)"/><path class="cls-1" d="M761.88,635.82c-3.43-3.6-8.61-5.8-9.4-11.59a2.18,2.18,0,0,0-1.38-1.33c-3.7-1.07-5.5-4.16-7.53-7s-4.15-5.14-7.61-6c-3.07-.76-4.1-3-4.23-5.94-.17-4-.82-8.23-3.41-11.23-3.16-3.66-7.28-6.36-7.76-11.89-.1-1.16-1.68-3.62-3.82-3.16-1.62.34-2.44,2.15-2.85,3.8-.72,2.89-1.15,5.87-2,8.7-1.22,3.87-.5,8.21-3.62,11.69-2.17,2.42-3.74,2.77-6.06.67s-5.36-3.28-8.19-4.66c-4.43-2.17-5.16-4.22-2.94-8.7.71-1.45,1.15-3.07,2.56-4.16a1.49,1.49,0,0,0-.05-2.52c-.75-.62-.81-2.15-2.64-1.34-3.62,1.6-7.25.6-10.92-.47-6.31-1.83-17.23,3.17-19,9.43-1,3.61-2.24,2-3.94,1.6s-2.78-1.69-4-2.84a7.15,7.15,0,0,0-10.26,1c-2.31,3.35-2.57,8.93-8.81,8.24-.59-.07-1.65,1.23-2,2.09-1.72,4.69-4,8.26-10,7.5-1.22-.16-2.73,1.11-4,1.93a52,52,0,0,1-10.52,5.47C596.72,619.34,593.42,626,596,637.44c.26,1.13,1,2.36-.21,3.2-2.17,1.52-1.23,2.67-.11,4.39a86.73,86.73,0,0,1,4.65,8.8c2.88,5.8,4.8,11.71,1.27,18-.92,1.62-.36,2.7.8,3.94,3.68,3.93,11.71,5.23,16.31,2.26,5-3.21,10.43-4.13,16.16-3.8,2.05.11,3.93.17,5.66-1.19,4.92-3.86,10.74-5.61,16.65-7.28,13.26-3.75,22.26-1.11,28.85,8.73,4.11,6.15,6.22,6.19,11.07.24a3.85,3.85,0,0,1,1.47-1.09c.14-.06.9.87.87.92-2,2.31,1.4,7.13-3.74,7.92-1,.16-2.07.56-1.79,1.85s1.5,1.15,2.45,1.11c1.45-.07,3.74.2,4.2-.56,1.79-3,3.13-.8,4.15.24a23.34,23.34,0,0,1,3,4.52c4.53,7.55,11.5,10.26,19.85,7.34a3.73,3.73,0,0,1,4.05.88c3.11,2.72,5.65,1.57,8.32-.65a15.42,15.42,0,0,1,4.19-2.59c4-1.56,6.37-4.42,7.79-8.43,1.83-5.14,2.31-11.21,6.12-15.11,6.44-6.62,8-14.22,7.19-23C766.09,643.54,765.28,639.38,761.88,635.82Z" transform="translate(-48.94 -80.22)"/><path class="cls-1" d="M1119.71,121.63c2.66.38,4.14,4.33,1.86,6.1s-.36,2.49.31,3.15c2.23,2.19,4.79,1.43,6.71-.32,3.34-3,6.8-2.31,10.58-1.35,2.23.56,4.07,2.56,6.53,2,2-.48,3.89-1.07,5.71.19a1.09,1.09,0,0,1-.12,1.74c-1.92,1-4,.91-6.15.75a4.58,4.58,0,0,1-2-.33c-3.34-2-6-1.63-9,1.17-2.44,2.29-2.85,5.22.3,6.72,2.18,1,4.7,1.35,7,2.22,5.65,2.17,11.54-1.06,17.2.86a16.72,16.72,0,0,0,6.81,1c.85-.07,1.72-.07,2.19-.9.62-1.13-.53-1.74-.8-2.6-.41-1.3-3.47-.79-2.09-3.06,2.27-3.73.09-4.7-3.29-5,8.34-.14,12.43-2.56,13.81-8.18,1.5,1.48,1.82,1.58,3.91,1.21-4.52-4.31-4.14-6.31,1.46-8.5,2.75-1.07,5.77-1.34,8.3-3.14,7.25-5.18,14.66-10.15,21.88-15.36,4-2.92,9-4,13.74-7-5.94-3.07-12-2.31-17.56-3.72a70.17,70.17,0,0,0-31.45-.71A153.24,153.24,0,0,0,1156.39,94c-6.39,2.19-13.69,3.26-20.62,4.64-1.5.3-3.7.43-3.94,2.46s1.86,2.69,3.35,3.74c5.62,3.94,12.53,3.52,18.62,5.79,4.74,2.75,8.43-.66,12.45-1.83-4.54,2-9.12,4.2-14.47,2.82a30.34,30.34,0,0,1-4.89-.72c-3.58-1.08-4.42.6-4.08,3.7a5.78,5.78,0,0,0,1.24,3.31,17.22,17.22,0,0,1-2.28-3.29c-2.37-4.4-7.81-4-11-6.92-6-5.47-11.16-4.17-15.78,2S1112.2,120.54,1119.71,121.63Zm29.15.6a38,38,0,0,1-3.39-2.86C1146.52,120.3,1147.75,121.16,1148.86,122.23Z" transform="translate(-48.94 -80.22)"/><path class="cls-1" d="M1034.86,175.8c.52-.65,1-1.35,1.53-2.08,2.45,2.28-1.61,5.08,1.69,7.33,2.63,1.79,8.45,1.15,6.94,7.13,4.84.38,6.54,4.92,9.8,7.39,2,2.49,4.84,1.26,7.27,1.83,3.78.57,7.24,0,10.29-2.52,2.11-1.78,4-3,7-.71,2.6,2,6.72.76,9.7,3,1.23.93,2.51-.45,3.4-1.37a8,8,0,0,0-2-12.51c-3-1.69-5.75-3.32-5-7.6s-.52-8.59-.92-12.88c-.14-1.47-.26-2.06-2.34-1.77-7.42,1-10.62,4.41-10,12.08.1,1.32-.17,2.55-.73,3-1.19.85-2.18-.64-2.67-1.38a10.87,10.87,0,0,0-9.67-5.22c-1.19,0-2.36-1-3.54-1.59-6.77-3.08-12.48-8.7-20.65-8.39a10.29,10.29,0,0,1-5.59-1.31c-4.31-2.37-12.06,2.36-12.79,7.27-.39,2.7,0,5.51-1.54,8.07a2.83,2.83,0,0,0,.42,3.64A13.27,13.27,0,0,0,1034.86,175.8Z" transform="translate(-48.94 -80.22)"/><path class="cls-1" d="M707.83,541.31c-6.46-2.36-12.91-5.52-19.08.64-1.9,1.9-2.81.63-4.15-1-4.17-5.06-9.33-8.5-16.23-8.33-4.58.12-5.66,1.59-3.36,5.33a30.86,30.86,0,0,0,9.59,9.91c4.21,2.71,8.42,5.3,13.69,3,1.23-.52,1.77.13,2.5.85,3,2.9,6.05,5.48,4.43,10.6-.69,2.19.1,6.73,3.42,5.38,6.44-2.61,10.17,4.29,15.85,3.34.45-.08,1.56,1.78,2.81,1.23,1.5-.66.48-2,.38-3-.35-3.4.42-3.82,4.1-3.32,5.24.7,7.4,4.53,10.5,7.5a10.45,10.45,0,0,0,15-.61c-2.3-2.24-5.33-3.26-8-4.84-5-2.93-6.84-8-4.3-11.5,3.34,1.54,6.55,2.2,9.61-1.79-3.9,0-7.41,1.29-10.78-.09a20.45,20.45,0,0,1-7.77-3.19C720.1,547.76,714.42,543.73,707.83,541.31Z" transform="translate(-48.94 -80.22)"/><path class="cls-1" d="M572.62,527c-1.92,1.16-2.38,3-1,4.62,7.11,8.45,12.81,19.33,25.49,16,2.69,1,2.93-.4,3.72-.83,5.91-3.17,6.82-9.87,10.39-14.69,2-2.73,2.57-6,1.84-9.76C612.38,519,611.7,515,615,512.1c1.12-1,1-2.45-.12-3-3.34-1.51-4.71-5.47-8.36-6.44-.19,0-.59.72-.9,1.11-7.84,10.14-18.84,15.92-29.87,21.65C574.68,526,573.6,526.44,572.62,527Z" transform="translate(-48.94 -80.22)"/><path class="cls-1" d="M336.12,584.55c-3.86-.86-5.58,1.74-7.3,4.59a20.54,20.54,0,0,1-12.9,9.44c-3.43.87-4.75,2.71-5.12,6.23-.44,4.12,1.71,8.79-.6,12.22-4.05,6-2.24,11.38-.24,17.28,1.76,5.19,6,5.14,10,5.63s5.27-2.28,6.52-5.52c4.76-12.33,7.1-25.5,13.15-37.38.65-1.26.55-2.91.71-3.92C340.32,588,339,585.17,336.12,584.55Z" transform="translate(-48.94 -80.22)"/><path class="cls-1" d="M341.88,180.68c6.08,2.54,10.83,8.27,17.4,7.9,2.66-.6,5.18,1,6.26-1.3.8-1.73-.74-3.53-1.76-4.95-5.89-8.23-5.93-8.19,1.88-14.47.64-.52,1.11-1.32,1.81-1.69,4.92-2.55,6.89-8.18,12-10.8,8.53-4.38,17.67-6.45,26.81-8.69,3.47-.85,8-1.92,7-5.86-.84-3.29-5.57-2.55-8.85-1.73-9.65,2.42-19.32,4.79-28.91,7.43-5.41,1.49-11,2.9-15.19,7a114.89,114.89,0,0,0-18.62,23.7C341,178.44,340.24,180,341.88,180.68Z" transform="translate(-48.94 -80.22)"/><path class="cls-1" d="M98.06,284.08c-.57,1.32,1.11,1.13,2,1.44,3.58,1.32,6.08-2,9.76-2.12-1.56,6.33-3.9,11.72-9.65,15.14-1.83,1.09-2.12,3.16.79,3.55,5.41.73,2.78,3,1.09,5.08-.91,1.12-2.88,2.09-2.15,3.55.82,1.64,2.91,1.81,4.81,1.69a12,12,0,0,0,5.2-1.42,18.76,18.76,0,0,1,9.38-2.64c2.95,0,5.84-.74,6.93-4.41.75-2.5,3-4.91,1.81-7.48a19.78,19.78,0,0,0-5.57-7.37c-4.77-3.48-6.42-8.49-8.07-13.6a5.28,5.28,0,0,1,.69-5.14c2.16-2.86,1.49-4.54-2.44-4.21-1,.08-3.12.06-2.1-1.51,2.61-4-.3-5.07-3-5.85-3.26-.95-6.36-.43-7.69,3.37-.77,2.18-1.22,4.47-2,6.65C96.09,273.92,100.34,278.91,98.06,284.08Z" transform="translate(-48.94 -80.22)"/><path class="cls-1" d="M694.82,359.47c-4.57,3.71-8.83,7.92-14.81,9.63-5,1.42-9.34,4.21-13.73,6.84-6.63,4-8.5,8.92-6.29,14.8,1.26,3.37,3,2.83,4.49.56,2.31-3.45,3.76-7.86,9.42-5.94.45.15,1.34-.34,1.73-.79,2.15-2.5,4.34-4.62,6.92-2.48,3,1,4.46-.55,4.89-1.85,1.11-3.3,3.77-3.3,6.26-3.51,7-.61,9.94-3,11.23-9.91.7-3.75,1.32-7.49,3.06-10.95,2-4,1.27-7.35-2.3-10.08-1.39-1.06-2.41-3.37-4.45-2.54s-2,3.47-1.9,5.24A12.18,12.18,0,0,1,694.82,359.47Z" transform="translate(-48.94 -80.22)"/><path class="cls-1" d="M183.69,125.44c.93-.2,1.8-.1,2.19.58.75,1.32-.67,1.58-1.38,2.11-1.07.8-3.32,0-3.32,2.2,0,4.54,2.25,7.52,6.5,9.19s4.44-2.37,6.19-4.13a10,10,0,0,0,1.86-3.5c1.58-4.19,3.74-4,7.5-2.16,2.44,1.17,3.25,4.74,6.18,4.17a8.77,8.77,0,0,0,6.63-2.73c.81-.86,1.93-2.71.36-3.42-2.59-1.18-4.7-4-8.15-2.85-.76.26-1.58,1.38-2.41-.16-4.31-8-14.36-7.81-20.15-13.84-.95-1-3.64-.85-4.61.56-2,2.89-4.09,2.19-6.71,1.24-1.67-.6-3.8-.59-5.06,1.1s-.62,3.31.3,5.09C173.43,126.27,175.17,127.17,183.69,125.44Z" transform="translate(-48.94 -80.22)"/><path class="cls-1" d="M518.36,117.35a7.79,7.79,0,0,0,2.88-.65c.63-.19,1.5-.63,1.75,0,2.65,7.37,9.41,6.14,15,7.17,8.71,1.61,8.35,1.36,11.76-7.13,1.16-2.9-.33-3.06-1.59-4.26s-2.85-.59-4.23-1a10,10,0,0,0-2.64.77,3.69,3.69,0,0,0,1.55-2.77c-3.91-4.37-8.54-6-14.15-3.57-4.09,1.75-8.22,3.41-12.2,5.38-1.83.91-4.73,2-4.17,4.3C513,118.48,516.21,117.13,518.36,117.35Zm21.46-4.52a6.21,6.21,0,0,1-3.47.38C537.51,113.07,538.74,113.07,539.82,112.83Z" transform="translate(-48.94 -80.22)"/><path class="cls-1" d="M838.58,702.5c-4.36-.18-6.49,2.57-7.79,6.31-1,2.92-2.12,5.09-5.67,6.6C819,718,813,721.56,810.94,728.83c1.46.75,3,1.53,4.61,2.38,7.12,3.85,13.67,1.13,15.66-6.71a6,6,0,0,1,3-4.2c3.76-2.19,6.52-5.5,9.06-9a7,7,0,0,0,1.07-7.07C843.23,701.64,840.6,702.58,838.58,702.5Z" transform="translate(-48.94 -80.22)"/><path class="cls-1" d="M1044.1,149.81c-2.56,2.86-2.1,5.19,1.3,6.15,4,1.13,7.73,2.69,11.62,3.95,1.92.63,4.15,1.18,5.76,0,4.31-3.21,8.64-5.2,12.46-2.85,3.66.93,5-1.31,7-1.42,1,0,2.51.75,2.72-1.16.14-1.35-1-1.91-1.72-2.79-3.3-4.11-7.85-6.2-12.5-8.26-4.22-1.86-6.27-.77-7.15,4-.33,1.85-.82,3.59-3.48,2.18-1.74-.91-3.9-1.06-5.55-2.08C1050.2,144.82,1047.12,146.43,1044.1,149.81Z" transform="translate(-48.94 -80.22)"/><path class="cls-1" d="M1162.41,160.11c3.81,1.31,3.57-.54,3-3.07-1.76-7.69-6.2-10.43-14.19-8.84a4.48,4.48,0,0,1-2.42.11c-6.53-2.8-13.39-1.48-20.12-1.75-3,4.88-.34,7.12,3.94,9.26,3.82,1.91,7.46,1.38,11.29.75,1.24-.21,2.73-.69,3.5.69.21.38-.72,1.41-1.29,2.44C1151.74,158.51,1157.19,158.31,1162.41,160.11Z" transform="translate(-48.94 -80.22)"/><path class="cls-1" d="M600.53,569.41c1.5-.36,3.76.43,4.27-1.64.57-2.28-1.77-2.28-3.13-2.92-5.2-2.46-10.3-5.2-15.68-7.19-2.75-1-6.13-3.9-9.08.45-.51.75-2.87.24-4.23-.52a31.66,31.66,0,0,1-5.06-3c-3.68-3.06-5.85-.62-7.41,2.18-1.78,3.21,1.42,3.72,3.31,4.55a104.25,104.25,0,0,0,34,8.16A13.37,13.37,0,0,0,600.53,569.41Z" transform="translate(-48.94 -80.22)"/><path class="cls-1" d="M856.06,687.26c-2,0-4.84.46-5.27-1.66-1-5.05-6.89-5.54-8.54-9.88-.32-.85-2.09-2-3.36-1.11-1.51,1.07-1,2.67-.07,4,1.95,2.75,2.68,6,4,9,1.27,2.84,2,5.44-.48,8.25-1.8,2-.93,3.92,1.78,4.59,2.25.55,3.53,1.66,3,4a3.37,3.37,0,0,0,2.19,4.94c2.32.56,2.43-2,2.82-3.67a11.32,11.32,0,0,1,2.62-5.24c1.55-1.69,2.77-3.62,4.51-5.22s3.32-4.2,2.16-6.67C860.53,686.56,858,687.26,856.06,687.26Z" transform="translate(-48.94 -80.22)"/><path class="cls-1" d="M80.1,304.3a36.41,36.41,0,0,0,4.5,0c1.33-.44,3.36.43,5.18-1,4.59-3.58,7.62-12.21,6.14-17.92-.58-2.23-1.75-3.74-4.27-4.16s-4.56,0-6,2.23c-.69,1.06-.77,2.95-2.39,2.88-6.81-.28-6.33,3.28-4.45,7.89.67,1.63-1,2.67-1.69,3.92C75.18,301.72,76.18,303.75,80.1,304.3Z" transform="translate(-48.94 -80.22)"/><path class="cls-1" d="M212.05,119.74c3.67-.78,9-1.9,13.7-4.86,1.36-.85,2.46-1.84,2.37-3.5-.12-2.15-2-1.76-3.38-2.1-9-2.19-18.21-2.38-27.4-2.75a12.46,12.46,0,0,0-1.49.06c-2.61.17-3.76.77-1.91,3.64C197.84,116.25,203.1,119.57,212.05,119.74Z" transform="translate(-48.94 -80.22)"/><path class="cls-1" d="M706,318a2.47,2.47,0,0,0,2,3c1.41.37,2-1,2.62-1.88a3.18,3.18,0,0,0,.14-4.11c-1.45-1.92-.25-2.89,1.54-2.87,4.66,0,5.19-3.05,4.45-6.3-.89-3.89-1.27-7.81-1.94-11.71-.63-3.71-1.11-7.65-4.25-10.36-2.3-2-4.09-2.15-4.71,1.53s-1.58,7.14,0,11C702.36,303.41,708.7,310.55,706,318Z" transform="translate(-48.94 -80.22)"/><path class="cls-1" d="M618.36,554.56c.68.76,1.43,1,2.12.46s2.4-.68,1.74-2.45a6.36,6.36,0,0,1,.52-5.76c1.39,2.11,2.45,3.53,3.3,5.06s.27,4.49,3,3.3c1.88-.83,5.57-1,4.21-5.32-.46-1.46-1.57-3.77.26-5.51,3.08-3,4.93-5.62-1.49-6.43-.56-.07-1-.86-1.56-1.2-4.2-2.56-9.41-2.26-12.12.68C615.4,540.52,615.48,551.3,618.36,554.56Z" transform="translate(-48.94 -80.22)"/><path class="cls-1" d="M697,157.64c3.66,0,7.43.5,11-.18,5.15-1,11.23-1,13.35-7.7-1.66-.27-3.4,0-5.12-.79-3.18-1.49-6.79-2.49-10.13-1.26-2.61,1-4.17.55-6.51-.74s-5.48-2.27-7.88-.08c-2,1.85-2.39,4.28-1.41,7.21C691.47,157.79,694.11,157.66,697,157.64Z" transform="translate(-48.94 -80.22)"/><path class="cls-1" d="M1109.86,168.68c2.68-1,3.19.81,4.15,2.78,1.88,3.87,5.64,4,8.18.47,1.36-1.88,2.43-4,4-5.64,1.81-1.82,5.4-4.11,4.26-5.74-1.52-2.19-5.47-1.12-8.41-.83-.48.05-.93.38-1.41.45-4.61.72-7.82,3.56-10.7,6.93h0c-.48-4.38-4.32-8.22-7.29-6.88-3.57,1.61-7.37,3-10,6.16a6,6,0,0,0-1.58,2.43c-.4,2.25,6.35,11,9,11.48,4.61.81,6.87-2.77,8.94-5.82C1110,173,1109.62,170.64,1109.86,168.68Z" transform="translate(-48.94 -80.22)"/><path class="cls-1" d="M629.54,475.93a6.19,6.19,0,0,1,5.24,1.68c.69-2.66-.14-4-1.88-5.13-2.21-1.45-4.2-3.24-6.39-4.71s-1.9-2.48.22-3.37c5.52-2.31,3.88-6.17,2.2-10s-5.62-4.36-8-.84a19.64,19.64,0,0,0-3.5,10.15C616.87,473.22,620.38,477,629.54,475.93Z" transform="translate(-48.94 -80.22)"/><path class="cls-1" d="M1190.09,422.37h0l-.16.09h0l.07,0s0-.1,0-.15Z" transform="translate(-48.94 -80.22)"/><path class="cls-1" d="M1158,412.73c-2,.55-4.61,2-3.86,4.24,1,3,4.43,4.17,7.09,5.65s.74-1.77,1.92-2.26a2.43,2.43,0,0,1,2.3.14c1.72.95,3.32,2.16,5.1,3,4.32,1.95,8.9,5,13.47,2,1.93-1.28,4-1.92,5.9-3-8-3.26-16-6.64-24.05-9.7A13.12,13.12,0,0,0,1158,412.73Z" transform="translate(-48.94 -80.22)"/><path class="cls-1" d="M1023.8,150.58c8.92.2,16.43-3.07,21.91-10,2.13-2.69,4.06-4.49,7.63-4.24-1.84-.89-3.43-2.15-5.54-1.69-9.45,2.08-18,6-25.07,12.71-.65.63-2.05.79-1.5,2.11C1021.67,150.53,1022.79,150.56,1023.8,150.58Z" transform="translate(-48.94 -80.22)"/><path class="cls-1" d="M741.54,705.06c-2.67.52-5.24,2.23-8.08,1.24-1.56.32-3.43-1.11-4.46,1-.84,1.76.24,3.16,1,4.61s1.36,3,2.17,4.39c1.27,2.21,2.05,5.08,5.32,5.11s4.33-2.22,5.68-4.69a21.38,21.38,0,0,0,2.31-8C745.75,706.42,745.19,704.34,741.54,705.06Z" transform="translate(-48.94 -80.22)"/><path class="cls-1" d="M644.79,493.64c-4.94,2.65-10.92,2.06-15.68,5.24,1.18,2.12,2.9,5.27,5.19,4s2.37-.47,3.37,1c4.23,6,7.22,6,11.32-.06,1.82-2.68,1.2-5.39-.32-7.94C647.83,494.41,646.71,492.62,644.79,493.64Z" transform="translate(-48.94 -80.22)"/><path class="cls-1" d="M309.67,106.5c4.11,1.24,8.47,1.52,12,3.09,2.39,0,12.24-6.26,12.76-7.86.63-1.93-.84-2.2-2.13-2.24-7.68-.21-15.08,1.46-22.38,3.64-.77.23-2.3.23-1.87,1.7A2.82,2.82,0,0,0,309.67,106.5Z" transform="translate(-48.94 -80.22)"/><path class="cls-1" d="M712.51,341.89c4.5-.28,3.79-5.53,5.3-8.6.37-.75-8-7-8.92-6.4-2.94,1.83-5.32,4.27-5.24,8.16C703.71,340.24,705.67,342.32,712.51,341.89Z" transform="translate(-48.94 -80.22)"/><path class="cls-1" d="M636.78,480.91a5.94,5.94,0,0,1-9.56,0c-1.4-1.78-2.35-1.7-5.26-1,4.82,1.21,1.82,4.85,3.92,7,4.69,4.92,10.88,4.87,16.5,0,2.27-2,2.72-4,.94-5.7C641.72,479.77,639.53,477.43,636.78,480.91Z" transform="translate(-48.94 -80.22)"/><path class="cls-1" d="M1090,147c3.42,3.49,8.93,1.9,12.51,5.2.81.74,1.9.81,2.09-1.25a26.67,26.67,0,0,1,2.17-7.48c.91-2.18.12-2.76-1.83-3.39C1100,138.51,1094.1,141.14,1090,147Z" transform="translate(-48.94 -80.22)"/><path class="cls-1" d="M1101.69,125c-17.92-4.26-18.07-6.21-21.81,1.08,2.26,1,5,.45,7,2.09C1093.32,133.27,1097.83,132.29,1101.69,125Z" transform="translate(-48.94 -80.22)"/><path class="cls-1" d="M637.07,576.29c6-.44,11.51-2.45,16.91-4.83,1.88-.83,1.67-1.76,0-3.15-5.08-4.19-7.28-4.32-14.17-.07-3.28-.8-6.59-2.34-9.83-2.21-4.15.17-8.16-2.57-12.17-.68-2.44,1.15-4.73,1-7.23.9-1-.06-3-2.32-3.28.81a3,3,0,0,0,2.76,3.49c2.93.42,5.89.66,8.84,1,1.12,1.22,2.06,2.72,3.4,3.6a2.89,2.89,0,0,0,4.22-1.41c.71-1.59-1-2.24-2.32-2.44-1.75-.27-3.31-1.55-5.2-1-.11-1.61.9-2.15,2.16-1.71a27.87,27.87,0,0,0,12,1.76c2.12-.2,2.71,1.41,2.94,3.17C635.46,574.75,633.31,576.56,637.07,576.29Z" transform="translate(-48.94 -80.22)"/><path class="cls-1" d="M625.63,433.34c.43-.89.62-1.89,1-2.79,1.23-2.66,2.44-6.71.56-7.93-2.76-1.79-5.23,2-7.4,3.77-1.3,1.08-1.51,3.46-2,4.58.19,3.57.88,6.66,3.68,7.18S624.69,435.34,625.63,433.34Z" transform="translate(-48.94 -80.22)"/><path class="cls-1" d="M351.41,104.2c3.25,1.65,6.08,6,10.53,2.33,2.4-1.35,4.44-1,6.4,1,2.39,2.51,5,2.64,7.64.16,2.25-1.13,4.63-1.29,7.12-1.5,3-.25,6.18-2,6.51-5s-3.22-3.78-5.62-4.48c-3-.89-4.52,2-6.61,3.14,1.43,2.41,4.87,1.55,6.18,4.48l-6.44.85c-2.42-3.48-6.73-3.84-11.82-1-.9-1.43.82-2.39.66-3.67,1.53-1.2,1.14-2.22-.44-2.83-2.71-1-11.7,1.31-13.5,3.51C351.33,102.09,350.06,103.5,351.41,104.2Z" transform="translate(-48.94 -80.22)"/><path class="cls-1" d="M161.36,369.62a5.6,5.6,0,0,0,4.95-7.44c-.43-1.42-1.82-2.83-.4-4.59,1.31-1.61,1.67-3.58-.76-4.39a3.56,3.56,0,0,0-4.62,3.21c.44,3.45-2.43,6-1.57,9.13C158,368.16,158.54,369.7,161.36,369.62Z" transform="translate(-48.94 -80.22)"/><path class="cls-1" d="M789.79,565.23c-10.52-4.37-22-6.66-30.46-15.09C763,558.75,783.15,568.38,789.79,565.23Z" transform="translate(-48.94 -80.22)"/><path class="cls-1" d="M1062,137.08c2.67-1.54,6.53-2.4,7.29-6.31-1-.9.17-3.44-2.54-2.8-3.19.76-6.39,1.41-9.29,3-1.29.73-2.2,1.9-1.2,3.2C1057.72,136,1060.41,138,1062,137.08Z" transform="translate(-48.94 -80.22)"/><path class="cls-1" d="M728.16,156.49c4.13.12,8.39,2.61,12.5-.45-2.21-5.38-7.53-4.27-11.78-5.28-1.4-.33-3.37-.3-3.46,1.74C725.34,154.28,726.64,156.44,728.16,156.49Z" transform="translate(-48.94 -80.22)"/><path class="cls-1" d="M839.82,187.08c5,1.85,10,3.67,15.83.91-4.43-4.91-9.95-4.92-15.6-4.35-.94.09-2,.45-2.19,1.61C837.69,186.59,839,186.77,839.82,187.08Z" transform="translate(-48.94 -80.22)"/><path class="cls-1" d="M799.42,611.36c-.13,7.24,7.57,12.37,15.63,10.19C810.16,617.29,804.68,614.65,799.42,611.36Z" transform="translate(-48.94 -80.22)"/><path class="cls-1" d="M1196.66,432.25c1.88-.47,3.71-1.17,5.55-1.78,1.16-.39,3.06-.17,2.87-2-.15-1.4-1.91-1.58-3.09-2-3.91-1.53-8.37-1.44-12-4-.86,2.47.82,3.36,2.73,3.85s2.53.84,1.33,2.92C1192.57,431.93,1194,432.93,1196.66,432.25Z" transform="translate(-48.94 -80.22)"/><path class="cls-1" d="M578.07,447.27c-2.93-.07-7.83,3.25-7.69,5.34.19,2.74,2.29,2.72,4.33,2.79,3.7.14,5.91-1.67,6.49-5.2C581.56,448.05,580.6,446.66,578.07,447.27Z" transform="translate(-48.94 -80.22)"/><path class="cls-1" d="M1249.2,720.33a22.77,22.77,0,0,0-4.39-.31c-1.37-.06-3.72-1-3.56,1,.1,1.32.86,3.86,3.14,4.36a18.3,18.3,0,0,0,3,.2c.33,0,.67,0,1-.05,2.72-.34,6.18-1.4,6.22-3.81C1254.62,719.08,1251.09,720.8,1249.2,720.33Z" transform="translate(-48.94 -80.22)"/><path class="cls-1" d="M642.76,531.26c-.1-1.92-2.35-1.32-3.19-1.16a10.12,10.12,0,0,1-9.22-2.32c-.65-.57-1.89-.48-3-.72-1.74.17-3.75.4-4.34,2.42-.42,1.45,1.48,2.33,2.2,1.86,3.93-2.54,6.67,1.36,10,1.57,1.46.08,2.89.81,4.33.84S642.84,533,642.76,531.26Z" transform="translate(-48.94 -80.22)"/><path class="cls-1" d="M1099.27,191.15c3.08,3.61,7.21,3.63,9.11,7,.57,1,3.8,1.17,4.19-1,.77-4.24-3.76-7.57-8-6.08A7.54,7.54,0,0,1,1099.27,191.15Z" transform="translate(-48.94 -80.22)"/><path class="cls-1" d="M992.59,276.74c-1.91-.65-2.48,1.46-2.14,3-.29,3.95,1.57,6.31,4.75,7.41.71.25,3.33-.07,2.83-2.25C997.27,281.5,996.12,277.94,992.59,276.74Z" transform="translate(-48.94 -80.22)"/><path class="cls-1" d="M648,549.63c4.37-4.25,7.93-3.26,11.54-1.24.76.43,1.94.11,2.93.1s1.69-.13,1.67-1.27c0-.88-.36-1.85-1.35-1.65-2.62.53-4.28-1.37-6.37-2.19C651.88,541.63,650.31,542.57,648,549.63Z" transform="translate(-48.94 -80.22)"/><path class="cls-1" d="M648.94,535.52a38,38,0,0,1,4.8,0c2.7.4,3.56-.81,3.43-3.33-.14-2.82.11-5.94-3.57-6.6-2-.35-3.55,2-2.54,3C654.36,531.67,650.84,532.73,648.94,535.52Z" transform="translate(-48.94 -80.22)"/><path class="cls-1" d="M234.64,384.75c.1-1.83-2.09-3.68-4.5-3.74-3.11-.07-3.41,2.61-3.9,4.71-.65,2.74,1.83,2,3,2.47C231.89,388.07,234.52,387.1,234.64,384.75Z" transform="translate(-48.94 -80.22)"/><path class="cls-1" d="M1121,141.82c.6-1.87-1.59-2-3.54-1.85-2.22.83-5.75-.05-7,3.26-.19.5,2.59,2.14,3.34,3.85C1116,144.91,1120,145,1121,141.82Z" transform="translate(-48.94 -80.22)"/><path class="cls-1" d="M182.23,199.39c-1.32,1-.75,2.07-.2,3.09.72,1.37,2,1.11,3,.57,2.74-1.38,4.89-3.3,5.6-6.68C187,195.14,184.71,197.62,182.23,199.39Z" transform="translate(-48.94 -80.22)"/><path class="cls-1" d="M857.39,600.76c-1.74-.22-2.67-.43-3.59-.44-2.3,0-4.61,0-6.91.1a2.36,2.36,0,0,0-1.65.69c-.65.88.23,1.46.75,2C848.79,606.37,852.06,605.84,857.39,600.76Z" transform="translate(-48.94 -80.22)"/><path class="cls-1" d="M925.06,259c-2.88.1-4,3-5.72,4.8-.55.6,1.27,1.63,2.38,1.74,2.83.28,4.54-1.6,6.35-3.55C927.23,260.82,926.54,259,925.06,259Z" transform="translate(-48.94 -80.22)"/><path class="cls-1" d="M1128.72,146.48h0a.27.27,0,0,0-.08.07h.05l0-.08Z" transform="translate(-48.94 -80.22)"/><path class="cls-1" d="M1131.15,143.84c-8.48-3.48-9-3.32-8.4,2.65l.14.12,5.81-.13C1129.58,145.66,1131.07,145.41,1131.15,143.84Z" transform="translate(-48.94 -80.22)"/><path class="cls-1" d="M614.89,484.31c-1.59,1.39-3.63,2.73-4.17,5.27-.21,1,.12,2.12,1.53,1.7a6.1,6.1,0,0,0,4.75-5C617.17,485.29,616.45,484.48,614.89,484.31Z" transform="translate(-48.94 -80.22)"/><path class="cls-1" d="M880.71,253.07c1-.21,2.45-.57,2-1.63a9.88,9.88,0,0,0-3.93-4.11c-1.7.22-2.18,1.08-1.74,2.15C877.75,251.14,877.72,253.69,880.71,253.07Z" transform="translate(-48.94 -80.22)"/><path class="cls-1" d="M1109.33,132.6c3.1.19,3.42-3.6,6-4.22.83-.2,0-.74-.26-1a7.16,7.16,0,0,0-1.43-1,7,7,0,0,1-5.48,3.53,1.47,1.47,0,0,0-1.32,1.78C1107.23,133.06,1108.42,132.55,1109.33,132.6Z" transform="translate(-48.94 -80.22)"/><path class="cls-1" d="M1153.16,231.94c-.05,2.83.62,5.28,2.59,7.13.16.14,2.27-.6,2.18-2.14C1157.74,234,1155.89,232.61,1153.16,231.94Z" transform="translate(-48.94 -80.22)"/><path class="cls-1" d="M755.67,548.76c.16-.75-.33-1.15-1.07-1.3-3.66-.74-4.4,2.32-5.59,4.84C751.27,551.12,754.83,552.48,755.67,548.76Z" transform="translate(-48.94 -80.22)"/><path class="cls-1" d="M676.19,556.92c2.13,1.29,4.33,1,7.59-1.27-3-.3-4.45-3.31-7-.74C676.17,555.55,675.48,556.49,676.19,556.92Z" transform="translate(-48.94 -80.22)"/><path class="cls-1" d="M886.8,276.47l-.1.09.19,0h0a.76.76,0,0,1,.08-.11Z" transform="translate(-48.94 -80.22)"/><path class="cls-1" d="M876,281c4.58-.84,8-1.64,10.7-4.4A11.39,11.39,0,0,0,876,281Z" transform="translate(-48.94 -80.22)"/><path class="cls-1" d="M784.8,571.12c.06,1.72,1.59,2,2.86,2a3.19,3.19,0,0,0,3.26-2.22c-1.19-.65-2.2-1.63-3.75-1.59C785.93,569.33,784.75,569.65,784.8,571.12Z" transform="translate(-48.94 -80.22)"/><path class="cls-1" d="M983.4,264.74c.52,3.21,2,5,4.65,5.63.87.22,1.21-.56,1.1-1.22C988.67,266.33,986.75,265.12,983.4,264.74Z" transform="translate(-48.94 -80.22)"/><path class="cls-1" d="M732.69,328.23c.41-.85-.47-1.7-1.29-1.63-2.48.22-4,1.86-4.9,4,0,.08.1.25.31.74C728.73,330.19,731.49,330.73,732.69,328.23Z" transform="translate(-48.94 -80.22)"/><path class="cls-1" d="M1114.91,148.54c-1,0-2.13,0-2,1.47.14,1.91,1.57,2.51,3.11,2.46a2,2,0,0,0,1.92-2.44C1117.72,148,1116.09,148.6,1114.91,148.54Z" transform="translate(-48.94 -80.22)"/><path class="cls-1" d="M741.88,542.28c.07-1.84-1.61-1.85-2.69-2.38s-2.94-1.07-3.25.67c-.27,1.56,1.7,1.72,2.87,2.11C739.8,543,741,543.84,741.88,542.28Z" transform="translate(-48.94 -80.22)"/><path class="cls-1" d="M669.58,550.54c-.38-1.56-1.61-2-2.94-2.25a1.37,1.37,0,0,0-1.74,1.28c-.11,1.27.4,2.4,1.85,2.35C667.79,551.88,669.14,552,669.58,550.54Z" transform="translate(-48.94 -80.22)"/><path class="cls-1" d="M603.65,552.19c.83.36,2.52.48,2.59-.35.13-1.84-.79-3.48-3.45-4.31C603.6,549.24,600.76,550.94,603.65,552.19Z" transform="translate(-48.94 -80.22)"/><path class="cls-1" d="M1211.74,429.83c-.92.47-2.68.13-2.59,1.63s1.59,1.4,2.63,1.06,2.41-.61,3-1.81A2,2,0,0,0,1211.74,429.83Z" transform="translate(-48.94 -80.22)"/><path class="cls-1" d="M361.06,109.84c-1,.58-2.84,0-3,1.8-.11,1.09.89,1.12,1.86,1.15,1.16-.22,2.47-.55,2.56-2.14A.94.94,0,0,0,361.06,109.84Z" transform="translate(-48.94 -80.22)"/><path class="cls-1" d="M1180.84,201.14c-1.53-.51-1.13-3.36-3.32-2.68-.78.25-2.08,1.15-1.63,2.13C1176.91,202.83,1179,201.53,1180.84,201.14Z" transform="translate(-48.94 -80.22)"/><path class="cls-1" d="M550,131c1.71,1.37,3,.33,4-1.28a26,26,0,0,1,11.73-3.08c1.06,0,2.6.6,3-.83a3.26,3.26,0,0,0-1.92-3.67c-2.68-1.22-5.49-2.14-8.26-3.16-2.07-.75-4.69-1.45-6,.48-1.49,2.28-3.28,5-1.61,8.13C552.14,129.12,548.07,129.4,550,131Z" transform="translate(-48.94 -80.22)"/><path class="cls-1" d="M669.46,562.5c1.15-.2,1.48-1.2,1.46-2.25a1.63,1.63,0,0,0-1.48-1.67c-1,.37-1.74.92-1.68,2.1S668.16,562.72,669.46,562.5Z" transform="translate(-48.94 -80.22)"/><path class="cls-1" d="M1120.78,148.35c.52,1.52,1.61,1.31,2.71,1,.78-.22.76-.28-.6-2.75l-.14-.12C1121.4,146.36,1120.05,146.19,1120.78,148.35Z" transform="translate(-48.94 -80.22)"/><path class="cls-2" d="M339.87,424.2c.08,0,0,0,0,0Z" transform="translate(-48.94 -80.22)"/><path class="cls-2" d="M865.06,204.92c-6.45-1.81-11.85-5.24-17.39-9.08-11.38-7.88-24.47-11.52-38.45-11.64-2,0-4.29-.74-5.22,1.39-1.07,2.46,1.41,3.48,3.09,4.5-7.58,4.61-8.15-2.74-10.37-6-3.44-.3,1.58,5.5-3.17,3.4-4.53-2-9.46-1.78-13.94-3.45-2.55-1-4.51.56-6.77.73-3.81.3-.51-4-3.46-4.88-4.51-1.28-8.44-4.15-13.6-3.68-5.78.52-11.27-2.78-17.18-1.94-.46.06-.62-.41-.86-.88-3.88-7.62-10.71-8.32-18.14-7.74-2.54.2-4.72.47-6.78-2.52s-6.55-3.11-9.45-5.95c-1.22-1.19-5.53.8-8.45,1.32-1.13.2-1.86.79-1.81,2,.07,1.72,1.57,1.58,2.61,1.58,2.58,0,5.16-.25,8-.42-1.12,2.33-3,1.76-4.53,2-4,.68-5.79,3.26-5.26,6.84.58,4-1.39,4-3.94,3.11a28,28,0,0,0-9.76-1.19c-2.05,0-4.79-.18-6-1.45-3.52-3.57-3.84-1-4.26,1.76-.37,2.46-1.32,4.63-4.08,3.38a24,24,0,0,1-8.19-5.51c-.7-.78-1.19-1.51-.13-2.5,3-2.77,1.21-4.92-1.09-6.88-5.85-5-16-5-22,.05-.76.65-1.54.37-2.28.61-4.38,1.39-8.45-.1-12.68-1-7.18-1.6-14.26-4.69-21.89-2.37-.52.16-1.32.8-1.47-.29-.68-5-4.13-2.48-6.46-2.25s-4.46,1.18-6.68,1.81c-.63-.45-1.86.2-2-1.1,6.19-3.68,13.37-5.8,18.18-11.61,1-1.21,2.27-2.2,1.23-4.32-3.15-6.48-12.26-10.79-18.94-8.23-2.53,1-4.69.95-6.37-.71-6.13-6.06-13.28-3.4-20.15-2.55-4.06.5-7,2.38-4,7.65-2.68-.24-4.71-1.11-6.86-.3-5.76,2.18-11.46,5.17-17.92,2.45-.13-.05-.32.05-.48.08-11.5,2-22.54,5.57-33.49,9.48-3.09,1.11-6.69,3.45-6.44,6.25.44,4.94-2.33,3.35-4.66,3.64a14.85,14.85,0,0,1-5.86-.54c-4.66-1.28-8.87,0-12.71,2.65-3.21,2.21-3.13,4.3.32,6.37,1.54.92,3.37,1.34,5,2.11,1.06.49,2.3,1.3,1.75,2.62-.69,1.65-1.93.5-2.91.08a24.38,24.38,0,0,1-2.21-1.16c-7.06-4-14.28-5.31-21.84-1.43-.74.38-1.54,1.06-2.26.4-2.64-2.42-4,0-5.87,1.25-2.5,1.62-3.8,4-5,6.71-2-2.84-1.16-5.27.33-7.64.74-1.17,1.24-2.23.31-3.65-3.05-4.67-8.63-5.58-13.4-2.78-5,2.94-8,8.16-13.65,10.49-2.87,1.18-4.05,5-3.74,8.35.22,2.42,3,2.09,4.38,3.27,2.81,2.46,5.49,5.17,6.77,8.78-1.36.88-2,0-2.66-.28-9.63-4.5-19.35-8.65-30.05-10-2.37-.3-4.34-.44-6.74,1.67,4,1.56,6.66,3.74,7.78,7.47-6.8.94-13.25-1.61-19.59-.31-4.31.88-8.26,4.67-12.71.32-.7-.69-1.88.08-2.85.23-4.53.71-8.38,3-12.31,5.09-3.12,1.69-6.33,3.26-9.56,4.74-2.24,1-4.24,0-6-1.33-.67-.51-1.65-1.47-.44-2.39,1.5-1.15,2.59-2.39.92-4a8.21,8.21,0,0,0-6.93-2.1c-2.54.33-1.44,2.69-1.86,4.31-1.06,4.19,4.32,7,2,11.16a16.42,16.42,0,0,0-11.07,1c-3.32,1.49-7.48,2.3-6.44,7.63a3,3,0,0,1-1.39,2.46c-4.21,2-9.43,1.57-12.88,5.45-.11.13-.62-.09-.94-.16-3.66-.74-6.73-2.82-9.79-4.72-1.88-1.16-.46-3.63-.89-5.44a6.51,6.51,0,0,0-2.88-3.8c-1.52-1.06-3.54-1.64-4.91-4.57,6.56,2.57,12.83,2.67,18.78,4.27,7.17,1.91,12.77-.58,18-5.2,3.11-2.77,2.55-5.28-.53-7.1-9.76-5.76-19.92-10.52-31.39-12-5.38-.69-10.68-2-16.2-3.1,1.15-1.86,5.53-.72,3.52-4.17-2.44-4.19-14.79-7.27-19.1-4.68-2,1.18-3.55,1.49-5.36.56-2.68-1.36-4.88-.58-6.75,1.33a12.4,12.4,0,0,1-4.22,2.49c-6.34,2.77-12.59,5.62-19.79,5.61-3,0-5.35,2.36-4.2,5.32.88,2.27.1,2.65-1.28,3.67a67.45,67.45,0,0,0-15,14.5c-6.58,9.19-14.29,16.7-24.53,21.85-4.9,2.47-9.41,6.26-8.54,13.17.6,4.74.65,9.55,1.07,14.32.31,3.5,2,5.24,5.88,4.93,6.32-.51,11.78-3,17.28-6.86,1.62,3.69,4,7,5.42,10.51.92,2.23,3.55,4.34,2.58,7.13-1.16,3.32.49,4.08,3.19,4.2,4.75.2,13.07-5.51,14.3-10.14,1.54-5.83,5.28-9.8,10-13.09,1.56-1.08,3.42-1.84,4.7-3.92-1.83-.82-3.34-1.42-4.78-2.16-8.14-4.17-8.5-11.23-.94-16.54a40.27,40.27,0,0,0,11.59-12c4.56-7.57,10.72-8.77,18.21-2.59-5.53,2-7.39,7.5-11.36,10.93-5.83,5.06-7.36,11.31-6.33,18.83.57,4.19,2.62,4.93,6.1,5,6.86.09,13.5-1.57,20.25-2.3,1.86-.2,4.19-.56,4.32,1.74.1,1.84-2.18,2.87-4,3.12a95.8,95.8,0,0,1-11.69,1.06c-3,0-5.55.93-6.67,3.46-1.21,2.72,1.9,3.36,3.42,4.67,1,.87,2.26,1.59,1.53,3.24-.63,1.41-1.81,1.74-3.26,1.76-2.42,0-4.54-.94-6.69-1.77-1.3-.5-2.56-2.3-3.87-.52s-1.83,3.74-.16,5.53c1,1.07,1.7,2,.93,3.47-.47.87-11.26,6.4-12.16,6-4.22-1.78-8,.22-12,.82-2.92.43-5.76,4.31-8.6,1.48-2.45-2.43-4.65-2.54-7.52-1.69-1.76.53-3.23-.35-4.32-1.64-1.64-1.94,2.31-1.6,1.38-3.45-.67-.19-1.43-.48-2.22-.64-5.43-1.1-5.76-1.89-3.24-6.85,1.18-2.31-.78-2.52-2.22-2.52-6.88,0-9.13,3.66-6.19,9.87,2.71,5.73-.27,9.65-6.46,10-4.09.23-8.67,1.3-11.17,5.41-2,3.3-1.8,8.61-7.81,8-.22,0-.53.38-.74.63-3.7,4.54-5.7,11.77-14.09,8.91-4.24,4.36-10.34,5.76-15.1,9.07,2.57,4.08,7.07,4.23,10.65,6,2.39,1.21,4,2.3,4.15,5.43.12,3.29-.29,5.71-3.43,7.51a12,12,0,0,1-8.09,1.52c-5.74-.82-11.4-2.25-17.32-1.53-6.87.82-8.41,3.11-6,9.42a11.6,11.6,0,0,1,.19,8.23c-1.6,4.7-1.77,9.16.89,13.8,2.43,4.24,6.22,3.72,9.93,4.1a10.76,10.76,0,0,1,2.39.66c13.88,5,25.59.33,28.82-14.59.75-3.46,2.51-5.4,5.9-5.59,5.1-.28,7.31-3.26,7.43-7.9.07-2.67,1.62-3.25,3.5-3,5.74.68,11.06-1.1,16.54-2.19,4.52-.9,9.06-.51,11.8,4.17,2.92,5,6.8,8.78,12.35,10.76a25.47,25.47,0,0,1,5.48,3.2c2.58,1.78,1.21,4.27,1.85,6.26s-2.56,1.19-3.88,1.74a24.49,24.49,0,0,1-4.66,1c-1.6.27-2.1,1.38-1.77,2.93.65,3,7.89,5.53,10.21,3.44,4.34-3.92,8-8.27,8.87-14.35,1.65-1.79,2.63-3.54-.28-5.07-4.54-3.74-8.89-7.74-13.68-11.12A15.9,15.9,0,0,1,175,332.7c2.3,2.75,4.1,3.77,6.09,2.42,2.61-1.77,3.59-.07,5,1.71,3.41,4.43,7.66,8.07,13.14,9.32s8.21,3.9,7.17,9c-.5,2.48.09,4.36.66,6.63,1,3.9,3.12,6.8,5.36,10,1.94,2.75,4,3.5,6.65,2.67,3.28-1,6.65-6.93,5.8-9.39-.11-.3-.21-.79-.41-.85-4.6-1.35-1.24-4.6-1-6.49s3.16-2.41,5.38-2.21c3.41.3,6.8.68,10.33,1-1,2.07-2.82,2.08-4.29,2.66-3.59,1.41-2.77,4.37-1.34,6.12a40.23,40.23,0,0,1,4.83,6.83c1.61,3.1,5.49,3.24,7.52,5.92.28.38,3.37-1.39,5.19-2.12,2.3-.92,10.62.9,10.39,2.31-.93,5.83,2.47,1.51,3.34,1.28,1.52-.4,2.73-1.89,4.25-2.45,1.93-.73,4.74-.56,4.37,1.93a30.38,30.38,0,0,1-4.66,12.51c-2.36,3.51-5.61,5.5-10.23,3.81-2.31-.85-5-1.54-7.18.2-2.39,1.89-5.07,1.67-7.53,1.12-5.63-1.24-11.44-1.46-16.95-3.46a82.92,82.92,0,0,0-11.12-2.64c-3.75-.79-6.82.63-9.48,3.21-2.34,2.28-.39,4.16.41,6.26.92,2.42-.39,2.32-2.28,1.89-7-1.61-14.32-2.25-19.49-8.44-2.72-3.25-7-3.26-11-3.81-6.78-.94-7.9-3.5-4.34-9.44.41-.7,1.15-2,1-2.13-3.78-3.15,1.81-2.09,1.78-3.37a7.82,7.82,0,0,0-7.7-2.67c-9.65,1.56-19.53.32-29.08,2.5-6.41,1.46-13.35,0-19.36,3.69a13.72,13.72,0,0,1-11,1.57c-3-.72-6.84-1.43-9,1.69A11.42,11.42,0,0,1,91,385.85c-8.4,3.53-12.69,10.08-14,18.92a5.75,5.75,0,0,1-4.28,4.94c-7.67,2.51-13,8-16.73,14.81-3.09,5.64-6.53,11.33-4.39,18.29,1.82,6,1,11.8-1.24,17.44-3.16,8.14-1.07,14.55,6.72,19.19a30.67,30.67,0,0,1,12,12.88c5,9.94,18.75,16.34,29.6,14.23,2.43-.48,5.14-1.16,7.39-.55,6.52,1.77,12.34-.05,18.39-2.08,6.4-2.15,13.16-4.76,19.42.31,4.1,3.32,8.61,3.53,13.51,3.26,4.62-.25,7.59,2.93,7.67,7.62a22.83,22.83,0,0,1-1.48,8.78c-2.35,6.09-1.05,10.07,3.71,14.56,2.95,2.78,6.15,5.2,7.85,9.4A102.57,102.57,0,0,1,182,571a13.39,13.39,0,0,1-2.49,10.76c-5.9,7.86-5.89,15.28-.52,23.52,2.18,3.34,4.34,6.7,6.7,9.91,2.08,2.81,3.13,5.66,2.38,9.26a21.16,21.16,0,0,0,3.54,17c4.72,6.89,10.3,13.31,11.25,22.31.86,8.18,5.52,11,13.73,8.91a107.5,107.5,0,0,1,20-3.09c4.13-.26,7.36-2,10.38-5.13,4.73-4.81,6.88-11.39,11.72-16a11.2,11.2,0,0,0,3.67-10.33c-.44-2.67.39-3.2,2.88-3.81,8.9-2.16,12.13-7.59,10.23-16.6-.37-1.74-.4-3.57-1.5-5.19-1.79-2.64-.79-4.78,1.78-6.21,1.72-1,3.62-1.58,5.37-2.48,5.73-2.92,12.6-5.24,14.52-11.92a47.58,47.58,0,0,0,.49-23.6c-.37-1.65-1.5-2.83-2.51-4.16-3.63-4.81-5.62-10.05-3.29-16.19,4.17-11,12.25-19.34,21.21-25.75,13.12-9.39,22.65-20.5,26.74-36.15.51-2,1.43-4.09-.07-5.63-1.81-1.88-4.21-1.11-6.54-.39a82,82,0,0,1-17.56,3.51c-4.17.34-8.65-4.22-8.59-8.78,3.73,2.23,4.17,2.66,6.42,1.94,12.36-3.92,25.76-5.31,36-14.56a7.59,7.59,0,0,1,3.89-2.12c5.08-.49,7.94-3.89,10.59-7.55,3.51-4.84,6.82-9.82,10.26-14.71,1.49-2.12,1-3.29-1.27-4.6-2.43-1.4-5.45-1.45-7.49-3.57-1.12-6.61-3.58-7.61-9.37-3.81-8,5.26-8,5.26-14.51-1.31-.14-.15-.18-.21-.17-.23a1,1,0,0,1-.21-.07c-6.34-2.68-7.6-9.94-12.54-13.89a1.66,1.66,0,0,1-.64-2.19c.65-1,1.75-.78,2.72-.6,2.91.56,4.57,2.79,5.87,5.07,5.3,9.32,13.44,11.7,23.37,9.92,1.52-.27,2.91-.62,4.21.6,2.43,2.28,5.59,2.75,8.7,3.33,7.76.86,15.53.15,23.3,0,4.41-.07,13.75,6.32,15.11,10,3,8.1,5.41,9,12.92,5,1.19,2,.88,4.16,1,6.31.32,5.95.63,12.05,4.08,17.12a41,41,0,0,1,5.32,11.66c1.61,5.39,3.07,10.89,6.28,15.65,2.72,4,5.55,3.9,8.37.08,1.25-1.68,1.62-4.52,4.92-4.66-.47,3.73-1,7.29-.24,10.88.65,2.94,3.05,4.65,5.31,4.39,2.53-.28,3.51-3,3.35-5.8a10.37,10.37,0,0,0-2.76-6.81c-3.71-3.61-3.94-7.85-3.33-12.41a37.86,37.86,0,0,0,.11-8.84c-.23-2.41-1.2-5.38,1.31-7.47,5.33-4.46,10.88-8.68,15.95-13.41,6-5.64,12.08-10.43,20.84-11.8,4.31-.68,7.53-3,9.21,2.86,0,.15.19.26.28.4,3.9,6.24,8.91,12,7.25,20.33-.38,1.88,1,2.2,2.84,2.16,4.22-.07,5.66-3.47,8.25-6.75,1.53,5.68,3.37,10.63,4.12,15.75s2.64,10.88.48,15.64c-2,4.41-.51,6.21,2.38,8.66,3.88,3.29,8.1,6.43,7.12,12.7-.2,1.3,1.73,2.93-.68,4a3.73,3.73,0,0,1-4.82-1.48c-3.45-4.7-8.73-6.47-13.72-8.66-1.43-.62-3.59-1.26-4.27.86a4.5,4.5,0,0,0,1.27,4.63c4.72,5.21,10,9.54,13.71,16.23a70.53,70.53,0,0,0,19.83,22.71c7.53,5.43,10,4.62,11.6-4.35.17-1,.74-1.88.83-2.84.25-2.84,1.27-6.35-4-5a4,4,0,0,1-4.07-1.37c-3.74-4.77-6.63-10.18-10.83-14.62-.45-.48-1.16-1.47-.48-2.22a1.81,1.81,0,0,1,2.69.12c1.9,1.87,4.28,2.48,6.76,2.89,2.72.45,4.22-1.84,3.42-3.4-3.19-6.21-4.5-13.59-10.86-18-9.47-6.5-11.64-11.87-9.27-22.51.56-2.5,1.69-4.62,4.7-2.26,5.75,4.51,11.49,9,14.29,16.19.62,1.6,1.09,3.92,3.08,4.1s3.51-1.63,4.57-3.39a21.54,21.54,0,0,0,1.37-2.66c1.3-3.15,3-5,7-4.68,4.65.31,7-2.9,6.93-7.71a22.91,22.91,0,0,0-7.15-16.43c-3.17-3.17-6-6.66-9-10-1.9-2.09-2-4.51,0-6.15,2.63-2.09,4.93-4.87,8.54-5.5,2.33,1.15,5,.41,7.44,1.62,2,1,3.26-.33,3.22-2.6a4.15,4.15,0,0,1,2.49-1.19c6.07-1.29,12.49-1.92,17.74-5.45,7.93-5.34,16.06-10.67,19.47-20.41,2.55-.22,3.47-1.93,3.81-4.17a48.35,48.35,0,0,0,2.74-5.3c1.1-2.89,2.16-7,.18-8.68-3.35-2.87-4-4.1.12-6.37,1.13-.63,1.55-2.44,2.46-3.58s.38-2.23-.61-2.07c-5.62.93-6.71-5.71-11.4-6.61-1.78-.35-2.52-2.73-.31-4.73,3.7-3.34,7.12-7,10.94-10.77-4.46-2.75-8.74-1.69-12.89-1.14-3.63.48-5.34-2.21-6.49-4.43s2-2.57,3.37-3.43c2.67-1.65,6.09-2.47,8.15-4.63,2.92-3.06,5.59-2.39,8.77-1.5-.47,2.59-4.51,3.85-2.93,5.9s4.66.46,7-.23a6.77,6.77,0,0,0,1.43-.43c2.08-1.14,3.83.48,5.38,1.14,1,.45.06,2.71-.56,4.07-.94,2.06-1.89,4.42,1.15,5.26,4,1.09,3.69,3.9,2.67,6.43-.93,2.29-.79,4.53-1.08,6.79-.46,3.64,1.31,3.7,4.15,2.69,6.2-2.23,9.66-6.25,10.3-13,.38-4,1.09-7.53-3.82-9.2-2.74-.93-3.06-2.3-.17-3.69,2.56-1.23,3.71-3.64,5.11-5.92,2.74-4.49,5.09-9.26,9.63-12.45,2.41-1.69,5.18-.61,5.41.86,1.28,8.2,5.7,2.62,7.31,1.26a78.48,78.48,0,0,0,21-27.85c3.37-7.44,2.4-15.25,1.09-23-.32-1.93.09-4.45-2.17-5.12-2-.58-3.88.15-5.81,1.68-2.59,2.06-6.07,3.51-7.9-1.25-.87-2.27-3.07-2-4.83-3,8.52-4.72,15-11.59,21.76-18.21,5.19-5.1,11.15-8.27,18.77-6.49,4.8,1.13,9.5,1.94,14.47.24,2.44-.83,5.06.11,7.43,1.88,3.36,2.51,10.23.7,11.34-3.14,1.48-5.12,5.43-8,9.16-10.75,2.85-2.13,6.69-4.24,9.95.24,1.1,1.51,2.33.24,3.3-.47,3-2.13,5.86-4.36,9.14-6.82-.25,3.51-.12,6.74-2.41,8.53-7.34,5.72-12,14.23-20.33,19-5.4,3.08-8.15,8.06-6.94,14.63,1.11,6,2,12.11,3.27,18.12.32,1.52-.77,3.94,1,4.45s3-1.72,4.24-3a18.58,18.58,0,0,0,1.77-2.4c3.9-5.35,7.57-10.75,12.46-15.46,3.91-3.77,7.81-9,3.39-15.35-1.16-1.67-.3-3.48.55-5.18,3.48-7,15.23-11.74,23.18-9.08,2.44.82,4.06,1,5.2-1.63.59-1.39,1.85-2.21,3-3.17,5.38-4.37,11-7.94,18.31-7.88,2.23,0,4.66-.83,5.41-3.59s-.76-4.2-2.85-5.64c-1.29-.89-2.07-2.51-2.72-3.34,2.18,0,4-2.22,6-4,1.07-.93,1.88-1.74,3.43-1.19,4.06,1.43,8.4,2.31,12.16,4.29a9.93,9.93,0,0,0,10.14,0c3.65-2,2.37-6.86,4.81-9.79C867.43,206.15,865.94,205.16,865.06,204.92Z" transform="translate(-48.94 -80.22)"/><path class="cls-2" d="M1333.84,512.57c-1.72-.26-3.21-.56-4.36-2-3.68-4.48-8.7-6.36-14.22-7.27-3.6-.59-8.39,0-10.55-2.08-5.44-5.26-12.36-5.24-18.7-7.32-4-1.33-7.93-2-11.14,2.17a10.68,10.68,0,0,1,2.16-4.37c2.31-2.46,2.11-5.1,1-7.84-3.33-7.81-8.55-13.62-17.52-14.23-9.57-.65-17.15-5.88-23.42-11.82-5.19-4.91-10.27-5.91-16.65-6.51-6.14-.59-13.09,1-18-5.13-1.38-1.7-4.26-1.26-5.86,1.36-1.11,1.81-1.06,4.34-3.28,5.79-.18-.81-.24-1.31-.38-1.78-.46-1.47,2.05-2.89-.09-4.46s-3.72-.38-5.56.34c-4.34,1.69-7.8,4.25-9.34,8.88-.75,2.24-1.51,3.09-3.62.75-2.84-3.13-6.4-4.54-10.6-2.17a4.2,4.2,0,0,1-2.84.48c-5.47-1.48-10-12.41-7.37-17.63,1.87-3.72.44-6-3.81-6-2.8,0-5.6.5-8.4.5-4.31,0-5.83-2.36-3.59-5.92,3-4.82,5.37-9.76,4.73-15.71-1.43.26-2.91.88-4.61.72-7.6-.73-8.11-.35-11.35,7-.52,1.17-.68,2.46-2.17,3.14-7.77,3.57-19-3.73-18.37-12.23.36-4.93,1.6-9.8,2-14.73a13.16,13.16,0,0,1,17.1-11.62c2.14.64,4.35,1.48,5.79-.88,2.82-4.62,7.06-3.87,11-2.67,2.48.76,4.48,1.21,6.39-.72,2.58,6.47,3.63,13.15,8.07,18.34,1,1.17,1.58,3.07,3.88,2.24s2.91-2.6,2.73-4.7a48.15,48.15,0,0,0-4-15.78c-1.31-2.9-.9-4.75,1.35-6.86a72.64,72.64,0,0,1,9.13-6.9c5.55-3.75,6.47-6.22,3.55-11.81-1.33-2.53-.17-2.51,1.58-3.24,1.59-.68,4-.07,4.47-3,1.39-9.42,7.94-13.33,16.67-14.8-1.48-4-3.94-8.55,1.23-11.43,3.83-2.15,8.65-1.39,12.86-3a35.89,35.89,0,0,1-2.88,3.61c-.84,1.08-2.65,2.06-1.3,3.77,1.21,1.54,2.92,1.31,4.54.57,1-.48,2.39-.78,3-1.6,3.74-4.64,9.28-6.86,13.75-10.51,2.27-1.45,4.16-3.61,2.84-6.13s-3.92-.58-5.88-.13c-6.68,1.54-9.49-.73-9.07-7.49.28-4.41-2-6.56-6.69-6.3-3.19.18-5.46,2.28-8,3.82-1.28,1-2.88,1.46-3.92,2.76.69-1.13,1.89-1.74,2.79-2.66,1.62-1.07,3.4-1.94,4.55-3.62l.25-.2c11.71-1.55,24,.39,35.7-6.29-1.94,3.05-4,4.75-5.48,6.87-2.81,4-4.77,8.24-2.93,13.29,5.7-2.37,11.06-2.79,16.37,1.42a4.91,4.91,0,0,0,6.34-.58c1.94-1.9,1.75-3.76,0-5.64-.59-.64-1-1.33-.62-2.21,2.27-4.73-1-5.66-4.42-6.44-2.71-.63-6.12-5.48-5.76-8.09.56-4,.89-7.61-1.9-11.57-4.09-5.82-10.68-6.08-16-9.12-1.06-3.12-2-6.27-3.2-9.35-2-5.48-4.74-10.59-9.16-14.59-2-1.82-4.26-1.62-6.48-.53-3.07,1.51.6,1.92.63,3.06,0,2.09-1.49,2.24-2.57,2.31a26.37,26.37,0,0,1-5.93-.46c-2.66-.42-4.62-1.22-4.09-4.8s-2-5.81-4.74-8.06c-5.47-4.53-12-4.64-18.41-5.28-4.43-.44-6,1.68-5.55,6.16.26,2.87.6,5.7-1.45,8.65s-2.14,6.43,2.15,8.75c4.92,2.66,6.56,9.09,2.38,12.12-5.64,4.09-5.06,9-4.71,14.39a32,32,0,0,1-.14,5,14.31,14.31,0,0,1-.82,2.69c-1-.5-2.22-.77-2.92-1.53-3.15-3.43-6.07-6.93-5.22-12.22.54-3.3-1-6.21-4.41-6.64a34.38,34.38,0,0,1-12.5-4.56c-2.92-1.61-6-3.16-9.41-2.76-3,.35-4.51-.91-5.7-3.55-1.39-3.11-2.59-6.81-6.66-7.37-3.6-.5-3.45-2.38-3.06-5.22.72-5.24,6-7.05,7.91-11,2.54-5.22,5.62-8.85,11.41-10.64,3-.93,6-3.68,4.4-7.92-.34-.88-1.41-1.57-.61-2.56a2.44,2.44,0,0,1,2.77-.49c1.1.37,2.32.84,2.09,2.35a25.66,25.66,0,0,1-.88,3.86c-1.22,3.94,1.46,7,3.49,9.14,1.75,1.83,4.83.1,7.14-2.26,2.08-2.14,5.49-2.67,8.8,1.39-2.11-5.74-4.67-8.44-9.83-9.24-2.61-.41-5-3.27-7.09-5.41-1.19-1.23.46-1.79,1.52-2.19l16.75-6.33c-1.07-1.42-2.47-2.5-2.74-3.82-.75-3.61-4.09-6.78-1.57-11,2.2-3.71,6.41-3.14,8.48-2.34,7.73,3,15,7.14,19.17,14.93,1.29,2.42.61,4.09-1.62,5.91-3.2,2.6-7.41,2.07-10.81,4.45-2.84,2-4.79,3.55-4,7,1.08,4.66,3.8,3.34,7.07,2.08,3.86-1.48,7.92,0,11.44,1.64,1.64.75,1.86,3.52,1.14,5.74-.36,1.11.75,1.75,1.49,2.33,3.83,3,9.12,3.17,13.58.86,1.83-1,1.82-1.83,1.4-3.5-.2-.79-2.53-.36-1-1.74.8-.71,1.53-.36,2.47.43,1.36,1.16,3.07.86,4.55-.33,1.7-1.37-.08-2.37-.33-3.49a45.31,45.31,0,0,0-1.47-4.46c5.62.08,6.66-5.06,9.23-8.43,4.26-5.57,3.93-6.8-2.85-9.45-4.75-1.84-8.33-5.24-12.29-8.14a4.05,4.05,0,0,1-1.57-5.1c1.3-3.8-.33-6.7-4.08-8.44-4.81-2.24-9.52-4.66-14.47-6.64-4.15-1.67-9.37-2.83-10.44-8.06-.76-3.68-3.23-4.94-5.8-4.77-7.83.53-16.77-3-22.79,5.38-.13.18-.62.09-1,.12-.75-4.45-2.25-6.6-4.76-6.8-4.27-.34-11.68,7.44-10.19,11.44,1.88,5.07,3.66,10.58,7.89,14.23,2.44,2.11,5.67,4.34,9.48,2.21,2.54-1.41,4.65-.16,7.61,1.34-4.78.25-8.15,1.77-7.8,6.38.3,3.89-2.34,5.91-4.55,9.66-1.87-6.92-6.52-10.55-11.54-13.69-4.45-2.77-5.69-7.91-9.08-11.44-4.35-4.53-8-4.17-11.35,1.16-.64,1-.56,2.48-2.23,3-3.09.91-1.52,2.46.06,3.06,2.87,1.09,5.24,3.63,9,3-2.32.59-2.92,1.43-2.43,3.7,1,4.52-1.7,6.64-6.23,5.54-2.73-.66-6.09-1.65-8.18.18-3.08,2.71-6.13,1.32-9.28,1.44-4.2.17-6.76-3.15-10.31-4.39-2.85-1-4,.17-5.83,2.05-2.07,2.17-1.07,3.15.36,4.84,1.16,1.37,2,3.18,1.64,6.36-4.67-6.69-11.53-7.43-17.56-9.83-2-2.13-4,.25-6,0-2.49-.78-2.18-4.51-5-4.87-6.4-.8-12.43-3-18.28-5.41-5-2.08-9.56-3.87-14.53-.46a1.29,1.29,0,0,1-2-.22c-3.8-4-7.84-4.39-12.34-1.33-2.21,1.51-4.14,3.56-7.06,3.71-.77-2.54,3.17-2.1,2.33-4.22-5.66-1.05-10.48.5-15.05,3.64a7.51,7.51,0,0,1-6.67.76,180.38,180.38,0,0,0-29-6.76c-9.37-1.28-19.29-1.16-27.92-4.44-10.38-3.94-16.5,3-23.36,6.81-4.07,2.25-7.88,5.49-12.47,7.08-3.64,1.26-4.75,4.18-1.56,5.41,6.45,2.49,9.07,12,18.17,9.45a6.93,6.93,0,0,1-7.42,1.21c-3.87-1.44-7.77-1.51-11.13,1.52-1.17,1.05-3.58,3.16-2.82,3.42,3.53,1.18,1.29,6.22,5.53,6.94,4.95.84,9.53-.13,14.25-.94,1.12-.19,2.88-1.18,3.41.65a4.48,4.48,0,0,1-.92,4.67,4.56,4.56,0,0,1-3.16,1.27c-3.53.15-6.24,2.09-8.89,4-4.39,3.23-4.24,7.9-3.59,12.62.61,4.42,4.3,3.16,7,3.57.85.13,1.74.11,2.21.86,3.23,5.08,8.67,4.77,13.62,5.6,1.85.32,3.06,1.14,1.68,2.92-3.06,4-4.81,9.25-10.54,10.64-2.46.6-4.35,2.31-6.34,3.79a9.83,9.83,0,0,0-4.86,4c2.21.13,4.1-.82,6-1.83,7.2-1.21,13.3-5.14,19.11-9,6-3.91,11.18-9.15,13.15-16.63.78-3,3.29-4.47,5.65-6.47.46,2.81-1.91,3.79-2.45,5.58s-2.16,4.25,1,5.42c4.46,1.64,12.65-2.53,13.45-7.25.56-3.36,1.91-3.33,4.29-2.24,3.31,1.51,6.49,3.93,9.93,4.38,9,1.18,16.28,5.29,22.52,11.64,1.62,1.65,3.69,2.53,5.59.65,1.61-1.58,1.8,0,2.41.72,4.06,4.85,6.11,11.48,12.62,14.17.77.31-.24.87-.11,1.07,2.38,4,2.71,9,7,11.92,5.44,3.62,9.58,9.18,16.25,11,.2.05.27.57.39.88l-1.9-.08c-2.29-.92-4.57-1.86-6.87-2.75-1.46-.56-2.48,0-3.39,1.25-1.13,1.51-.4,2.46.79,3.3,1.62,1.15,3.41,2.09,4.91,3.37,1.3,1.13,3.42,1.68,3.46,3.89.1,5.6.91,11-.17,16.82-1.36,7.33-1.79,15.24,2.11,22.18,3.21,5.71,7.82,10.61,9.44,17.25a4.72,4.72,0,0,0,2.7,2.77c11.18,3.9,11.62,15.61,16.94,23.68,1.87,2.84,2.67,6.66,5.42,9.14a21.08,21.08,0,0,1,5.45,7.65c1.12,2.73,3.18,4.69,5.53,3.05,1.86-1.29.8-4.18-.76-6.2-5.36-6.94-9.21-14.79-13.23-22.53-.43-.83-1.44-1.67-.24-2.55s1.67.23,2.33,1c5.61,6.18,8.84,14,14,20.58,3.19,4.06,5.41,8.73,9.82,12,2.64,1.93,5.73,4.32,3,8.66a2.8,2.8,0,0,0,1.68,4.39c4.28,1.14,7.5,4.2,11.44,5.91,6.11,2.66,11.65,6.62,19,6.26,3.09-.15,7.11-1.07,9.56,2.67,3.14,4.8,7.42,7.88,13.39,8.2,1.93.1,4,1,4.55,2.67,2.39,7.24,8.15,10.48,14.47,13.47,3.55,1.68,6.56,2.19,10.23.34,5.37-2.71,9.47-.48,10.24,5.34.91,6.94,0,13.23-6.57,17.55a18.58,18.58,0,0,0-5.51,5.69c-2.79,4.59-6.4,9.38-1.92,14.89.91,1.14.17,1.4-.33,1.82-5.24,4.32-4.39,8.21.71,11.92a6,6,0,0,1,1.46,2c5.52,9.89,11.21,19.69,16.42,29.75,2.08,4,5.23,6.28,8.94,8.12,2.81,1.4,5.83,2.39,8.66,3.75,4.47,2.15,6.72,5.56,6.23,10.77-.62,6.61-2.08,13.09-2.33,19.78-.55,15.08-6.13,29.66-4.58,45a6.66,6.66,0,0,1-.59,2.39c-2.13,6.85-6,13.4-5,20.83.65,5.09-4.16,10.48.9,15.27.33.31.21,1.08.3,1.64.42-.47,1.08-.89,1.22-1.43.6-2.29.52-4.81,2.9-7.49,0,3.26-.28,5.7.07,8,.41,2.78,0,4.73-2.92,5.7a37.17,37.17,0,0,0-9.62,4.9c-1.79,1.27-4.11,1.9-5,4.86,4.6-.39,7.54,2.52,11.09,4.29-1,2-4.86,1.92-4.16,5,1.12,4.85-.24,11.07,6.66,13,.89.26,2,.74,1.93,2-.11,1.48-1.49.87-2.3,1.2-4.38,1.75-4.52,3.44-1.15,7,5.7,6.1,13.18,9,20.62,12.06,5.87,2.4,12.5-.42,15.35-6.53-2.94-1.76-6.64-.85-9.56-3.51-6.79-6.2-6.11-16.86-.27-22.05a16.45,16.45,0,0,0,3.77-4.6c1.4-2.72,3.18-5.65-1.76-7.29-2.36-.78-4.32-3.08-1.61-5.56,2.51-2.29,3.64-5.5,5.85-7.82,3.8-4,6.21-7.7,1.31-12.43-.13-.13.09-.61.18-1.11,5.2.11,9.5-.82,9.11-7.67-.1-1.78,1.79-2.43,3.68-2.57a29,29,0,0,0,11-2.86c7.91-4,10.1-11.43,5.37-17.92,12.72-.32,13.28-.58,20.08-8,4.09-4.47,6-10.47,9.87-14.85a17.75,17.75,0,0,0,4.8-14.49c-.17-1.73,0-3.25,1.6-4.4,5.27-3.83,10.89-7.24,17.27-8.41,9.68-1.79,18.22-10.44,19.09-20.46.36-4.12.72-8.26.82-12.39.08-3.23.62-6.05,2.8-8.7,3.77-4.56,7.15-9.45,10.66-14.22C1344.08,523.33,1340.31,513.56,1333.84,512.57Z" transform="translate(-48.94 -80.22)"/><path class="cls-2" d="M1367,93.75c-5-2.17-10.91-3.56-15.27-.24-3.46,2.63-6.74.94-9.88,2.12a1.58,1.58,0,0,1-2.16-.63c-2.49-5.57-7.47-3.49-11.64-3.76-2.33-.15-4.67,0-7,0,5.85-3.35,12.22-3.42,19-3.82-11-9.07-69.07-9.6-84.45-1.18,1.89,4,7.81,1.8,9.72,6.21-6.62-2.17-13.63-.89-19.81-3.91-1.27-.62-1.65.56-1.65,1.67,0,1.33,0,2.66,0,4-1.85-1.59-3.2-3.69-5.13-3.37-5,.83-10-1.54-15,.39-1.79.7-3.84.36-5.35,2.17a18.4,18.4,0,0,1-10.78,6.41c-2.12.42-3.73,2.08-5.21,3.68-.94,1-1.21,2.25.14,2.89,2,1,3.73,3.06,2.65,4.33-1.49,1.74-3.45,4-6.64,3.43-4.82-.87-9.06,1.47-13.18,3.3-3.57,1.58-3.56,5.42-.42,7.53s6.5,4.44,10.91,2.75c1.56-.59,3.36.2,5.07,1.81-3.15,1.09-5.71,2.36-8.41,2.83-3.33.58-2.43,3.25-2.69,5-.32,2.09,1.84,1.24,2.94,1.33a3.28,3.28,0,0,1,2.38,1.41c1.68,1.89,3.78,2,5.81.54a5,5,0,0,1,3.74-1c10.13,1.57,20.47,2.33,26.83,12.46,2.72,4.34,4,9,5.25,13.75,1,4.08,2.25,6.87,7.2,5.06,2.74-1,3.59,1.33,3.13,2.89-.52,1.78-2.84,1.78-4.69,1.76-2.6,0-5,.83-4.57,3.82.35,2.59,2.27,3.49,5.2,3.09,2.2-.3,5.82-1.15,6.69,1,1.31,3.25-2.8,4.36-4.6,6.31-.89,1-2.72,1-4,1.79-.88.54-2.56-.13-2.53,2.08.06,3.58-.64,7.36,1.29,10.48,3.94,6.39,8.58,12.31,12.15,19s10.33,9.87,16.56,13.73c6.07,3.76,8.42,3.26,10.15-3.84,1.12-4.63,2.49-9.18,3.71-13.78.59-2.21,3.33-3.17,3-6-.24-2.35-.8-5.25,3.39-5.48,2.14-.11.36-2.82,1.42-4.15,2.33,2.87,5,2.41,8,1.25,4.53-1.73,8.16-4.28,10.52-8.58,1-1.92,2.4-4.25,4.5-4.4,7.26-.53,13.24-4.73,20.07-6.41,3.72-.92,4.4-2.59,1.54-5.92-3-3.53-8.11-4.94-10.23-10,5.43,1,8.66,5.53,13.56,6.44,1.32.25,2.88,1.87,4,.09,1-1.54.08-3-.68-4.63-1.5-3.13-5.53-2.62-7.35-5.41.49,0,.88-.12,1.11,0,2.4,1.48,4.06.22,5.56-1.49a2.59,2.59,0,0,0,.35-3.25c-1.41-1.84-3.16.35-4.42,0-2.44-.63-6.4,2.72-7.49-2.59,3.41-.49,8,.88,9.61-1.42,3.29-4.67,8.67-3.57,12.31-6.29-.88-2.22-4-1.09-5.33-3.3,3.23-2.68,3.65-5.3,0-8.29-2-1.61-2.85-3.66.19-6,6.5-5,5.78-8.41-2-11.55-1-.4-2.05-.63-3.36-1,5.14-3.91,6.8-10.1,12.36-13.89,4.51-3.07,8.07-7.86,13.51-10.14C1367.93,96.33,1369.56,94.85,1367,93.75Z" transform="translate(-48.94 -80.22)"/><path class="cls-2" d="M758.88,629.82c-3.43-3.6-8.61-5.8-9.4-11.59a2.18,2.18,0,0,0-1.38-1.33c-3.7-1.07-5.5-4.16-7.53-7s-4.15-5.14-7.61-6c-3.07-.76-4.1-3-4.23-5.94-.17-4-.82-8.23-3.41-11.23-3.16-3.66-7.28-6.36-7.76-11.89-.1-1.16-1.68-3.62-3.82-3.16-1.62.34-2.44,2.15-2.85,3.8-.72,2.89-1.15,5.87-2,8.7-1.22,3.87-.5,8.21-3.62,11.69-2.17,2.42-3.74,2.77-6.06.67s-5.36-3.28-8.19-4.66c-4.43-2.17-5.16-4.22-2.94-8.7.71-1.45,1.15-3.07,2.56-4.16a1.49,1.49,0,0,0-.05-2.52c-.75-.62-.81-2.15-2.64-1.34-3.62,1.6-7.25.6-10.92-.47-6.31-1.83-17.23,3.17-19,9.43-1,3.61-2.24,2-3.94,1.6s-2.78-1.69-4-2.84a7.15,7.15,0,0,0-10.26,1c-2.31,3.35-2.57,8.93-8.81,8.24-.59-.07-1.65,1.23-2,2.09-1.72,4.69-4,8.26-10,7.5-1.22-.16-2.73,1.11-4,1.93a52,52,0,0,1-10.52,5.47C593.72,613.34,590.42,620,593,631.44c.26,1.13,1,2.36-.21,3.2-2.17,1.52-1.23,2.67-.11,4.39a86.73,86.73,0,0,1,4.65,8.8c2.88,5.8,4.8,11.71,1.27,18-.92,1.62-.36,2.7.8,3.94,3.68,3.93,11.71,5.23,16.31,2.26,5-3.21,10.43-4.13,16.16-3.8,2.05.11,3.93.17,5.66-1.19,4.92-3.86,10.74-5.61,16.65-7.28,13.26-3.75,22.26-1.11,28.85,8.73,4.11,6.15,6.22,6.19,11.07.24a3.85,3.85,0,0,1,1.47-1.09c.14-.06.9.87.87.92-2,2.31,1.4,7.13-3.74,7.92-1,.16-2.07.56-1.79,1.85s1.5,1.15,2.45,1.11c1.45-.07,3.74.2,4.2-.56,1.79-3,3.13-.8,4.15.24a23.34,23.34,0,0,1,3,4.52c4.53,7.55,11.5,10.26,19.85,7.34a3.73,3.73,0,0,1,4.05.88c3.11,2.72,5.65,1.57,8.32-.65a15.42,15.42,0,0,1,4.19-2.59c4-1.56,6.37-4.42,7.79-8.43,1.83-5.14,2.31-11.21,6.12-15.11,6.44-6.62,8-14.22,7.19-23C763.09,637.54,762.28,633.38,758.88,629.82Z" transform="translate(-48.94 -80.22)"/><path class="cls-2" d="M1116.71,115.63c2.66.38,4.14,4.33,1.86,6.1s-.36,2.49.31,3.15c2.23,2.19,4.79,1.43,6.71-.32,3.34-3,6.8-2.31,10.58-1.35,2.23.56,4.07,2.56,6.53,2,2-.48,3.89-1.07,5.71.19a1.09,1.09,0,0,1-.12,1.74c-1.92,1-4,.91-6.15.75a4.58,4.58,0,0,1-2-.33c-3.34-2-6-1.63-9,1.17-2.44,2.29-2.85,5.22.3,6.72,2.18,1,4.7,1.35,7,2.22,5.65,2.17,11.54-1.06,17.2.86a16.72,16.72,0,0,0,6.81,1c.85-.07,1.72-.07,2.19-.9.62-1.13-.53-1.74-.8-2.6-.41-1.3-3.47-.79-2.09-3.06,2.27-3.73.09-4.7-3.29-5,8.34-.14,12.43-2.56,13.81-8.18,1.5,1.48,1.82,1.58,3.91,1.21-4.52-4.31-4.14-6.31,1.46-8.5,2.75-1.07,5.77-1.34,8.3-3.14,7.25-5.18,14.66-10.15,21.88-15.36,4-2.92,9-4,13.74-7-5.94-3.07-12-2.31-17.56-3.72a70.17,70.17,0,0,0-31.45-.71A153.24,153.24,0,0,0,1153.39,88c-6.39,2.19-13.69,3.26-20.62,4.64-1.5.3-3.7.43-3.94,2.46s1.86,2.69,3.35,3.74c5.62,3.94,12.53,3.52,18.62,5.79,4.74,2.75,8.43-.66,12.45-1.83-4.54,2-9.12,4.2-14.47,2.82a30.34,30.34,0,0,1-4.89-.72c-3.58-1.08-4.42.6-4.08,3.7a5.78,5.78,0,0,0,1.24,3.31,17.22,17.22,0,0,1-2.28-3.29c-2.37-4.4-7.81-4-11-6.92-6-5.47-11.16-4.17-15.78,2S1109.2,114.54,1116.71,115.63Zm29.15.6a38,38,0,0,1-3.39-2.86C1143.52,114.3,1144.75,115.16,1145.86,116.23Z" transform="translate(-48.94 -80.22)"/><path class="cls-2" d="M1031.86,169.8c.52-.65,1-1.35,1.53-2.08,2.45,2.28-1.61,5.08,1.69,7.33,2.63,1.79,8.45,1.15,6.94,7.13,4.84.38,6.54,4.92,9.8,7.39,2,2.49,4.84,1.26,7.27,1.83,3.78.57,7.24,0,10.29-2.52,2.11-1.78,4-3,7-.71,2.6,2,6.72.76,9.7,3,1.23.93,2.51-.45,3.4-1.37a8,8,0,0,0-2-12.51c-3-1.69-5.75-3.32-5-7.6s-.52-8.59-.92-12.88c-.14-1.47-.26-2.06-2.34-1.77-7.42,1-10.62,4.41-10,12.08.1,1.32-.17,2.55-.73,3-1.19.85-2.18-.64-2.67-1.38a10.87,10.87,0,0,0-9.67-5.22c-1.19,0-2.36-1-3.54-1.59-6.77-3.08-12.48-8.7-20.65-8.39a10.29,10.29,0,0,1-5.59-1.31c-4.31-2.37-12.06,2.36-12.79,7.27-.39,2.7,0,5.51-1.54,8.07a2.83,2.83,0,0,0,.42,3.64A13.27,13.27,0,0,0,1031.86,169.8Z" transform="translate(-48.94 -80.22)"/><path class="cls-2" d="M704.83,535.31c-6.46-2.36-12.91-5.52-19.08.64-1.9,1.9-2.81.63-4.15-1-4.17-5.06-9.33-8.5-16.23-8.33-4.58.12-5.66,1.59-3.36,5.33a30.86,30.86,0,0,0,9.59,9.91c4.21,2.71,8.42,5.3,13.69,3,1.23-.52,1.77.13,2.5.85,3,2.9,6.05,5.48,4.43,10.6-.69,2.19.1,6.73,3.42,5.38,6.44-2.61,10.17,4.29,15.85,3.34.45-.08,1.56,1.78,2.81,1.23,1.5-.66.48-2,.38-3-.35-3.4.42-3.82,4.1-3.32,5.24.7,7.4,4.53,10.5,7.5a10.45,10.45,0,0,0,15-.61c-2.3-2.24-5.33-3.26-8-4.84-5-2.93-6.84-8-4.3-11.5,3.34,1.54,6.55,2.2,9.61-1.79-3.9,0-7.41,1.29-10.78-.09a20.45,20.45,0,0,1-7.77-3.19C717.1,541.76,711.42,537.73,704.83,535.31Z" transform="translate(-48.94 -80.22)"/><path class="cls-2" d="M569.62,521c-1.92,1.16-2.38,3-1,4.62,7.11,8.45,12.81,19.33,25.49,16,2.69,1,2.93-.4,3.72-.83,5.91-3.17,6.82-9.87,10.39-14.69,2-2.73,2.57-6,1.84-9.76C609.38,513,608.7,509,612,506.1c1.12-1,1-2.45-.12-3-3.34-1.51-4.71-5.47-8.36-6.44-.19,0-.59.72-.9,1.11-7.84,10.14-18.84,15.92-29.87,21.65C571.68,520,570.6,520.44,569.62,521Z" transform="translate(-48.94 -80.22)"/><path class="cls-2" d="M333.12,578.55c-3.86-.86-5.58,1.74-7.3,4.59a20.54,20.54,0,0,1-12.9,9.44c-3.43.87-4.75,2.71-5.12,6.23-.44,4.12,1.71,8.79-.6,12.22-4.05,6-2.24,11.38-.24,17.28,1.76,5.19,6,5.14,10,5.63s5.27-2.28,6.52-5.52c4.76-12.33,7.1-25.5,13.15-37.38.65-1.26.55-2.91.71-3.92C337.32,582,336,579.17,333.12,578.55Z" transform="translate(-48.94 -80.22)"/><path class="cls-2" d="M338.88,174.68c6.08,2.54,10.83,8.27,17.4,7.9,2.66-.6,5.18,1,6.26-1.3.8-1.73-.74-3.53-1.76-4.95-5.89-8.23-5.93-8.19,1.88-14.47.64-.52,1.11-1.32,1.81-1.69,4.92-2.55,6.89-8.18,12-10.8,8.53-4.38,17.67-6.45,26.81-8.69,3.47-.85,8-1.92,7-5.86-.84-3.29-5.57-2.55-8.85-1.73-9.65,2.42-19.32,4.79-28.91,7.43-5.41,1.49-11,2.9-15.19,7a114.89,114.89,0,0,0-18.62,23.7C338,172.44,337.24,174,338.88,174.68Z" transform="translate(-48.94 -80.22)"/><path class="cls-2" d="M95.06,278.08c-.57,1.32,1.11,1.13,2,1.44,3.58,1.32,6.08-2,9.76-2.12-1.56,6.33-3.9,11.72-9.65,15.14-1.83,1.09-2.12,3.16.79,3.55,5.41.73,2.78,3,1.09,5.08-.91,1.12-2.88,2.09-2.15,3.55.82,1.64,2.91,1.81,4.81,1.69a12,12,0,0,0,5.2-1.42,18.76,18.76,0,0,1,9.38-2.64c2.95,0,5.84-.74,6.93-4.41.75-2.5,3-4.91,1.81-7.48a19.78,19.78,0,0,0-5.57-7.37c-4.77-3.48-6.42-8.49-8.07-13.6a5.28,5.28,0,0,1,.69-5.14c2.16-2.86,1.49-4.54-2.44-4.21-1,.08-3.12.06-2.1-1.51,2.61-4-.3-5.07-3-5.85-3.26-.95-6.36-.43-7.69,3.37-.77,2.18-1.22,4.47-2,6.65C93.09,267.92,97.34,272.91,95.06,278.08Z" transform="translate(-48.94 -80.22)"/><path class="cls-2" d="M691.82,353.47c-4.57,3.71-8.83,7.92-14.81,9.63-5,1.42-9.34,4.21-13.73,6.84-6.63,4-8.5,8.92-6.29,14.8,1.26,3.37,3,2.83,4.49.56,2.31-3.45,3.76-7.86,9.42-5.94.45.15,1.34-.34,1.73-.79,2.15-2.5,4.34-4.62,6.92-2.48,3,1,4.46-.55,4.89-1.85,1.11-3.3,3.77-3.3,6.26-3.51,7-.61,9.94-3,11.23-9.91.7-3.75,1.32-7.49,3.06-10.95,2-4,1.27-7.35-2.3-10.08-1.39-1.06-2.41-3.37-4.45-2.54s-2,3.47-1.9,5.24A12.18,12.18,0,0,1,691.82,353.47Z" transform="translate(-48.94 -80.22)"/><path class="cls-2" d="M180.69,119.44c.93-.2,1.8-.1,2.19.58.75,1.32-.67,1.58-1.38,2.11-1.07.8-3.32,0-3.32,2.2,0,4.54,2.25,7.52,6.5,9.19s4.44-2.37,6.19-4.13a10,10,0,0,0,1.86-3.5c1.58-4.19,3.74-4,7.5-2.16,2.44,1.17,3.25,4.74,6.18,4.17a8.77,8.77,0,0,0,6.63-2.73c.81-.86,1.93-2.71.36-3.42-2.59-1.18-4.7-4-8.15-2.85-.76.26-1.58,1.38-2.41-.16-4.31-8-14.36-7.81-20.15-13.84-.95-1-3.64-.85-4.61.56-2,2.89-4.09,2.19-6.71,1.24-1.67-.6-3.8-.59-5.06,1.1s-.62,3.31.3,5.09C170.43,120.27,172.17,121.17,180.69,119.44Z" transform="translate(-48.94 -80.22)"/><path class="cls-2" d="M515.36,111.35a7.79,7.79,0,0,0,2.88-.65c.63-.19,1.5-.63,1.75,0,2.65,7.37,9.41,6.14,15,7.17,8.71,1.61,8.35,1.36,11.76-7.13,1.16-2.9-.33-3.06-1.59-4.26s-2.85-.59-4.23-1a10,10,0,0,0-2.64.77,3.69,3.69,0,0,0,1.55-2.77c-3.91-4.37-8.54-6-14.15-3.57-4.09,1.75-8.22,3.41-12.2,5.38-1.83.91-4.73,2-4.17,4.3C510,112.48,513.21,111.13,515.36,111.35Zm21.46-4.52a6.21,6.21,0,0,1-3.47.38C534.51,107.07,535.74,107.07,536.82,106.83Z" transform="translate(-48.94 -80.22)"/><path class="cls-2" d="M835.58,696.5c-4.36-.18-6.49,2.57-7.79,6.31-1,2.92-2.12,5.09-5.67,6.6C816,712,810,715.56,807.94,722.83c1.46.75,3,1.53,4.61,2.38,7.12,3.85,13.67,1.13,15.66-6.71a6,6,0,0,1,3-4.2c3.76-2.19,6.52-5.5,9.06-9a7,7,0,0,0,1.07-7.07C840.23,695.64,837.6,696.58,835.58,696.5Z" transform="translate(-48.94 -80.22)"/><path class="cls-2" d="M1041.1,143.81c-2.56,2.86-2.1,5.19,1.3,6.15,4,1.13,7.73,2.69,11.62,3.95,1.92.63,4.15,1.18,5.76,0,4.31-3.21,8.64-5.2,12.46-2.85,3.66.93,5-1.31,7-1.42,1,0,2.51.75,2.72-1.16.14-1.35-1-1.91-1.72-2.79-3.3-4.11-7.85-6.2-12.5-8.26-4.22-1.86-6.27-.77-7.15,4-.33,1.85-.82,3.59-3.48,2.18-1.74-.91-3.9-1.06-5.55-2.08C1047.2,138.82,1044.12,140.43,1041.1,143.81Z" transform="translate(-48.94 -80.22)"/><path class="cls-2" d="M1159.41,154.11c3.81,1.31,3.57-.54,3-3.07-1.76-7.69-6.2-10.43-14.19-8.84a4.48,4.48,0,0,1-2.42.11c-6.53-2.8-13.39-1.48-20.12-1.75-3,4.88-.34,7.12,3.94,9.26,3.82,1.91,7.46,1.38,11.29.75,1.24-.21,2.73-.69,3.5.69.21.38-.72,1.41-1.29,2.44C1148.74,152.51,1154.19,152.31,1159.41,154.11Z" transform="translate(-48.94 -80.22)"/><path class="cls-2" d="M597.53,563.41c1.5-.36,3.76.43,4.27-1.64.57-2.28-1.77-2.28-3.13-2.92-5.2-2.46-10.3-5.2-15.68-7.19-2.75-1-6.13-3.9-9.08.45-.51.75-2.87.24-4.23-.52a31.66,31.66,0,0,1-5.06-3c-3.68-3.06-5.85-.62-7.41,2.18-1.78,3.21,1.42,3.72,3.31,4.55a104.25,104.25,0,0,0,34,8.16A13.37,13.37,0,0,0,597.53,563.41Z" transform="translate(-48.94 -80.22)"/><path class="cls-2" d="M853.06,681.26c-2,0-4.84.46-5.27-1.66-1-5.05-6.89-5.54-8.54-9.88-.32-.85-2.09-2-3.36-1.11-1.51,1.07-1,2.67-.07,4,1.95,2.75,2.68,6,4,9,1.27,2.84,2,5.44-.48,8.25-1.8,2-.93,3.92,1.78,4.59,2.25.55,3.53,1.66,3,4a3.37,3.37,0,0,0,2.19,4.94c2.32.56,2.43-2,2.82-3.67a11.32,11.32,0,0,1,2.62-5.24c1.55-1.69,2.77-3.62,4.51-5.22s3.32-4.2,2.16-6.67C857.53,680.56,855,681.26,853.06,681.26Z" transform="translate(-48.94 -80.22)"/><path class="cls-2" d="M77.1,298.3a36.41,36.41,0,0,0,4.5,0c1.33-.44,3.36.43,5.18-1,4.59-3.58,7.62-12.21,6.14-17.92-.58-2.23-1.75-3.74-4.27-4.16s-4.56,0-6,2.23c-.69,1.06-.77,2.95-2.39,2.88-6.81-.28-6.33,3.28-4.45,7.89.67,1.63-1,2.67-1.69,3.92C72.18,295.72,73.18,297.75,77.1,298.3Z" transform="translate(-48.94 -80.22)"/><path class="cls-2" d="M209.05,113.74c3.67-.78,9-1.9,13.7-4.86,1.36-.85,2.46-1.84,2.37-3.5-.12-2.15-2-1.76-3.38-2.1-9-2.19-18.21-2.38-27.4-2.75a12.46,12.46,0,0,0-1.49.06c-2.61.17-3.76.77-1.91,3.64C194.84,110.25,200.1,113.57,209.05,113.74Z" transform="translate(-48.94 -80.22)"/><path class="cls-2" d="M703,312a2.47,2.47,0,0,0,2,3c1.41.37,2-1,2.62-1.88a3.18,3.18,0,0,0,.14-4.11c-1.45-1.92-.25-2.89,1.54-2.87,4.66,0,5.19-3.05,4.45-6.3-.89-3.89-1.27-7.81-1.94-11.71-.63-3.71-1.11-7.65-4.25-10.36-2.3-2-4.09-2.15-4.71,1.53s-1.58,7.14,0,11C699.36,297.41,705.7,304.55,703,312Z" transform="translate(-48.94 -80.22)"/><path class="cls-2" d="M615.36,548.56c.68.76,1.43,1,2.12.46s2.4-.68,1.74-2.45a6.36,6.36,0,0,1,.52-5.76c1.39,2.11,2.45,3.53,3.3,5.06s.27,4.49,3,3.3c1.88-.83,5.57-1,4.21-5.32-.46-1.46-1.57-3.77.26-5.51,3.08-3,4.93-5.62-1.49-6.43-.56-.07-1-.86-1.56-1.2-4.2-2.56-9.41-2.26-12.12.68C612.4,534.52,612.48,545.3,615.36,548.56Z" transform="translate(-48.94 -80.22)"/><path class="cls-2" d="M694,151.64c3.66,0,7.43.5,11-.18,5.15-1,11.23-1,13.35-7.7-1.66-.27-3.4,0-5.12-.79-3.18-1.49-6.79-2.49-10.13-1.26-2.61,1-4.17.55-6.51-.74s-5.48-2.27-7.88-.08c-2,1.85-2.39,4.28-1.41,7.21C688.47,151.79,691.11,151.66,694,151.64Z" transform="translate(-48.94 -80.22)"/><path class="cls-2" d="M1106.86,162.68c2.68-1,3.19.81,4.15,2.78,1.88,3.87,5.64,4,8.18.47,1.36-1.88,2.43-4,4-5.64,1.81-1.82,5.4-4.11,4.26-5.74-1.52-2.19-5.47-1.12-8.41-.83-.48.05-.93.38-1.41.45-4.61.72-7.82,3.56-10.7,6.93h0c-.48-4.38-4.32-8.22-7.29-6.88-3.57,1.61-7.37,3-10,6.16a6,6,0,0,0-1.58,2.43c-.4,2.25,6.35,11,9,11.48,4.61.81,6.87-2.77,8.94-5.82C1107,167,1106.62,164.64,1106.86,162.68Z" transform="translate(-48.94 -80.22)"/><path class="cls-2" d="M626.54,469.93a6.19,6.19,0,0,1,5.24,1.68c.69-2.66-.14-4-1.88-5.13-2.21-1.45-4.2-3.24-6.39-4.71s-1.9-2.48.22-3.37c5.52-2.31,3.88-6.17,2.2-10s-5.62-4.36-8-.84a19.64,19.64,0,0,0-3.5,10.15C613.87,467.22,617.38,471,626.54,469.93Z" transform="translate(-48.94 -80.22)"/><path class="cls-2" d="M1187.09,416.37h0l-.16.09h0l.07,0s0-.1,0-.15Z" transform="translate(-48.94 -80.22)"/><path class="cls-2" d="M1155,406.73c-2,.55-4.61,2-3.86,4.24,1,3,4.43,4.17,7.09,5.65s.74-1.77,1.92-2.26a2.43,2.43,0,0,1,2.3.14c1.72.95,3.32,2.16,5.1,3,4.32,1.95,8.9,5,13.47,2,1.93-1.28,4-1.92,5.9-3-8-3.26-16-6.64-24.05-9.7A13.12,13.12,0,0,0,1155,406.73Z" transform="translate(-48.94 -80.22)"/><path class="cls-2" d="M1020.8,144.58c8.92.2,16.43-3.07,21.91-10,2.13-2.69,4.06-4.49,7.63-4.24-1.84-.89-3.43-2.15-5.54-1.69-9.45,2.08-18,6-25.07,12.71-.65.63-2.05.79-1.5,2.11C1018.67,144.53,1019.79,144.56,1020.8,144.58Z" transform="translate(-48.94 -80.22)"/><path class="cls-2" d="M738.54,699.06c-2.67.52-5.24,2.23-8.08,1.24-1.56.32-3.43-1.11-4.46,1-.84,1.76.24,3.16,1,4.61s1.36,3,2.17,4.39c1.27,2.21,2.05,5.08,5.32,5.11s4.33-2.22,5.68-4.69a21.38,21.38,0,0,0,2.31-8C742.75,700.42,742.19,698.34,738.54,699.06Z" transform="translate(-48.94 -80.22)"/><path class="cls-2" d="M641.79,487.64c-4.94,2.65-10.92,2.06-15.68,5.24,1.18,2.12,2.9,5.27,5.19,4s2.37-.47,3.37,1c4.23,6,7.22,6,11.32-.06,1.82-2.68,1.2-5.39-.32-7.94C644.83,488.41,643.71,486.62,641.79,487.64Z" transform="translate(-48.94 -80.22)"/><path class="cls-2" d="M306.67,100.5c4.11,1.24,8.47,1.52,12,3.09,2.39,0,12.24-6.26,12.76-7.86.63-1.93-.84-2.2-2.13-2.24-7.68-.21-15.08,1.46-22.38,3.64-.77.23-2.3.23-1.87,1.7A2.82,2.82,0,0,0,306.67,100.5Z" transform="translate(-48.94 -80.22)"/><path class="cls-2" d="M709.51,335.89c4.5-.28,3.79-5.53,5.3-8.6.37-.75-8-7-8.92-6.4-2.94,1.83-5.32,4.27-5.24,8.16C700.71,334.24,702.67,336.32,709.51,335.89Z" transform="translate(-48.94 -80.22)"/><path class="cls-2" d="M633.78,474.91a5.94,5.94,0,0,1-9.56,0c-1.4-1.78-2.35-1.7-5.26-1,4.82,1.21,1.82,4.85,3.92,7,4.69,4.92,10.88,4.87,16.5,0,2.27-2,2.72-4,.94-5.7C638.72,473.77,636.53,471.43,633.78,474.91Z" transform="translate(-48.94 -80.22)"/><path class="cls-2" d="M1087,141c3.42,3.49,8.93,1.9,12.51,5.2.81.74,1.9.81,2.09-1.25a26.67,26.67,0,0,1,2.17-7.48c.91-2.18.12-2.76-1.83-3.39C1097,132.51,1091.1,135.14,1087,141Z" transform="translate(-48.94 -80.22)"/><path class="cls-2" d="M1098.69,119c-17.92-4.26-18.07-6.21-21.81,1.08,2.26,1,5,.45,7,2.09C1090.32,127.27,1094.83,126.29,1098.69,119Z" transform="translate(-48.94 -80.22)"/><path class="cls-2" d="M634.07,570.29c6-.44,11.51-2.45,16.91-4.83,1.88-.83,1.67-1.76,0-3.15-5.08-4.19-7.28-4.32-14.17-.07-3.28-.8-6.59-2.34-9.83-2.21-4.15.17-8.16-2.57-12.17-.68-2.44,1.15-4.73,1-7.23.9-1-.06-3-2.32-3.28.81a3,3,0,0,0,2.76,3.49c2.93.42,5.89.66,8.84,1,1.12,1.22,2.06,2.72,3.4,3.6a2.89,2.89,0,0,0,4.22-1.41c.71-1.59-1-2.24-2.32-2.44-1.75-.27-3.31-1.55-5.2-1-.11-1.61.9-2.15,2.16-1.71a27.87,27.87,0,0,0,12,1.76c2.12-.2,2.71,1.41,2.94,3.17C632.46,568.75,630.31,570.56,634.07,570.29Z" transform="translate(-48.94 -80.22)"/><path class="cls-2" d="M622.63,427.34c.43-.89.62-1.89,1-2.79,1.23-2.66,2.44-6.71.56-7.93-2.76-1.79-5.23,2-7.4,3.77-1.3,1.08-1.51,3.46-2,4.58.19,3.57.88,6.66,3.68,7.18S621.69,429.34,622.63,427.34Z" transform="translate(-48.94 -80.22)"/><path class="cls-2" d="M348.41,98.2c3.25,1.65,6.08,6,10.53,2.33,2.4-1.35,4.44-1,6.4,1,2.39,2.51,5,2.64,7.64.16,2.25-1.13,4.63-1.29,7.12-1.5,3-.25,6.18-2,6.51-5s-3.22-3.78-5.62-4.48c-3-.89-4.52,2-6.61,3.14,1.43,2.41,4.87,1.55,6.18,4.48l-6.44.85c-2.42-3.48-6.73-3.84-11.82-1-.9-1.43.82-2.39.66-3.67,1.53-1.2,1.14-2.22-.44-2.83-2.71-1-11.7,1.31-13.5,3.51C348.33,96.09,347.06,97.5,348.41,98.2Z" transform="translate(-48.94 -80.22)"/><path class="cls-2" d="M158.36,363.62a5.6,5.6,0,0,0,4.95-7.44c-.43-1.42-1.82-2.83-.4-4.59,1.31-1.61,1.67-3.58-.76-4.39a3.56,3.56,0,0,0-4.62,3.21c.44,3.45-2.43,6-1.57,9.13C155,362.16,155.54,363.7,158.36,363.62Z" transform="translate(-48.94 -80.22)"/><path class="cls-2" d="M786.79,559.23c-10.52-4.37-22-6.66-30.46-15.09C760,552.75,780.15,562.38,786.79,559.23Z" transform="translate(-48.94 -80.22)"/><path class="cls-2" d="M1059,131.08c2.67-1.54,6.53-2.4,7.29-6.31-1-.9.17-3.44-2.54-2.8-3.19.76-6.39,1.41-9.29,3-1.29.73-2.2,1.9-1.2,3.2C1054.72,130,1057.41,132,1059,131.08Z" transform="translate(-48.94 -80.22)"/><path class="cls-2" d="M725.16,150.49c4.13.12,8.39,2.61,12.5-.45-2.21-5.38-7.53-4.27-11.78-5.28-1.4-.33-3.37-.3-3.46,1.74C722.34,148.28,723.64,150.44,725.16,150.49Z" transform="translate(-48.94 -80.22)"/><path class="cls-2" d="M836.82,181.08c5,1.85,10,3.67,15.83.91-4.43-4.91-9.95-4.92-15.6-4.35-.94.09-2,.45-2.19,1.61C834.69,180.59,836,180.77,836.82,181.08Z" transform="translate(-48.94 -80.22)"/><path class="cls-2" d="M796.42,605.36c-.13,7.24,7.57,12.37,15.63,10.19C807.16,611.29,801.68,608.65,796.42,605.36Z" transform="translate(-48.94 -80.22)"/><path class="cls-2" d="M1193.66,426.25c1.88-.47,3.71-1.17,5.55-1.78,1.16-.39,3.06-.17,2.87-2-.15-1.4-1.91-1.58-3.09-2-3.91-1.53-8.37-1.44-12-4-.86,2.47.82,3.36,2.73,3.85s2.53.84,1.33,2.92C1189.57,425.93,1191,426.93,1193.66,426.25Z" transform="translate(-48.94 -80.22)"/><path class="cls-2" d="M575.07,441.27c-2.93-.07-7.83,3.25-7.69,5.34.19,2.74,2.29,2.72,4.33,2.79,3.7.14,5.91-1.67,6.49-5.2C578.56,442.05,577.6,440.66,575.07,441.27Z" transform="translate(-48.94 -80.22)"/><path class="cls-2" d="M1246.2,714.33a22.77,22.77,0,0,0-4.39-.31c-1.37-.06-3.72-1-3.56,1,.1,1.32.86,3.86,3.14,4.36a18.3,18.3,0,0,0,3,.2c.33,0,.67,0,1-.05,2.72-.34,6.18-1.4,6.22-3.81C1251.62,713.08,1248.09,714.8,1246.2,714.33Z" transform="translate(-48.94 -80.22)"/><path class="cls-2" d="M639.76,525.26c-.1-1.92-2.35-1.32-3.19-1.16a10.12,10.12,0,0,1-9.22-2.32c-.65-.57-1.89-.48-3-.72-1.74.17-3.75.4-4.34,2.42-.42,1.45,1.48,2.33,2.2,1.86,3.93-2.54,6.67,1.36,10,1.57,1.46.08,2.89.81,4.33.84S639.84,527,639.76,525.26Z" transform="translate(-48.94 -80.22)"/><path class="cls-2" d="M1096.27,185.15c3.08,3.61,7.21,3.63,9.11,7,.57,1,3.8,1.17,4.19-1,.77-4.24-3.76-7.57-8-6.08A7.54,7.54,0,0,1,1096.27,185.15Z" transform="translate(-48.94 -80.22)"/><path class="cls-2" d="M989.59,270.74c-1.91-.65-2.48,1.46-2.14,3-.29,3.95,1.57,6.31,4.75,7.41.71.25,3.33-.07,2.83-2.25C994.27,275.5,993.12,271.94,989.59,270.74Z" transform="translate(-48.94 -80.22)"/><path class="cls-2" d="M645,543.63c4.37-4.25,7.93-3.26,11.54-1.24.76.43,1.94.11,2.93.1s1.69-.13,1.67-1.27c0-.88-.36-1.85-1.35-1.65-2.62.53-4.28-1.37-6.37-2.19C648.88,535.63,647.31,536.57,645,543.63Z" transform="translate(-48.94 -80.22)"/><path class="cls-2" d="M645.94,529.52a38,38,0,0,1,4.8,0c2.7.4,3.56-.81,3.43-3.33-.14-2.82.11-5.94-3.57-6.6-2-.35-3.55,2-2.54,3C651.36,525.67,647.84,526.73,645.94,529.52Z" transform="translate(-48.94 -80.22)"/><path class="cls-2" d="M231.64,378.75c.1-1.83-2.09-3.68-4.5-3.74-3.11-.07-3.41,2.61-3.9,4.71-.65,2.74,1.83,2,3,2.47C228.89,382.07,231.52,381.1,231.64,378.75Z" transform="translate(-48.94 -80.22)"/><path class="cls-2" d="M1118,135.82c.6-1.87-1.59-2-3.54-1.85-2.22.83-5.75-.05-7,3.26-.19.5,2.59,2.14,3.34,3.85C1113,138.91,1117,139,1118,135.82Z" transform="translate(-48.94 -80.22)"/><path class="cls-2" d="M179.23,193.39c-1.32,1-.75,2.07-.2,3.09.72,1.37,2,1.11,3,.57,2.74-1.38,4.89-3.3,5.6-6.68C184,189.14,181.71,191.62,179.23,193.39Z" transform="translate(-48.94 -80.22)"/><path class="cls-2" d="M854.39,594.76c-1.74-.22-2.67-.43-3.59-.44-2.3,0-4.61,0-6.91.1a2.36,2.36,0,0,0-1.65.69c-.65.88.23,1.46.75,2C845.79,600.37,849.06,599.84,854.39,594.76Z" transform="translate(-48.94 -80.22)"/><path class="cls-2" d="M922.06,253c-2.88.1-4,3-5.72,4.8-.55.6,1.27,1.63,2.38,1.74,2.83.28,4.54-1.6,6.35-3.55C924.23,254.82,923.54,253,922.06,253Z" transform="translate(-48.94 -80.22)"/><path class="cls-2" d="M1125.72,140.48h0a.27.27,0,0,0-.08.07h.05l0-.08Z" transform="translate(-48.94 -80.22)"/><path class="cls-2" d="M1128.15,137.84c-8.48-3.48-9-3.32-8.4,2.65l.14.12,5.81-.13C1126.58,139.66,1128.07,139.41,1128.15,137.84Z" transform="translate(-48.94 -80.22)"/><path class="cls-2" d="M611.89,478.31c-1.59,1.39-3.63,2.73-4.17,5.27-.21,1,.12,2.12,1.53,1.7a6.1,6.1,0,0,0,4.75-5C614.17,479.29,613.45,478.48,611.89,478.31Z" transform="translate(-48.94 -80.22)"/><path class="cls-2" d="M877.71,247.07c1-.21,2.45-.57,2-1.63a9.88,9.88,0,0,0-3.93-4.11c-1.7.22-2.18,1.08-1.74,2.15C874.75,245.14,874.72,247.69,877.71,247.07Z" transform="translate(-48.94 -80.22)"/><path class="cls-2" d="M1106.33,126.6c3.1.19,3.42-3.6,6-4.22.83-.2,0-.74-.26-1a7.16,7.16,0,0,0-1.43-1,7,7,0,0,1-5.48,3.53,1.47,1.47,0,0,0-1.32,1.78C1104.23,127.06,1105.42,126.55,1106.33,126.6Z" transform="translate(-48.94 -80.22)"/><path class="cls-2" d="M1150.16,225.94c-.05,2.83.62,5.28,2.59,7.13.16.14,2.27-.6,2.18-2.14C1154.74,228,1152.89,226.61,1150.16,225.94Z" transform="translate(-48.94 -80.22)"/><path class="cls-2" d="M752.67,542.76c.16-.75-.33-1.15-1.07-1.3-3.66-.74-4.4,2.32-5.59,4.84C748.27,545.12,751.83,546.48,752.67,542.76Z" transform="translate(-48.94 -80.22)"/><path class="cls-2" d="M673.19,550.92c2.13,1.29,4.33,1,7.59-1.27-3-.3-4.45-3.31-7-.74C673.17,549.55,672.48,550.49,673.19,550.92Z" transform="translate(-48.94 -80.22)"/><path class="cls-2" d="M883.8,270.47l-.1.09.19,0h0a.76.76,0,0,1,.08-.11Z" transform="translate(-48.94 -80.22)"/><path class="cls-2" d="M873,275c4.58-.84,8-1.64,10.7-4.4A11.39,11.39,0,0,0,873,275Z" transform="translate(-48.94 -80.22)"/><path class="cls-2" d="M781.8,565.12c.06,1.72,1.59,2,2.86,2a3.19,3.19,0,0,0,3.26-2.22c-1.19-.65-2.2-1.63-3.75-1.59C782.93,563.33,781.75,563.65,781.8,565.12Z" transform="translate(-48.94 -80.22)"/><path class="cls-2" d="M980.4,258.74c.52,3.21,2,5,4.65,5.63.87.22,1.21-.56,1.1-1.22C985.67,260.33,983.75,259.12,980.4,258.74Z" transform="translate(-48.94 -80.22)"/><path class="cls-2" d="M729.69,322.23c.41-.85-.47-1.7-1.29-1.63-2.48.22-4,1.86-4.9,4,0,.08.1.25.31.74C725.73,324.19,728.49,324.73,729.69,322.23Z" transform="translate(-48.94 -80.22)"/><path class="cls-2" d="M1111.91,142.54c-1,0-2.13,0-2,1.47.14,1.91,1.57,2.51,3.11,2.46a2,2,0,0,0,1.92-2.44C1114.72,142,1113.09,142.6,1111.91,142.54Z" transform="translate(-48.94 -80.22)"/><path class="cls-2" d="M738.88,536.28c.07-1.84-1.61-1.85-2.69-2.38s-2.94-1.07-3.25.67c-.27,1.56,1.7,1.72,2.87,2.11C736.8,537,738,537.84,738.88,536.28Z" transform="translate(-48.94 -80.22)"/><path class="cls-2" d="M666.58,544.54c-.38-1.56-1.61-2-2.94-2.25a1.37,1.37,0,0,0-1.74,1.28c-.11,1.27.4,2.4,1.85,2.35C664.79,545.88,666.14,546,666.58,544.54Z" transform="translate(-48.94 -80.22)"/><path class="cls-2" d="M600.65,546.19c.83.36,2.52.48,2.59-.35.13-1.84-.79-3.48-3.45-4.31C600.6,543.24,597.76,544.94,600.65,546.19Z" transform="translate(-48.94 -80.22)"/><path class="cls-2" d="M1208.74,423.83c-.92.47-2.68.13-2.59,1.63s1.59,1.4,2.63,1.06,2.41-.61,3-1.81A2,2,0,0,0,1208.74,423.83Z" transform="translate(-48.94 -80.22)"/><path class="cls-2" d="M358.06,103.84c-1,.58-2.84,0-3,1.8-.11,1.09.89,1.12,1.86,1.15,1.16-.22,2.47-.55,2.56-2.14A.94.94,0,0,0,358.06,103.84Z" transform="translate(-48.94 -80.22)"/><path class="cls-2" d="M1177.84,195.14c-1.53-.51-1.13-3.36-3.32-2.68-.78.25-2.08,1.15-1.63,2.13C1173.91,196.83,1176,195.53,1177.84,195.14Z" transform="translate(-48.94 -80.22)"/><path class="cls-2" d="M547,125c1.71,1.37,3,.33,4-1.28a26,26,0,0,1,11.73-3.08c1.06,0,2.6.6,3-.83a3.26,3.26,0,0,0-1.92-3.67c-2.68-1.22-5.49-2.14-8.26-3.16-2.07-.75-4.69-1.45-6,.48-1.49,2.28-3.28,5-1.61,8.13C549.14,123.12,545.07,123.4,547,125Z" transform="translate(-48.94 -80.22)"/><path class="cls-2" d="M666.46,556.5c1.15-.2,1.48-1.2,1.46-2.25a1.63,1.63,0,0,0-1.48-1.67c-1,.37-1.74.92-1.68,2.1S665.16,556.72,666.46,556.5Z" transform="translate(-48.94 -80.22)"/><path class="cls-2" d="M1117.78,142.35c.52,1.52,1.61,1.31,2.71,1,.78-.22.76-.28-.6-2.75l-.14-.12C1118.4,140.36,1117.05,140.19,1117.78,142.35Z" transform="translate(-48.94 -80.22)"/></svg>