<?xml version="1.0" encoding="UTF-8"?>
<svg id="Layer_1" data-name="Layer 1" xmlns="http://www.w3.org/2000/svg" viewBox="0 0 20.25 15.8">
  <defs>
    <style>
      .cls-1 {
        fill: #150f10;
        stroke-width: 0px;
      }
    </style>
  </defs>
  <path class="cls-1" d="M19.94,8.34s.07.02.1-.02h.03s.01,0,.02-.02c.06.04.11,0,.16-.03,0-.04-.02-.05-.05-.06-.05-.02-.1-.03-.16-.05-.02-.05-.07-.03-.1-.05,0,0,0,0,0,0,0,0-.02,0-.02,0-.02,0-.03-.01-.05-.02-.07,0-.12-.06-.18-.09.11-.06.12-.07.02-.16-.02-.02-.03-.03-.06-.02-.03,0-.02-.02-.02-.04,0,0,0,0,0,0,.02-.02.03-.06.07-.06.02,0,.04,0,.05-.03,0-.02-.01-.03-.03-.03-.03,0-.05,0-.06.03-.03,0-.03-.01-.03-.03,0-.01-.02-.03-.03-.03,0,0,0,0,0,0-.01,0-.02-.02-.02-.03-.02-.04-.06-.06-.11-.07-.02,0-.02,0,0-.03-.05-.03-.14-.01-.16-.1-.04.04.03.06,0,.1-.02,0-.04,0-.04-.02-.04-.06-.1-.03-.14-.01-.03,0,.01.05,0,.08,0,.03,0,.05-.01.08-.02-.02-.04-.03-.06-.01-.03.01,0,.03,0,.05-.01,0-.02.01-.03.02,0,0,0,0,0,0,0,0,0,0,0,0-.02,0-.03-.01-.05-.02,0,0-.01,0-.02,0,0,.04-.04.05-.08.06-.02,0-.04,0-.05.03,0,0,0,0-.01,0-.02,0-.03,0-.05.01,0,0,0,0-.01,0,0,0,0,0,0,0-.02-.02-.04-.02-.06,0-.04.02-.08.04-.13.02,0,0-.01,0-.02,0-.02.01-.03.02-.03.04,0,.04.05.04.08.05-.03.03-.05.05-.08.07-.03,0-.05.03-.05.06,0,.03.03.04.05.05.08.05.18.04.26.08.06.01.08.07.13.1,0,0,0,0,0,0-.02.02,0,.03,0,.05,0,0,0,0,0,0-.05-.04-.09,0-.13.03,0,.03.03.05.05.05-.01-.02-.03-.04-.05-.05,0,0-.01,0-.02,0,0-.02.02-.03,0-.05-.06,0-.13,0-.19-.01-.02,0-.03,0-.05,0-.01,0-.02,0-.02.02,0,0,0,0,0,0,0,0,0,0,0,0h0s-.03-.03-.05-.02c0,0,0,.01-.01.02,0,0,0,0,0,0-.03.02-.02.05-.03.08,0,0,0,0,0,0-.01-.07-.06-.02-.09-.03h0s-.01-.02-.03-.03c0,.02.01.02.02.03h-.01c-.08-.02-.17-.01-.25-.04,0,0,0,0,0,0h-.03s-.03.01-.05,0c0,0,0,0,0-.01,0,0,0,0,0,0,.01,0,.03,0,.03-.02,0-.01-.02-.01-.03-.01,0,0,0,0,0,0,.04-.05,0-.09,0-.14,0,0,0,0,0,0,0,0,0-.01,0-.02,0,0-.01-.01-.02-.02,0,0,0,0,0-.01,0,0,0-.01-.01-.02,0,0,0,0,0,0,.01-.03.03-.02.05,0,0,0,0-.01,0-.02,0-.02,0-.03-.02-.03,0-.04-.02-.07-.05-.08-.06-.04-.12-.09-.2-.1-.03,0-.05-.02-.08,0,0,0,0,.01,0,.02,0,0,0,0-.01,0,0,0-.01,0-.02,0,0,0,0,0,0,0,0-.02-.01-.04-.02-.05,0,0,.01,0,.02,0,.06-.04.06-.04.03-.12,0,0,.01-.02,0-.04-.01-.02-.05-.01-.05-.04,0-.02,0-.03-.02-.04h0s0-.01,0-.02c0-.04,0-.08-.05-.08,0,0,0,0-.01,0,0,0,0,.01,0,.02-.02,0-.03,0-.04.01,0,0-.01,0-.02,0,.01,0,.02-.02.02-.03.01,0,.02,0,.03,0,.01,0,.03-.02.05-.03.04-.02.07-.06.12-.06.03,0,.07,0,.09-.02,0,0,0,0,0,0,0,0,0,0,.02,0,.02,0,.04-.02.06-.02.08-.02.15-.04.23-.07.02,0,.03-.02.04-.03,0,0,0,0,0,0,.04-.02.08-.05.13-.05,0,0,.01,0,.02,0,.02-.02.04-.02.06-.03.05-.03.12-.03.16-.08,0,0,0,0,0,0,0,0,0,0,0,0,.02-.04.04.02.07,0,.02-.03.06-.04.06-.08,0,0,0,0,0,0,0,0,0,0,.01,0,0,0,0,0,0,0,0,.05.02.06.06.06h0s0-.09.08-.07c.02,0,.03-.02.02-.05,0-.01,0-.02-.01-.04.03.02.06.03.09,0,.03-.02.07-.02.08.03h.02s.03-.03.05-.04c.04-.03.02-.08,0-.11-.01-.03-.04-.05-.08-.03-.05,0-.09.03-.13.05,0,0-.01,0-.02,0-.03.02-.06.03-.06.07-.02-.03-.05-.02-.07-.02-.02,0-.03,0-.05,0,0,0-.01,0-.02,0-.02.01-.04.03-.04.06,0,0,0,0,0,0-.02,0-.03,0-.05,0-.02,0-.04,0-.06,0-.03.01-.05.03-.08.05-.01.01-.02.03-.02.05,0,0,0,0,0,0,0,0,0,0-.01,0-.02,0-.03,0-.05,0,0,0-.01,0-.02,0-.03.01-.03.04-.03.06,0,0,0,0,0,0,0,0,0,0,0,0,0,0-.01,0-.01,0-.05-.09-.04.02-.06.02,0,0,0,0,0,0-.05-.01-.1.02-.15.03,0,0,0,0-.01,0,0,0,0,0,0,0,0,0,0,0,0,0,.05-.02.08-.04.06-.1,0,0-.01-.01-.02-.01,0,0,0,0,0,0-.02-.01,0-.04-.03-.05v.07s0,0,0,0c0,.01-.02.02-.03.02,0,0,0,0,0,0h0s0-.03-.02-.03c-.01,0-.03,0-.03.01,0,.01.01.02.03.02,0,0,0,0,0,0-.01,0-.02.01-.03.03-.02.03-.02.05.02.05,0,0,0,0,0,0,0,0,0,0,0,0,0,0,0,0,0,0,0,0,0,0-.01,0-.02,0-.04,0-.04.03,0,0,0,0,0,0-.03-.02-.06-.02-.1,0,0,0-.01,0-.02.01,0,0,0,0,0,0-.02.01-.04.01-.06.01,0,0-.01,0-.02-.01.02,0,.03-.02.03-.04,0,0,0,0,0,0,.01,0,0,.05.04.02,0-.01,0-.02-.01-.03,0,0-.01,0-.01-.01,0,0,.01.02.03.02.02,0,.04-.02.05-.04,0-.01,0-.02,0-.03-.02,0-.04-.02-.01-.04,0,0,0-.02,0-.02,0-.03.03-.03.06-.03.03-.02,0-.02,0-.03,0,0,0-.01,0-.02h0s.04-.02.02-.04c0,0,0,0,0,0,0,0,0-.01,0-.02.02,0,.05.02.07,0,.01,0,.02-.01.02-.03,0,0,0,0,0,0,.03,0,.07-.01.1-.02,0,0,0,0,0,0,0,.03,0,.06.01.08,0,0,0,0,.01,0,.02,0,.04-.02.06-.02.02,0,.04,0,.06,0,.01,0,.02-.01.03-.02.01-.02.03-.02.04-.04.01,0,.02,0,.03-.01l.03-.03s0-.04,0-.06c.01,0,.02-.01.02-.03,0-.02-.01-.03.02-.03.02,0,.03,0,.04-.02,0,0,0,0,.01,0,.04-.02.09-.03.13-.05.02-.01,0-.03.01-.05.03.08.03.08.09.04.02-.03.01-.05,0-.08.03.03.05.08.11.04,0-.04.04-.08.03-.12.04.02.06,0,.08-.04,0-.02.02-.04.03-.06,0,0,0,0,0,0,0,0,.01,0,.02,0,.02.04.05.02.08.01.02,0,.03-.01.05-.02,0,0,.01,0,.02-.01.01-.01.03-.01.05-.02.01-.01.02-.03.03-.04.02,0,.05,0,.06-.03,0,.01.02.03.03.04.01,0,.02.02.03.02,0,0,0,0,0,0,0,0,.02-.01.03-.02.02-.01,0-.04.02-.05.03.02.04-.03.06-.01,0,0,.01,0,.02,0,0,0,.01,0,.02,0,0-.02,0-.04,0-.06.02,0,.03,0,.05,0,.06.02.08,0,.08-.06-.03,0-.05-.01-.08-.02-.03-.01-.06-.02-.07.02h-.02s0,0,0,0c-.06-.03-.11,0-.16.02-.03-.02-.05.03-.08.01.02-.03.02-.06,0-.11-.03.02-.06.04-.1.04h0s-.08.04-.08.08c0,.03.02.06.06.07,0,0,0,0,0,0,0,.01,0,.02,0,.03,0,0-.02,0-.03,0,0,0,0,0,0,0,0-.04-.04-.05-.06-.06h0s0,0,0,0h0s0,0,0,0c0-.02-.01-.04-.03-.05,0,0-.01.01-.02.02,0,0,0,0,0,0,0,0,0,0,0,0-.03-.04-.06-.01-.1,0,0,0,0,0,0,.01-.01,0-.01.02,0,.03,0,0,0,0,0,0-.06,0-.11.05-.16.01-.01,0-.02,0-.02.01,0,.01,0,.03-.01.04,0,0,0,0,0,0h0s0,0,0,0c0,0,0,.01,0,.02,0,0,0-.02-.01-.02-.02,0-.03,0-.05,0-.01,0-.03.02-.04.03,0,0,0,0,0,0-.02,0-.06.02-.05-.03-.02-.02-.06,0-.08-.03,0,0,.01-.01.02-.02,0,0,0,0,0,0,.03,0,.03-.02.04-.03.01,0,.02,0,.03,0,0-.03-.03-.05-.06-.05,0,0,0-.01,0-.02,0,0,0,0,0,0,0,0,0,0,0,0,0-.02,0-.05.03-.07,0,0,0,0,0,0,0,0,0,0,0,0,.02.03.04.05.08.01.02-.03.05-.01.07-.01-.03-.04-.04-.09-.08-.12.01,0,.02-.01.03-.02.01.01.02.04.05.02.01,0,.02-.01.03-.02.03,0,.05,0,.08,0,0,0,0,0,0-.01,0-.01-.02-.03-.04-.03-.02,0-.04,0-.05-.02,0,0,0,0-.01,0,0,0-.01,0-.02.02,0-.09-.02-.1-.1-.06,0,0,0,0,0,0,0-.02,0-.04,0-.06,0,0,0-.01-.01-.02,0,0,0,0,0,0,0,0,0-.01,0-.02,0-.03-.04-.03-.05-.05,0,0-.01,0-.02,0,0,.03,0,.04-.03.03,0,0,0,0,0,0h-.02s-.01,0-.02,0c0,0,0,0,0,0,0,0,0,0,0,0,0,0,0,0,0-.01,0,0-.02,0-.02.01,0,0,0,0,0,0-.01-.01-.02-.02-.04-.02-.07.02-.06-.05-.08-.08-.03,0-.03.03-.04.05,0,.02-.03.03-.04.04,0,0,0,0,0,0,0-.02,0-.03-.01-.04,0,0,0,0,0,0,0,0,.01-.02.01-.03,0-.02.01-.02.02-.03.01-.01.02-.03.01-.05,0,0,0,0,0,0,0,0,0,0,0,0,0,0,0,0,0,0h0s0,0,0,0c0,0,0,0-.01,0,0,.02-.02.02-.03.02-.01.01-.02.02-.03.03-.01,0-.02,0-.03-.01-.02-.01-.03-.02-.05-.03,0,0,0,0,0,0-.01-.05-.06-.07-.08-.11,0,0,0,0,0,0,.01-.06-.01-.1-.05-.14-.04-.01-.03-.05-.05-.08-.02-.04-.07-.07-.1-.1,0,0,0-.01,0-.02,0-.02-.02-.03-.02-.05-.02,0-.04-.01-.05-.03,0-.01-.01-.02-.02-.02-.05,0-.08-.06-.14-.06,0-.03-.03-.03-.06-.03,0,0,0,0-.01,0-.01,0-.02-.02-.03-.03.02,0,.03-.01.04-.02.02-.02.05-.02.07-.04-.02.04,0,.06.04.05,0,0,0,0,.01,0,0-.02,0-.04-.01-.05.02,0,.03,0,.05,0,.02.02.04.03.07.04.02,0,.05,0,.06-.02,0,.02.03.02.04.04,0,0,0,0,0,0,0,0,0,0,0,0-.01,0-.03,0-.04.02,0,.01,0,.02.02.02,0,0,.01,0,.02,0,.01,0,.03,0,.04-.01,0,0,0,0,0,0,0,0,0,0,.01,0,.02-.03.06-.02.09-.02.02,0,.04.01.04-.02,0-.02.03-.04,0-.06-.02-.02-.04-.04-.03-.08-.02,0-.03,0-.04,0,0,0,0,0,0,0,0,0,0,0,0,0,0,0,0,0,0,0,0,0,0,0,0,0,0,0,0,0,0,0-.02-.02-.01-.05-.04-.06,0,0,0,0,0,0,0-.05.06-.02.07-.05,0-.02-.04-.01-.03-.04.01-.02.02,0,.04,0,.03.02.04-.02.05-.03,0-.01,0-.02,0-.03-.01-.01-.02-.03-.04-.02,0,0,0,0,0,0,0,0,0,0,0,0,0-.01-.01-.03-.03-.04,0,0,0,0,0,0,0,0,0-.01,0-.02,0,0,.02,0,.03,0,.02-.04.03-.07.06-.11.01-.02.02-.06.06-.04,0,0,.02,0,.02,0,.03-.02.03-.06.02-.09-.02-.07-.07-.12-.15-.14-.08-.02-.17-.01-.26-.01,0,0-.02,0-.03,0-.04.02-.08,0-.12.01-.01,0-.02,0-.03.01-.02,0-.04.02-.05.03h-.01s-.02.02-.02.03c0,0-.02-.01-.03-.01-.01,0-.02,0-.03.01-.02,0-.04-.01-.06,0-.07.02-.04-.03-.04-.05,0-.01-.01-.01-.02,0-.01.02-.03.01-.05.02,0,0,0,0,0,0-.02,0-.04,0-.05-.02-.01,0-.02.02-.03.02,0,0,0,0,0,0,0,0-.01,0-.02,0,0,0,0,0,0,0,0-.01,0-.02,0-.03,0,0,0,0,0,0,0,0,.02-.01.03-.02,0,.01.02.02.03.02-.03-.02.02-.04,0-.06,0,0-.01,0-.02,0,0,0,0,0,0,0,0,0,.01,0,.02,0,0,0,0,0,.01,0,0-.01,0-.02,0-.03-.01-.02-.03-.03-.04,0,0,0,0,0,0,0-.02,0-.03,0-.05,0,0,0,0,0,0-.01,0-.02,0-.04-.02-.04,0,0,0,0,0,0,0,0,0-.01.01-.02,0,0,0,0,0,0,.05.05.06.01.08-.03.01.01.02.01.05-.02.05-.03.1-.07.16-.06,0,0,0,0,0,0,0,0,.01,0,.02-.02,0,0,0,0,0,0,.02.01.04.01.05,0,.01,0,.02-.01.03-.02,0-.01.01-.03.02-.05,0-.03,0-.06-.03-.06,0,.01-.01.02-.03.02,0,0,0-.01,0-.02,0,0,0,0,0,0,0,0,0,0,0-.01-.03.02-.02.07-.07.07,0,0,0,0,0,.01,0,0,0,0,0-.01-.01-.02,0-.03,0-.05,0,0,0,0,0,0,.02-.02.03-.04,0-.04-.08-.02-.04-.06,0-.08.03-.02.08-.04.11-.05.02,0,.04,0,.05-.02-.03,0-.05-.08-.1-.02,0,0,0,0,0,0,0,0-.01-.01-.02-.02-.04.02-.09.04-.13.06-.04.02-.05.01-.06-.02.01,0,.04,0,.03-.02,0-.02-.02,0-.04-.01,0,0,0,.02-.01.03,0,0,0,0,0,0,0,0-.02,0-.02.02,0,0-.01,0-.02,0,0,0,0,0,0,0,0,0,0-.01,0-.02-.02,0-.04-.03-.07-.02,0,.03,0,.05,0,.08-.03,0-.03-.02-.05-.03,0,0-.02-.02-.02,0,0,0,0,.01,0,.02,0,0,0,0,0,0,0,0,0,0,0,0-.02,0-.03-.01-.03-.03h0s0-.02,0-.02c.01,0,.03,0,.03-.01.03-.09.11-.11.17-.16,0-.04.04-.03.05-.05,0-.01-.01-.02,0-.03.02,0,.03-.01.05-.02-.03-.04-.05-.08-.08-.12-.02-.03-.02-.06.03-.06,0-.03-.02-.03-.04-.03-.08,0-.05.06-.05.1,0,0-.01-.02-.02-.02,0,0,0,0,0,0-.01,0-.02,0-.03,0,0,0,0,0,0,0,0-.04.02-.06.05-.08,0,0,0,0,0,0,.01,0,.02,0,.03,0,.02-.05.04-.09.1-.1.01-.01.03-.02.04-.04.01-.04.01-.09.05-.13.02-.02.01-.05-.02-.06,0,0-.03.01-.02-.01,0-.02,0-.03,0-.05.09-.02.1.02.06.09,0,0,0,0,0,0,0,0,.01,0,.02,0,0-.03.03-.04.05-.05.01-.01,0-.05.04-.04.02,0,.03-.02,0-.04-.03.02-.06.02-.09,0-.04-.01-.08,0-.1.03,0,0-.01,0-.02,0-.02.03-.06,0-.08.03-.02,0-.03.01-.05.02,0,0-.02,0-.02,0,0,.02.01.02.03.03-.01,0-.02,0-.03.01-.01.03-.05.02-.06.05,0,0,0,0,0,0-.04.02-.04-.02-.06-.03,0,.01-.01.02,0,.03.02.02.02.03,0,.04-.02.01-.03,0-.04-.02,0,0,0,0,0,0,0,0,.01,0,.01-.01,0-.04-.03-.06-.07-.06-.02.01-.03.04-.05.05-.01,0-.03.02-.03.02-.1-.06-.15.08-.23.06,0,0,0,.02,0,.03,0,0,0,0,0,0,0,0,0,0,0,0-.03,0-.07,0-.08.05,0,0,0,0,0,0,0,0,0,0,0,0-.03.01-.08-.01-.08.05-.01.01-.02.02-.03.03,0,0-.01,0-.02,0,0,.04-.04.03-.06.04-.02.03-.04.05-.07.06,0-.02,0-.04-.02-.03-.06.04-.13.04-.17.11,0,0,0,0,0,0-.03,0-.05.02-.08,0-.02.01-.04.03-.05.05-.05.02-.11,0-.16.03-.02.01-.03,0-.04-.01-.01,0-.02,0-.03,0,0,0,0,0,0,0,0,0-.02,0-.03,0,0,.02-.03.03-.04.05,0,0-.02,0-.02.02-.01.03-.05.05-.03.08,0,0,0,0,0,0,0,.01-.01.02-.02.03,0,0,0,0,0,0,0,0,0,0,0,0-.02.02-.03.05-.07.04-.01,0,0-.03-.01-.04-.03,0-.03.03-.05.05,0,.01,0,.02,0,.03-.02.02-.04.01-.07.01,0,0,0,0,0,0,0,0,0,0,0,0,0,0,0,0,0,0,0,0,0,0,0,0,.05-.06.02-.12.03-.19,0-.02.02-.04,0-.07,0-.02.01-.03.02-.05.01-.04-.03-.04-.05-.05-.02-.01-.05,0-.05.01.01.06-.04.05-.06.07-.02.02-.05,0-.07.02-.03.04-.09.02-.11.06-.02,0-.03,0-.05,0-.08-.01-.05.03-.03.06,0,0,0,0,0,0,0,0,0,.01,0,.02,0,0,0,0,0,0,0,0,0,0,0,0,0,.03-.01.05-.02.08,0,.02,0,.04,0,.06,0,.02.02.04,0,.05-.02.01-.04,0-.05-.02,0,0,0,0,0,0-.02-.04-.08-.06-.09-.11h0s0-.02,0-.03c0,0,0,0,0,0,0,0,0,0,0,0,.02-.03-.02-.03-.02-.05-.03-.03-.1.04-.1-.05.01-.02,0-.03-.01-.03,0-.01.02-.02.03-.03,0,0,0,0,0,0,0,0,0,0,.01,0,.01-.04.04-.06.07-.08,0,0,.01,0,.02-.01,0,0,.01,0,.02,0,0-.1,0-.11-.13-.13-.03.03-.06.05-.1.02-.04-.02-.02-.06-.01-.09,0-.01,0-.02.01-.03,0-.02,0-.03,0-.05,0,0,0,0,0,0,0,0,0,0,.01,0,0,0,.01,0,.02,0,0,0,.02-.01.03,0,0,0,.01,0,.02.01.02,0,.03-.01.05-.02v-.03s0,0,0,0c.03,0,.05,0,.07-.02,0,0,0-.01,0-.02h0s.02.01.03,0c0,0,0,0,0-.01,0-.02,0-.04-.02-.05.02-.02,0-.05,0-.08,0,0,0,0,0,0,0,0,0-.02,0-.03-.02-.02-.03-.02-.05-.02,0,0,0,0,0,0,0-.06,0-.11.05-.15.01.01.03.02.04.03,0,0,.01,0,.02,0,0,0,.01,0,.02,0,.02,0,.03-.01.05-.02,0-.02.01-.04.02-.07-.03,0-.03.04-.06.03,0-.02-.01-.03-.02-.05-.02,0-.03-.01-.03-.03,0,0,0,0,0,0,0,0,0,0,0,0-.04-.04,0-.05.03-.04.02,0,.04,0,.04-.02,0-.02-.02-.02-.04-.03-.04,0-.05.05-.1.05,0,.02,0,.03-.02.05,0,0,0,0,0,0,0,0,0,0-.01-.01,0,0,0,0,0,0,0,0-.01-.01-.02-.02,0,0,0,0,0,0,0-.03.03-.05.02-.06-.05-.05-.01-.04.01-.04,0,0,0,0,0,0,.01.02.03.02.05.03.05-.04.06-.1.03-.15-.03-.04.01-.04.02-.05,0,0,0,0,0,0,0,0,0,0,0,0,.04-.03.04.05.08.03,0,0,0-.01,0-.02-.02-.03-.03-.05-.05-.08,0,0,0-.01,0-.02,0,0,0,0,0,0,0,0,0,0,0,0,.04,0,.03-.04.05-.05,0,0,0,0,0,0,0,0,0,0,0,0,0-.02-.03-.04.02-.05,0,0,0,0,0,0,.04,0,.02-.07.06-.06,0,0,0,0,0,0,.05.05.04-.03.07-.03,0,0,0,0,.01,0,0-.01-.01-.02-.02-.03,0,0,0,0-.01,0,0,0,0,0,.01,0,0-.02-.01-.04-.02-.06h0s0,0,0,0c0,0,0,0,0,0,.04-.03.12-.03.1-.11,0,0,0,0,0,0h0s.07-.05.11-.07v-.03s.01-.08.07-.08c0,0,0,0,0,0,0,0,0,0,0,0,0,0,.01,0,.02,0v-.06s0-.03-.02-.05c-.08-.02-.09-.02-.08.05,0,0,.01.01.02.02-.01,0-.03,0-.04,0h-.01s-.06,0-.09.01q-.1.03-.06.13s-.04.02-.07.02c-.02,0-.03,0-.05-.01-.02-.02,0-.03.02-.05-.04-.02-.08,0-.11.02v.05s0,0,0,0c0,0,0,0,0,0-.05,0-.1-.05-.15,0-.02.02-.02.04-.03.07,0,0,0,0,0,0-.02.09-.08.04-.13.03-.02.03,0,.05.02.07,0,0,0,0,0,0,0,.01-.01.03-.03.04,0,0,0,0,0,0-.03,0-.07.02-.08-.03-.06.01-.02.05-.02.08,0,0,0,0,0,0,0,0,0,0,0,.01,0,0,0,0,0,0,.01.07-.04.03-.06.03.01.03,0,.06.02.09-.08,0-.08.06-.08.12,0,0,0,0,0,0,0,0,0,0,0,0-.03,0-.08.06-.1-.02,0-.01,0-.02-.02-.03-.03-.04.03-.07,0-.11.02,0,.03-.01.04-.03,0-.02.02-.03,0-.05,0,0,0-.01-.01-.02,0-.01-.01-.02-.02-.03,0,0-.02-.01-.02-.01,0,0-.01,0-.02,0-.04.02-.05.05-.04.09,0,0,0,0,0,0-.01,0-.02,0-.03,0,0,0,0,0,0,0-.02-.02-.05,0-.06-.03-.02.06.03.05.06.05,0,.02-.02.04-.03.07,0,0,0,0,0,0-.03,0-.05-.04-.09,0,0,0,0,.01,0,.02,0,0,0,0,.01.01v.06s-.01,0-.02,0c0-.04-.01-.05-.05-.05-.03.02-.04.12-.11.05,0,0,0-.01-.02-.01,0,.03-.04.03-.05.05,0,0-.02,0-.03.02,0,0,0,0,0,0,0,0,0,0,0-.01,0,0,0-.01,0-.02-.02,0-.04,0-.07,0,0,.01.02.02.02.03,0,.02,0,.04,0,.06,0,0,0,0,0,0-.02,0-.03.01-.04.02,0,.01-.01.03-.02.04,0,0,0,.02,0,.03,0,0-.01,0-.02,0-.01.01-.02.03-.02.04,0,0,0,.01-.01.02,0,0-.02.02-.02.02-.02,0,0,.04-.03.03-.03-.01-.01-.03-.01-.05,0-.02,0-.04.01-.06,0-.01,0-.03,0-.04,0,0,.01,0,.02,0,.01,0,.03-.01.04-.03,0-.01,0-.03.01-.04,0-.04.05-.05.05-.08.02-.02.05-.01.06-.04,0-.03,0-.06-.02-.09,0-.03-.02-.06-.05-.07,0,0,0,0,0,0,0-.02,0-.04-.02-.04,0,0-.02.03-.03.04,0,0,0,.01,0,.02-.01.02-.02.04-.03.06-.02.02-.01.05-.02.07-.02.03-.03.07-.03.11,0,0,0,0,0,.01,0,0,0,0,0-.01,0-.02-.01-.03-.02-.04,0,0,0,0,0,0,.04-.04,0-.07,0-.11-.04-.01-.06.01-.08.05,0,0,0-.02-.01-.02,0-.04-.02-.04-.05-.05,0,0,0,0-.01,0,0,.02-.01.03-.02.05,0,0,0,0,0,0-.03,0-.05.01-.06.04,0,.01,0,.02-.02.03-.02,0-.03,0-.04-.01-.01-.03,0-.07.04-.1.02,0,.03-.01.05-.02,0-.01,0-.02,0-.03-.03-.02-.02-.06-.05-.08,0,0,0,0,0,0,0-.01.01-.02.02-.03,0-.01,0-.02,0-.03,0,0,0,0,0,0,0,0,0,0,0,0-.01-.05-.02-.11-.07-.15h-.02s.01.08-.02.11c0,0,0,0,0,0,0,0,0,0,0,0,0,.02.01.03.02.05,0,0,0,0,0,0,0,0-.02-.01-.02-.02,0-.07-.03-.05-.08-.03-.07.04-.12.09-.18.15-.03.03-.05.03-.09.02.03-.03,0-.05-.01-.07-.03-.03-.1-.04-.1-.02,0,.05-.13.02-.06.1,0,0,0,0,0,0,0,0,0,0,0-.01-.04-.02-.07-.03-.1.02-.01,0-.03,0-.02-.02-.02.01-.04.02-.06.03-.02.01-.03.02-.05.03-.03.01-.07.08-.1,0-.02,0,0-.04-.03-.03-.02,0-.01.03-.01.05,0,0,0,0,0,0-.02,0-.03.01-.04.02,0,0,0-.02,0-.03.02-.03.03-.06.05-.09.01-.02.04-.04.02-.07,0-.02-.07,0-.03-.04.01-.02,0-.06.04-.02,0-.04.04-.08-.01-.11,0,0,0,0,0,0h-.01c.01-.06,0-.11.03-.14,0-.02.04-.03.03-.06,0,0,0-.01,0-.02,0-.07.13-.1.06-.2,0,0,.01-.01.02-.01.04,0,.04-.02.02-.05-.01-.01-.01-.02,0-.03.02-.01.05-.02.03-.05-.02-.02-.04.02-.06.02-.03,0-.04.03-.07.03-.02,0-.04.01-.06.02-.06.05-.12.1-.14.17-.02.06-.05.1-.09.14-.02.07-.02.14-.11.16,0,.06-.05.12-.02.18,0,0,0,0,0,0,0,.03,0,.06-.01.09,0,0,0,0,0,0-.02,0-.04,0-.06.01,0,0,0,0,0,0-.05-.04-.03-.11-.08-.16,0,0,0,0,0,0,.01-.05.01-.09,0-.14,0,0,0,0,0,0,0-.02,0-.04,0-.06,0,0,0,0,0,0,.01,0,.03-.02.03.02,0,.03.02.06.04.09.03.03.06.04.08-.01-.03-.02.02-.05,0-.07l-.02-.02c0-.07-.09-.1-.08-.17,0-.01-.01-.03-.03-.02,0,0,0,0,0,0,0,0,0,0,0,0,0,0,0,0,0,0-.03-.02.01-.08-.05-.08,0,0,0,0,0,0,0,0,0,0,0,0,0,0-.02,0-.03,0,0,0,0-.01,0-.02,0,0,0,0,0,0,.05-.02.06-.06.02-.11,0,0,0,0,0,0,0-.02,0-.04-.01-.05-.02-.04-.02-.08-.02-.12,0-.03,0-.06-.04-.06,0,0,0,0,0,0,0,0-.02-.02-.03-.03-.01-.02.03-.05-.01-.06.02-.01.02-.02.01-.04-.01-.01-.03-.02-.04-.02-.05,0-.03-.03-.02-.05,0-.01-.01-.02-.02-.03-.04-.05-.13-.08-.21-.08,0,0-.02,0-.02-.01,0,0,0-.02,0-.02.03,0,.05-.01.08-.02-.03-.02-.06-.04-.09-.04-.09,0-.12-.04-.14-.11,0,0,.01-.01.02-.02,0,0,0,0,0,0,0,0,0,0,0-.01-.02,0-.04,0-.06,0,0,0,0,0,0,0-.01,0-.02-.03-.01-.06,0-.05-.03-.06-.06-.06,0,0,0,0,0,.01,0,0,0,0,0-.01,0,0,0,0,0,0-.02-.05-.08-.01-.11-.03,0,0-.01.01-.02.02,0,0,0,.01,0,.02,0,0,0,0,0,0-.02,0-.04,0-.05.01-.01.01,0,.03,0,.04-.03.01-.06.02-.09,0-.04-.03-.07,0-.1.02-.08.06-.1.17-.17.24-.02.03-.04.05-.07.07-.05.02-.1.03-.08.11-.01-.02-.02-.03-.02-.04,0-.02.01-.05-.02-.06-.04,0-.03.03-.04.04-.05.07-.11.12-.2.13-.01,0-.03.02-.05.02h0s0,.03,0,.04c0,0,0,0,0,0,0,0,0,.02,0,.02-.04-.01-.06,0-.08.03h0s0,0,0,0h0s0,0,0,0c-.04,0-.07.03-.09.05-.03.04-.07.06-.11.09-.04.03-.02-.01-.03-.03,0,0,0,0-.01,0-.03.02-.09.02-.07.09-.04.01-.08.01-.1.06,0,.02-.01.03,0,.05-.02.02-.05-.01-.06.01,0,0,0,0,0,0,0,0,0,0,0,0-.04.01-.1-.02-.11.05-.01,0-.02,0-.03-.01-.03,0-.07-.01-.05-.07,0-.01-.02,0-.03,0-.03,0-.04.02-.03.05,0,.02-.01.03-.03.03-.01,0-.02,0-.03.02,0,.02,0,.03.02.04.01,0,.02,0,.03-.01,0,.03,0,.05-.02.08-.03-.03-.06-.04-.1-.03.04.03.05.07.07.1-.06,0-.06.05-.07.09,0,.01,0,.02.01.03,0,0,0,0,0,.01,0,0,0,0,0,0,0,.01-.01.02-.02.03.01,0,.02-.02.02-.04-.05-.01-.06-.05-.07-.09-.03-.02.01-.05,0-.07,0-.01-.01-.02-.02-.02-.03.02-.07-.02-.09.02-.03,0-.06-.02-.08.02,0,0,0,0,0,0,0,0,0-.02,0-.01-.01,0-.03,0-.04,0-.02.01-.01.03-.01.05,0,0,0,0,0,.01,0,0-.02-.01-.03,0,0,.01,0,.01.02.02-.04,0-.08-.03-.12-.04-.02,0-.04-.02-.06-.02-.03,0-.04.03-.05.05,0,0,0,0,0,0,0,0,0,0,0,0,0-.03,0-.07.02-.09.01-.02.03-.03.01-.06-.02,0-.04,0-.06,0-.03.01-.07,0-.1.02.02-.02.03-.04,0-.07,0,0,0-.03-.01-.02-.02.02-.02.05-.03.07,0,0-.01,0-.02,0,0-.01,0-.02,0-.03-.02-.05-.02-.11-.07-.14.05-.08-.03-.09-.06-.13.02,0,.04.02.05-.01,0-.01-.01-.02-.02-.02,0,0,0,0,0,0,0,0,0,0,0,0,0-.02-.02-.04-.03-.05.13-.07-.04-.11-.02-.16.02,0,.04,0,.05-.02,0-.01,0-.02,0-.03-.04-.02-.1-.02-.08-.1,0-.01-.01-.03-.02-.04-.08-.09-.15-.1-.26-.02-.06,0-.11.06-.17.07,0,0-.01.01-.02.02-.01.02,0,.03,0,.05,0,0,0,0,0,0,0,0,0,0,0,0v.02s.02.02.03.03h0s0,0,0,0c0,0,0,0,0,0-.01,0-.02.01-.01.02-.01-.02-.03-.02-.05-.03,0,0,0,0,0,0,0-.01,0-.02,0-.04,0-.02-.02-.02-.04-.03,0,0,0,0,0,0,0-.03-.01-.04-.04-.03-.04,0-.09.02-.12.04-.02.02-.04.02-.07.03,0,.02,0,.04,0,.06-.02.01,0,.02,0,.03,0,.03-.02.06,0,.08.02.01.03,0,.05-.01,0,0,0,0,0,0,0,0,0,0,0,0,.02.02,0,.05.02.08.01.02,0,.05.04.04,0,0,0,0,0,0,0,.04.02.08.03.11,0,.01,0,.03-.01.04,0,.01.01.02.02.02.03.01.05.05.09.02,0,0,0,0,0,0,0,0,0,0,0,0,0,.01,0,.03,0,.04,0,0,.01.01.02.01,0,0,0,0,0,0,0,0,0,.01,0,.02-.01,0-.02.02-.02.03,0,0,0,.02,0,.03-.02,0-.06,0-.04-.04,0-.01-.01-.03-.02-.04,0,0,0,0,0,0,0,0-.01-.02-.02-.03,0,0-.01-.01-.01-.02,0,0-.01,0-.02-.01,0,0,0,0,0-.01,0-.01,0-.02-.02-.02,0,0,0,0-.01,0,0-.03-.03-.05-.05-.08,0,0,0,0,0,0-.04,0,0-.04-.03-.05,0-.03-.02-.04-.05-.05,0,0,0,0,0,0,0,0,0,0,0,0,0-.01.01-.04-.02-.04,0,0,0,0,0,0,0,0,0,0,0,0,0-.05-.03-.07-.06-.09-.02.02-.03.03-.05.05.02,0,.04.04.06.02,0,0,0,0,0,0,0,0,0,0,0,0,0,0,0,.01,0,.02,0,.02,0,.04,0,.05,0,.02,0,.05,0,.07.01.01.03,0,.04.02,0,0,.01.02.02.03,0,0,.01.02.02.03-.02,0-.03.02-.03.04,0,0,0,0,0,0-.03,0-.05.03-.07.04,0,0,0,.02.02.02.05.03.05-.02.06-.04,0,0,0,0,0,0,.02,0,.04,0,.04-.02,0,.02.02.03.03.05,0,0,0,0,0,0,0,.02-.01.04-.03.05-.01,0-.02.02-.03.03,0,.02,0,.03.02.04.01-.02.02,0,.03,0,0-.02,0-.03.02-.04,0,0,0,0,0,0,.02,0,.03,0,.05,0,0,0,0,.01,0,.02,0,0,0,.01,0,.02-.02,0-.04.03-.06.04-.02.02-.06.03-.04.08.01.01.03.01.04.01.05,0,.08-.03.11-.05,0,0,0,0,0,0,0,.03-.01.03-.03.04-.02.01-.04.01-.05.04,0,0,0,0,0,0,0,0-.02,0-.03,0,0,0-.01.02,0,.03-.01,0-.02,0-.03.01,0,0,0,0,0,0-.02,0-.04,0-.06.02-.02.01-.01.05-.05.04-.02-.01-.02-.04-.03-.05-.02-.01-.04-.01-.06-.03-.01-.01,0-.03-.02-.04.02-.01.03-.02.05-.03,0,0-.01-.02-.02-.03-.03,0-.03.04-.03.06,0,0,0,0,0,0-.02-.02-.04-.02-.07-.03-.08-.05.01-.07.02-.1,0-.02,0-.03-.02-.04-.03.03-.08.02-.1.05h0s0,0,0,0c0-.02-.01-.03-.02-.05,0,0,0,0,0,0,0,0,.01-.01.02-.02,0,0,0,0,0-.01h0s0,0,0,0c.02-.01.05-.02.05-.05,0,0-.01-.01-.02-.02-.05-.01-.03.03-.03.05l-.07-.02s-.03,0-.04,0c0-.02,0-.03,0-.05,0,0,0,0,0,0,0,0,0,0,0,0,0,0,0-.01,0-.02,0,0,.01,0,.02,0,0-.01.01-.02.02-.03-.02-.08-.02-.08-.07-.05,0,0,0,.01,0,.02.01.02.02.04.03.06-.02,0-.03-.03-.06-.02,0,0,0,0,0,0,0,0,0,0,0-.01,0,0-.01-.01-.02-.02-.05.02-.11.05-.17.02-.09-.04-.18-.05-.27-.04-.07,0-.11.04-.14.1-.04.07-.03.15-.05.22-.02.07-.07.11-.14.11-.09,0-.14.04-.16.12-.03.1-.08.2-.16.28-.02.02-.03.04-.03.07,0,.02-.01.04-.02.07-.01,0-.02.02-.01.03.01.03,0,.06,0,.08-.05.08-.05.17-.08.25h0s.02.05.03.07c0,0,0,0,0,0,0,0,0,.01,0,.02,0,0,0,.01.01.02-.03.03,0,.1-.06.11-.01-.02-.03-.02-.05-.02,0,.03.01.05.04.06,0,0,0,0,0,0-.02-.02-.02-.04-.04-.06-.03-.01-.06,0-.08.02-.03-.05-.03-.11-.08-.15h0s0,0,0,0c0-.01.05-.02,0-.03-.02,0-.04-.01-.07-.02-.06-.01-.12,0-.16-.07,0,0,0,0,0,0-.04-.05-.06-.11-.11-.15-.08-.08-.17-.05-.2.06v.07s.01,0,.01-.01c0,.02,0,.03.01.05,0,0,0,0,0,0-.03.04-.05.07.02.09,0,0,0,0,0,0,0,0,0,0,0,0,.03.05,0,.1,0,.14,0,0,0,0,0,0,0,0-.02.02-.02-.02-.02-.11-.08-.14-.17-.06,0,0,0,0,0,0,0,0,0,0,0,0,0,0,0,0,0,0,0-.02.01-.03,0-.05-.03-.02-.06-.03-.09-.05,0-.03,0-.05.01-.08,0-.02.02-.04,0-.06-.04,0-.09.01-.13,0,0,0,0,0-.01,0-.06,0-.12.03-.18.02.02.02-.02.05.04.06.1.01.1.02.07.13,0,.01,0,.03,0,.04h0s.03.02.03.03c0,.06.04.06.07.06.04,0,.04-.04.04-.07,0,0,0,0,.01,0,0,0,0,0,0,0,.02.04.02.09.03.13-.04-.03-.09,0-.13,0,0,0,0,0,0,0-.04-.04-.03-.11-.09-.13-.02,0-.04,0-.06,0-.04.09,0,.16.05.23.03.05.05.1.06.16,0,.04.03.03.05.02,0,0,0,0,0,0,.02.04.04.07.05.11.04-.03.04-.07.02-.11,0,0,0,0,0,0-.01.04,0,.08-.02.11,0,.01-.01.02-.02.03.01,0,.02.03.04.02-.01.05-.03.08-.09.06-.01,0-.03,0-.04.01-.01,0,0,.02-.02.02,0-.02-.02-.05.02-.03.02,0,.03-.01.03-.03-.01-.04-.03-.09-.06-.13-.03.04-.06.07-.09.11,0,0,0,0,0,.01-.06-.02-.09,0-.13.05,0,0,0,0,0,0,0,0,0,0,0,0,0,0,0,0-.01,0,0,0,0,.02,0,.03-.01-.01-.02-.02-.04-.02-.05,0-.07.06-.12.07-.02,0-.04,0-.06-.01-.05-.03-.09,0-.11.04,0,.01,0,.03-.02.04-.04.07-.08.08-.14.02-.02-.02-.03-.05-.07-.04,0,0-.01.01-.02.02v.02s0,0,0,0c-.12.1-.14.18-.07.32,0,.01,0,.02,0,.03,0,0,.01,0,.02,0,0,0,0,0,0,0h0v.15c-.04.12-.04.12-.13.04-.02-.02-.04-.03-.07-.02-.02.01-.03.04-.02.06.01.03.05.01.07.03-.05.04-.11.08-.18.08,0,.05.03.07.06.1,0,0,0,0,0,0-.02,0-.04.02-.05.03-.01.03-.02.06-.05.08.07,0,.05.04.05.08-.02,0-.04,0-.05.03-.02.02-.03.05-.03.08.02.02.04.05.08.02.01,0,0,.02.01.02,0,0,0,0,0,0-.02,0-.04.01-.06.02v.02s.03.01.05.02c0,0,0,0,0,0,0,.02,0,.03-.03.03-.03,0-.05.02-.02.05.01.02.03.02.02.05,0,0,.01,0,.01,0,.06.05.04.13.08.19,0,0,0,0-.01.01,0,0,0,0,0,0-.02,0-.03,0-.05-.01,0,.01-.01.02-.02.03.01,0,.03,0,.04.01,0,0,0,0,0,0-.01-.01-.02-.03-.04-.01,0,0-.01.01-.02.02,0,.02,0,.04-.01.07.02.02.04.02.06.02,0,0,0,0,.01,0,0,.01,0,.03,0,.04-.01,0-.03-.01-.05,0,0,.05-.04.04-.07.04-.03,0-.08,0-.07.05,0,0,0,0,0,0,0,0,0,0,0,0,0,0,0,0,0,0-.01,0-.03-.01-.05-.02-.01,0-.03,0-.04,0,0,0-.01,0-.02.01-.05.04-.11.04-.16.05-.07,0-.14-.02-.21-.02-.05,0-.07.04-.07.07,0,.03.03.03.06.02,0,.02,0,.03,0,.05,0,0,0,0,0,0-.02.02-.04.03-.06.02-.01,0-.02,0-.03,0-.02,0-.03.01-.05.02,0,0,0,.02,0,.03,0,0,0,0,0,0-.02-.01-.06.01-.08-.01-.08.01-.15.04-.23.05-.18.02-.35.07-.5.18-.06.05-.07.1-.01.15.08.07.14.18.27.16,0,0,.01,0,.02,0,.05.06.1.05.15.01.03.05.05.11.06.17,0,.02.01.06-.04.04-.05-.02-.08,0-.09.05,0,.02-.02.03-.04.03-.03.03-.06-.04-.11.01-.08.08-.16.17-.28.19-.11.02-.23.06-.34.09-.07,0-.15,0-.22.02-.06.01-.12,0-.17.06h0s0,.01-.01.02c0,0,0,0,0,0-.02,0-.04,0-.06.02-.04.03-.09.08-.09.11,0,.04.05.01.09.01,0,0,0,0,0,0,0,.04.04.06.07.08.01,0,.02,0,.03,0,0,.01.02.02.03.03.07.07.07.08,0,.14,0,0-.02.02-.03.03-.01.01-.03.02-.04.03-.04.02-.07.05-.11.06-.1.03-.12.06-.11.16,0,0,0,0,0,0,0,0,0,.01,0,.02,0,0,0,0,0,0,0,0,0,0,0,0,0,0,0,0,0,0,0,0-.02-.01-.03-.01-.03,0-.06.01-.1,0,0,0-.02,0-.02,0-.02.03-.06.05-.09.07,0,0-.01.01-.02.02-.01.02-.04.02-.04.05.05-.01.1-.04.09.05,0,.01.02.03.03.05.02-.02.02-.04.01-.07,0-.02,0-.05.02-.05.02,0,.03.02.04.04.01.03.02.06.05.08h0s0,0,0,0c0,0,0,0,0,0,.02,0,.04.01.04-.02,0-.05.02-.01.04-.01,0,.01.01.02.02.03,0,0,0,0,0,0-.07,0,0,.04-.02.06,0,0,0,0,.01,0,0,0,.01,0,.02-.01H.34s.03.05-.02.04c0,0,0,0,0,0,0,0,0-.02,0-.03-.01,0-.02-.02-.03,0-.01.02.02.02.02.03h0s-.04,0-.03.03c0,.03.03.02.04.02.02,0,.07-.02.07,0,0,.07.06.07.1.09.02,0,.04,0,.04.03,0,.06.04.03.07.02,0-.01.02-.02.03-.02.01,0,.02,0,.03,0,0,0,0,0,0,0,0,0,.01.01.02.02.04.04.09.05.14.05,0,0,0,0,0,0,0,0,0,0,.01,0,.02,0,.04,0,.05-.02.02.03.05.03.08.05,0,0,0,0,0,0,.04-.02.07,0,.11,0,.04,0,0,.03,0,.04.03.02.04-.07.08-.02.04.03.09,0,.13.02-.05.02-.09.04-.03.11.06-.01.07-.05.05-.1.01.01.03.02.04.03.03,0,.05.02.08.02,0,0,.01,0,.02,0,.01-.01.02-.02.02-.04,0,0,0-.02,0-.03.02.01.04.02.05.04.05.03.09,0,.13-.01.03-.02.05-.02.09-.03,0,.03-.02.04-.02.06,0,0,0,0,0,0,0-.02,0-.04-.03-.03-.04.04-.09.05-.14.08-.02-.05-.04-.02-.06,0-.03.03-.06.04-.1.05-.02,0-.04,0-.06.03,0,0-.02,0-.02-.01-.02,0-.04,0-.06,0,0,0-.01,0-.02,0-.02.01-.04.02-.05.04-.02.03-.05.03-.08.04-.03,0-.03.02-.03.04h-.02s-.05,0-.07.03c-.02.01-.04.03-.05.05.02.08.09.06.15.07.03,0,.05-.01.07-.03,0,0,0-.01,0-.02,0,0,0,0,0,0,.03-.04.08-.03.12-.04.05.03.08,0,.11-.03,0,0,0,0,0-.01h0s0,0,0,0c0,0,0,0,0,0,0,0,0,0,0,0,.01,0,.02,0,.03-.01h0s0,0,.01.01c0,0,.01.01.02.01.04-.03.1,0,.13-.02.07-.03.06.05.1.04,0,0,.02,0,.02,0,0,0,.01,0,.02-.01,0,0,.01,0,.02,0,0,0,0,0,0,0,0,0,0,0,0,0,0,.06.03.11.07.16,0,0,0,.02,0,.03,0,0-.02,0-.02,0,0,.01,0,.02.02.02v.02s0,0,0,0c0,0,0,0,0,0-.05.02-.11.03-.16.03,0,.02.02.04,0,.04-.03,0,0-.04-.02-.04-.03,0-.04.01-.04.04,0,.03-.04.03-.07.03-.04,0-.08.02-.12.05,0,0,0,0,0,0,0,0,0,0,0,0,0,0,0,0,0,0-.01,0-.02,0-.03,0-.02,0-.03,0-.05.02-.02.04-.07.03-.08.08,0,0,0,0,0,0-.03-.07-.07-.08-.15-.03,0,0,0,0,0,0-.01.01-.02.02-.04.04,0,0,0,0,0,0-.02,0-.04,0-.06,0-.01,0-.02,0-.03.01,0,0,0,.02,0,.03-.01-.01-.02-.03-.04-.03,0,0,0,0-.01,0-.02.02,0,.08-.07.05-.05.04-.1.08-.16.08,0,0-.01,0-.02.01,0,0,0,0,0,.01.02.05.06.08.12.05.02-.01.05,0,.08-.02,0-.05.02,0,.03,0,0,0,.01,0,.02,0,0,0,0,0,0-.01,0,0,0,0,0,0,0,0,.01,0,.02,0,0,0,0,0,0,0,.03-.02.06-.01.09,0,0,0,0,0,.02.01.03,0,.04,0,.05-.04,0,0,0,0,0,0,.02,0,.03-.01.03.02,0,.01,0,.02.02.01.01-.01.01-.03,0-.04h0s.03,0,.05,0c0,.03,0,.07.02.1.05,0,.1-.02.14.04.02.03.04,0,.06-.02,0,0,0,.01,0,.01,0,.03-.03.03-.05.04,0,0,0,0,0,0,0,0,0,0,0,0-.01-.02-.03-.03-.04,0-.04.06-.07.02-.11,0,0,0,0,0-.01,0-.01,0-.02.01-.03.02-.02.07-.05.12-.08.18-.01,0-.01,0-.02.01v.02s-.01,0-.02,0c-.03.01-.05.03-.08.04-.02,0-.04,0-.04.03,0,.03.02.03.04.04.02.01.04.02.02.04.01,0,.02,0,.03,0,.03-.02.08,0,.1-.05,0,0,0,0,0,0,0,0,0,0,0,0,0,0,0,0,0,0,.02,0,.04.05.06,0,0-.02.03-.02.05-.03.02,0,.04,0,.05.02,0,0,0,0,0,0-.02.03-.03.07-.07.07-.06.01-.03.04-.02.07,0,0,0,0,0,0,0,0,0,0,0,0-.02.02,0,.03,0,.05.01,0,.02,0,.03,0,.01,0,.03,0,.05.01-.01,0-.02.02-.02.04.02.07.08.06.13.08.04,0,.04.07.1.05,0,0,.01,0,.01,0,.11-.07.13-.07.16,0,0,0,0,0,0,0,0,0,0,0,0,0,0,.01-.01.02-.01.03.03.04-.01.1-.03.1-.07-.02-.04.04-.06.07-.05,0-.06.04-.05.08,0,0,0,.01,0,.01,0,.01,0,.03,0,.03.01,0,0,.02,0,.02,0,0,0,0,0,0-.04,0-.09.01-.08.06.02.07-.02.08-.06.11,0,0,0,0,0,0-.05-.02-.08.03-.14.03-.06,0,0,.12-.08.14.02.02.04,0,.05.02,0,.03-.09,0-.05.07,0,0,.01,0,.02,0,.04-.03.07-.07.1-.1,0,0,0-.03.02-.02.01,0,.02.02,0,.03-.04.03-.02.07-.02.1,0,0,.01,0,.02,0,.02,0,.04.02.04,0,0,0,.03-.03.02.01,0,.02,0,.04.03.03.04,0,.02.04.04.05.02,0,.04.03.06,0,.01-.03.01-.06.02-.08,0-.02,0-.03-.01-.04h0s0,0,0,0c.03.02.05,0,.07-.02.01.05,0,.11.03.16,0,0,.01.01.02.01.06.01.08.05.08.11,0,.02,0,.05.03.05,0,0,0,0,0,0,0,0,0,0,0,0-.01,0-.02.01-.03.02,0,0,0,0,0,0-.03-.04-.06-.07-.1-.02,0,.04-.01.07-.01.1-.01-.01-.02-.03-.03-.04-.03-.01-.05.01-.05.04,0,.03-.02.04-.05.05,0,0-.01.01-.02.02.06.06.04.14-.04.2.02.01,0,.04,0,.05.03.04.06.08,0,.12,0,0,.02.03.02.04-.01.07.05.06.08.09,0,0,0,0,0,0,.01.06.02.12.03.18-.03.04,0,.07,0,.11,0,0,0,0,0,0,0,0,0,.01,0,.02,0,0-.01.01-.02.02.02.04,0,.09.03.13,0,.01,0,.03,0,.04.03.03.03.07.03.1.02.1-.06.19-.02.29.03.08.02.18.12.23.01,0,.03.02.03.04,0,0,.01,0,.02,0h0s0,0,0,0c.04.03.03.06.01.1,0,.03-.03.06-.02.09-.02-.05-.06-.06-.11-.05,0,0,0,0,0-.01,0-.02,0-.03-.02-.04,0,0-.01,0-.02,0-.05.05-.07.11-.06.18.05-.02.09-.01.13.02.03.03.02.05,0,.09.09-.04.16-.01.2.04.03.04.07.06.11.08.03,0,.07.1.1,0,0-.01-.01-.01-.02-.02,0,0,.01.01.02.02,0,0,0,0,.01,0,0,0,0,0,0,0,.02.02.08.01.05.07.04-.01.09-.02.13-.03.01-.01.02,0,.03,0,.02-.02.04,0,.05,0,.01,0,.02,0,.03,0,0,0,0-.01,0-.02.01,0,.02.01.03,0,0,0,0,0,0,0,.01,0,.02,0,.03,0,0,0,0,0,0,0,0,.01,0,.02,0,.03,0,0,0,0-.01,0-.01,0-.03.01-.04.02-.04,0-.07.03-.05.08.01.03,0,.06.02.08.03.02.01.03,0,.04-.04.02-.02.04,0,.06.06,0,.1-.03.15-.05.05-.02.09-.06.14-.07,0,0,.01,0,.02,0,0,0,0,0,.01,0,0,0,0,0,0,0,0,.03-.02.06,0,.09.02,0,.03.02.05,0,.02-.01.02-.04.04-.04.01,0,.02-.01.03-.03,0,0,0,0,0,0,.02,0,.03.01.04.02,0,0,.02,0,.02,0,.01,0,.02-.02.02-.04,0,0,0,.02.02.02.06-.01.09.04.13.06,0,0,0,0,0,0,0,.04,0,.07.03.1,0,0,.01,0,.02,0,.05,0,.05-.09.12-.06,0,0,.01,0,.02,0h0s.02.02.03.03c0,.02,0,.04.01.05,0,0,0,0,0,0,0,0,0,0,0,.01-.02.05.03.08.03.12,0,.02.02.01.04.02v.05s.03,0,.03.02c0,0,.01,0,.02,0,.01,0,.02,0,.02-.02,0,0,0,0,0,0,0,0,.01,0,.02,0,.04-.03.07-.01.09.03,0,0,.01,0,.02,0,0,0-.02-.01-.03,0-.02.02-.02.06-.06.04-.04-.01-.06.01-.09.03,0,0,0,.01,0,.02.04.06.01.12,0,.18,0,.02,0,.04-.01.05-.04.15-.1.31,0,.46-.02.02-.02.04,0,.07.02.05.02.11-.02.16.02.01.04,0,.06.02.05.01.06.05.06.1s0,.08.04.11c.11.08.1.19.08.31-.01.05,0,.09.05.1.05,0,.1.01.15.02,0,0,0,0,0,0,.01,0,.02.01.03.02.03.04,0,.1.05.13.1.06.13.15.1.27,0,.04,0,.08.06.06.06-.01.11,0,.16.04,0,0,.01,0,.02,0,.03.01.05.02.08,0s0-.04,0-.06c0-.01,0-.03,0-.05,0,0,0,0,0-.01,0,0,0,0,0,.01.05-.04.14,0,.16-.09,0,0,.01,0,.01,0,.07.04.09-.03.14-.05.02-.01.04-.02.06-.03,0,0,0,0,0,0,0,.01,0,.03.02.02.01,0,.02-.01.02-.03,0-.03,0-.05,0-.08,0,0,0,0,0,0,.01.02.04.03.06.03.04,0,.06.02.06.06,0,0,0,0,0,0-.03.03-.06.06-.09.1,0,0,0,0,0,0-.06,0-.05.08-.09.1.01.03-.04.03-.02.06.02.03.05,0,.07,0,.06,0,.08-.06.12-.08,0-.02,0-.03.03-.03.03,0,.05-.02.08-.02.06-.04.14-.02.2-.07.03-.03.06-.02.1,0,.06.01.12.04.18-.01.08-.05.09-.04.13.05.03.01.03.03.04.06.01.06.05.07.1.07.05,0,.05-.04.06-.08,0,0,0,0,0,0,0,0,0,0,.01,0,0,0,.01-.02.02-.03,0,0,0,0,0,0,.04,0,.07-.03.09-.07,0,0,0,0,0-.01,0-.01,0-.02-.01-.03,0,0,0,0,0,0,.03-.01.05-.02.08-.03.03-.02.05-.05.09-.06.03-.01.11-.08.08.04,0,.02.02.03.03.04.04-.02.08-.03.08-.08,0,0,0,0,0,0,0,0,0,0,0,0,.03-.05.07-.1.08-.16,0-.03,0-.07.05-.08,0-.01,0-.02,0-.03-.02-.03,0-.05.02-.07,0,0,0,0,0,0,.02.01.05.02.08.02.04.03.11.01.13.08,0,0,0,0,0,.01,0,.01,0,.02.01.03h0s.02,0,.03,0c0,0,0,0,0,0,0,0,0,0,0,0,.02,0,.04-.01.05-.03,0,0,0,0,0,0,.04,0,.07-.02.06-.07,0-.01,0-.02,0-.03,0,0,0,0,0,0,.01-.08.05-.1.13-.07,0,0,0,0,0,0,0,.05.06.04.08.07,0,0,0,0,0,0,0,0,0,0,0,0,0,.01.01.03.02.02.02-.02.05-.02.08-.02.01,0,.02,0,.03,0,.02,0,.03,0,.05,0,0,0,0,0,0,0,0,0,0,0,0,0,0,.01.02.01.03.01h.08s0-.02,0-.03c0,0,0,0,0,0,0,0,0,0,0,0,0-.04.01-.07.02-.11,0,0,0,0,0,0,0,0,0,0,0,0h0s0,0,0,0h0s.02,0,.03-.01c0,0,0,0,0,0,.02,0,.04,0,.07,0,0,0,0,0,.01,0,.01-.02,0-.04,0-.06,0,.02,0,.03.03.02,0-.01.01-.02.02-.03,0,0-.01-.01-.02-.02,0,0,0,0,0,0,0-.01.01-.02.02-.03,0-.01,0-.03-.01-.04,0,0,0,0,0,0,0,.01,0,.03.01.04.01-.02.05-.03.05-.06,0,0,0,0,0,0,0-.02.01-.03.03-.03,0,0,0-.02,0-.03,0,0,0,0,0,0,0-.03,0-.07.05-.04.01,0,.03.01.05,0,0,0,0,0,0,0h0s0,0,0,0c0,0,0,0,0,0h0s-.02-.07.02-.07c-.02.02-.03.04-.02.07.03,0,.05-.02.07-.05,0-.01,0-.02,0-.03,0,0-.02,0-.03,0,0,0,0,0,0,0,0-.03.02-.05.06-.03,0,0,0,0,.01,0,.02-.02.04-.04.07-.05,0,0,0,0,0-.01,0,0,0,0,0,0,.02,0,.04-.02.06-.03.02.02.04.03.07.03.02,0,.03,0,.05,0,.02,0,.04,0,.06.01.04,0,.04-.05.07-.06,0,0,.02-.01.02-.02,0,0,.01-.01.02-.02.02,0,.03,0,.04,0,.02-.02.03,0,.05,0,0,0,.01,0,.02,0,.03,0,.05-.02.05-.05,0-.03-.04-.05-.06-.08,0-.02.01-.03,0-.05,0-.02-.02-.04-.03-.06,0,0-.01-.01-.02-.02.01-.03.02-.06.03-.09,0,0,0-.01,0-.02,0-.01-.02-.02-.04-.02,0,0,.01-.02.02-.03,0,0,0-.01.01-.02.03-.03.03-.07.02-.11,0,0,0,0,0,0,0,0,0,0,0,0h0s.01.02.02.03c.01,0,.02-.01.03-.02,0-.02.01-.03.02-.05,0-.01,0-.02-.02-.02,0,0,0,0,0,0,0,0,0,0,0,0,0-.01,0-.02,0-.03,0,0,0,0,0,0,0,0,0,0,.01,0-.01.03,0,.04.03.04,0,0-.01,0-.02,0-.02.01-.03.03-.02.05.03,0,.05-.03.08-.02,0,0,.01-.01.02-.02,0,0,0,0,0,.01.04.07.11.06.17.05,0,0,.02,0,.02,0-.02.04.04.05.04.08,0,0,.01,0,.02,0,0,0,0,0,0,0,0,0-.01,0-.02,0,0,.02,0,.03-.01.05,0,0,0,0,0,0,0,0,0,0,0,0,0,0-.02-.01-.03,0,0,0-.01,0,0,.02.02.02.03.05.03.08,0,.08,0,.17.05.25.07.03.09.11.1.16.01.09.03.18.08.27,0,.01,0,.02,0,.03.03,0,.05.02.08.03,0,0,0,0,0,.01.09.06.13.15.1.25.02.04,0,.09.07.11.02,0,.04,0,.05-.01,0,.02.02.03.03.05,0,0,.02.01.03.02.04.01.05-.03.08-.03,0-.02,0-.03-.01-.05-.01,0-.02,0-.03,0-.02-.04.02-.07.03-.1,0,0,0,0,0,0,.03-.04.05-.1.12-.11.02-.02.04-.03.06-.05.03-.02.07-.04.1-.07,0,0,0,0,.01,0,0,0,0,0,0,0,0,0,0,0,0,0,0,.02,0,.04,0,.07h.03s.02-.01.03-.01c.03.02.06.02.1.02.03,0,.03-.02.03-.04,0,0,0,0,0,0h.02s0,0,0,0c0,.02,0,.03,0,.05,0,0,0,0-.01,0-.01.01-.02.03,0,.04.01.02.03.02.05.02,0,0,0,0,0,0,.02.03.03.05.05,0h0s.02-.05.05-.07c0,0,0,0,0,0,0,0,0,0,0,0h.02c.04-.06.11-.03.16-.03.04,0,.08,0,.1-.05,0,0,0,0,0,0,.01,0,.02-.01.03-.02,0,0,.01-.01.02-.02.02-.02.03-.05.06-.06.04-.01.05-.04.06-.08.01-.05.04-.08.1-.06.02,0,.04,0,.06-.01,0,0,0,0,0,0,0,0,0,0,0,0,0,0,0,0,0,0,.01.02,0,.05.03.06,0,0,0,0,0,0,0,0,0,.01,0,.02.04,0,.08.02.12,0,0,0,0,.02.01.03,0,0,0,0,.01,0,.02,0,.04,0,.06,0,0,0,0,0,0,0,0,.02.01.04.04.05.01,0,.02,0,.02-.01.01-.02.01-.05.04-.02,0,0,0,.01,0,.01,0,0,0,0,0,0,0,.04.01.06.03.09,0,0,0,0,0,0h0s0,0,0,0c0,0,0,0,0,0-.02,0-.04-.02-.05,0,0,.03.02.04.05.03,0,0,0,0,0,0,.02.01.03.03.03.05,0,0,.01.01.02.02,0,0,.01,0,.02,0,.01-.01,0-.05.03-.04.02-.02.02-.05,0-.07,0,0,0,0,0,0,.02-.01.03-.04.05-.05,0,0,0-.01,0-.02,0-.03-.01-.05-.04-.05-.02.02-.05,0-.08.03,0,0-.01-.01-.01-.02.03,0,.05.01.07-.01,0,0,0,0,0,0,0,0,0,0,0,0,.02,0,.03.01.05,0,0,0,.01,0,.02,0,0,0,0-.01,0-.02,0,0,.01,0,.02,0,0,0,.02-.01.02-.03,0-.02-.02-.03-.02-.05,0,0,.01,0,.02.01.01.01.03.02.04.03,0,0-.02,0-.03,0-.01,0-.02,0-.03.01-.03.03-.02.06.02.07h.01s0,0,0,.01c.03.01.05.02.05-.02h0s0,0,0,0c.03.02.06.03.08,0,0,0,0,0,0,0h.05s0,0,0,0c0,.01,0,.02,0,.04-.03.01-.03.02-.01.04,0,0,0,0,0,0,0,.01,0,.02,0,.03,0,0,0,.01,0,.02.02.04.02.08.05.11.02.02.03.05.04.08.03.02.05,0,.06-.03,0,0,0,0,0,0h0s0,.1.06.13c.08.03.12.11.17.18,0,0,0,0,0,0,0,0,0,0-.01,0,0,.02,0,.05.01.07.02.02.01.06.05.07.01.01.03.02.05.02,0,0,.01,0,.02,0,.02,0,.03,0,.05-.02,0,0,.01,0,.02-.01.03-.02.03-.06.04-.09,0-.02.02-.04,0-.06,0,0,0,0,0,0h0s0,0,0,0c.07,0,.11-.05.16-.08,0,0,0,0,0,0,0,0,0,0,0,0,0,0,.01,0,.02,0,0,0,.01,0,.02,0,.06.05.1.02.14-.03.01-.01.02-.02.03-.04.04-.01,0-.06.03-.08.04,0,.07,0,.1-.03,0,0,0,0,0,0,.02,0,.05-.01.05-.05,0,0,0,0-.01,0h0s0-.02,0-.03c0,0,0,0,0,0,.02,0,.03-.01.05-.02,0,0,0-.01,0-.02.01,0,.02-.02.02-.03.04.03.07.05.11.08.01,0,.02,0,.03,0,0,0,0,0,0,0,0,0-.01,0,0,.01.02.02,0,.05.03.06.03-.02.07-.05.05-.1.03-.01.07-.02.06-.07-.01-.04.02-.08.05-.09,0-.04.02-.08.05-.11,0,0,0-.01,0-.02.01,0,.04,0,.04-.01,0-.02,0-.03-.02-.03-.03-.02.01-.04,0-.07h0s0,0,0,0c0,0,0,0,0,0,.02-.03.07-.02.08-.06.03.05.1.08.11.15,0,0,0,0,0,0,0,.01,0,.03,0,.04.04.01.02.04.01.06,0,.03.01.04.03.05.02,0,.03.02.04.03.02.01.03.03.05.04,0,0,0,0,.01,0,0,0,0,0,0,0,0,.02.02.02.03.02h0s.02.06,0,.1c.01.03.02.07.06.06,0,0,0,0,0,0,0,0,0,0,0,0,0,.05.03.08.08.1,0,0,0,0,0,0,0,0,0,0,0,0,0,.02,0,.04-.04.04-.04,0,0,.02,0,.03,0,.09.06.15.08.22,0,0,.01.01.02.02.01,0,.02,0,.02,0,0,.02.03.04.01.07.02.04.04.02.06,0,0,0,0,0,0,0,0,0,0,0,0,0,.03.02,0,.11.08.08,0,0,0,.01,0,.02,0,0,0,0,0,0,0,.02,0,.03,0,.05,0,0,.02,0,.03,0,.03.03.05.05.1.03,0-.01,0-.02,0-.03-.02-.03-.02-.06-.02-.1,0,0,0,0-.01,0,0,0,0,0,0,0,0-.01-.02-.02-.04-.02,0-.03-.02-.07-.05-.09,0,0-.01,0-.02,0,0-.01,0-.02,0-.03,0,0,0,0,0,0,.03.02.05,0,.07-.01,0,0,0-.02,0-.02-.02-.03-.05-.06-.04-.1.03-.1-.02-.14-.09-.18,0,0-.01-.02-.02-.03,0-.01-.02-.02,0-.03.02-.02,0-.05,0-.07,0,0,0,0,0,0,.06-.02.11-.04.17-.07.02,0,.03.02.04.03-.01,0-.02,0-.03.02-.01.03,0,.05.02.07,0,.01,0,.02,0,.03,0,.02,0,.03,0,.04.02.02.04.01.06,0,.03-.01.05,0,.07,0,.02,0,.05,0,.06-.03,0,0,0-.01,0-.02.03,0,.07,0,.08-.04,0-.02-.01-.04-.04-.04,0,0,0,0,0,0,0,0,0,0,0,0,0-.03-.05-.02-.04-.05,0,0-.02,0-.03,0,0,0,.01-.01.02-.01,0-.01,0-.03,0-.04,0,0,0-.02,0-.02,0,0,0-.01,0-.02-.01-.02,0-.05-.02-.07,0,0,0,0,0,0,0,0,0,0,0-.02,0-.01-.02-.02-.03-.01-.01,0-.02.02-.03.02,0-.04.04-.09,0-.13-.02-.01-.05-.01-.07,0,0,0,0,0,0,0,0-.05-.03-.08-.06-.12,0,0-.03,0-.01-.02.03-.03,0-.06-.01-.09-.02-.01-.04,0-.06,0,0,0,0,0,0,0,0-.05.01-.07.06-.04.02.01.05.04.08.02,0,0,0,0,0,0,0,0,0,0,0,0h0s0,.01,0,.02c0,.05.03.07.07.08,0-.01,0-.03-.01-.04,0,0,0,0,0,0,0,.01,0,.03.01.04,0,0,0,.01,0,.01,0,0,0,0,0,.02,0,0,0,0,0,0,0,.01,0,.02,0,.03.06.05.13.09.22.09.03,0,.04.02.05.04.04.05.12.09.08.17.01,0,.03-.01.04,0,.06.04.06-.01.05-.04-.02-.06,0-.13-.04-.18-.01-.01-.02-.03,0-.04.05-.06.01-.14.02-.2,0-.02,0-.03-.03-.04,0,0,0,0,0,0,0,0,.01-.01.02-.02-.02-.04-.05-.04-.08-.04,0,0,0,0,0,0,0-.02-.01-.04,0-.06,0,0,0-.01-.01-.02-.02-.02-.01-.04-.01-.05,0-.02,0-.03-.02-.05-.02,0-.02-.02-.03-.04,0,0,.02.01.03,0,.02-.01.02-.04,0-.06,0-.01-.02-.02-.02-.04-.01,0-.03,0-.04,0,0,0,0,0,0,0,.04-.02-.02-.08.03-.1.03,0,.03.03.06.04.04.01.07.04.11.03,0,0,0,0,0,0,0,0,0,0,0,0-.01.01-.01.03-.02.04,0,.02-.02.03-.02.05,0,.02,0,.03,0,.04.04,0,.08-.01.11,0,0,.07.03.11.08.15.03.01.02.04.03.07.01.01.02.02.04.01.05,0,.08.03.1.08,0,0,.01,0,.01,0,0,0,0,0,0,0,.01,0,.02,0,.03,0,0,0,0,0,0,0,0,0,0,0,0,0,0,0,0,0,0,0,0,.01,0,.02,0,.03.01,0,.02,0,.03-.01,0-.02.02-.03.03-.03v-.02s0,0,0,0h0s0,0,0,0c0,0,0,0,0,0,0,0,0,0,0,0,0,0,0,.01,0,.02.07.01.14.05.2.1,0,0,0,0,0,0,0,0,0,.01.01.02,0,.02,0,.04.03.04.02,0,.02-.02.03-.03.02-.03,0-.05-.01-.08-.02-.04-.1-.06-.07-.13-.04,0-.04-.05-.08-.05,0-.01,0-.03-.02-.03-.03,0-.03-.07-.08-.03-.01,0-.03,0-.03-.02,0,0,0,0-.01,0-.02-.02-.04,0-.06-.01-.01.01,0,.03,0,.04,0,0,0,0,0,0v-.04h0s0,0,0,0c0-.01,0-.02,0-.03,0,0,0,0,0,0,.01,0,.03-.02.03-.03,0,0,0,0,0,0,.01,0,.03,0,.04,0-.02.03-.02.05.01.07.03,0,.05-.04.07-.06.03-.01.01-.03,0-.04-.01,0-.03-.02-.04-.02,0,0-.01,0-.02,0,0-.01-.02-.02-.03-.02-.01,0-.03,0-.04.01-.01.01-.02,0-.04,0,0,0,0,.01,0,.02,0-.04-.02-.04-.05-.02,0,0-.01-.02,0-.02,0,0,0,0,0,0,.05-.02.08-.05.05-.11-.03,0-.05,0-.08,0,0-.03.03-.04.01-.07-.02,0-.03,0-.05,0-.02,0-.02-.04-.05-.03,0,0,0,0,0,0,0,0,0,0,0,0,.02-.01.03-.03.02-.05,0,0,0,0,0,0,.03-.01.02.03.05.04.04-.01.02.03.03.04.01.01.03.02.05.03.01,0,.02,0,.03,0,.04,0,.05.03.06.05-.06.02-.04.06,0,.09,0,0,0,0,.01,0,0-.01.02-.02,0-.03-.03-.02-.01-.04,0-.06h0s.04.01.07,0c0,0,0,0,0,0-.01.01-.01.02,0,.03h0s0,0,0,0c0,.01,0,.02.01.03.04,0,.08.03.11,0,.03-.03.04-.04.08-.01,0,0,.03.01.03,0,.05-.07.14-.03.19-.09,0,0,0,0,0,0,.03,0,.04,0,.06-.03.03-.04.07-.05.11-.04.03,0,.06.04.04.08,0,0,.02,0,.02,0,.02,0,.04.01.06.01,0-.01,0-.02.02-.03-.02,0-.02.01-.01.03h.02s.05.06.1.07c0,0,0,0,0,0,0,0,0,0,0,0,.03.03.08.03.1.06.01,0,.02.01.03.02.04.04.08.04.11-.01,0,0,0,0,0,0,.07.02,0,.04,0,.06-.02.01-.04.02,0,.03.01,0,.03,0,.04.01-.01,0-.02.02,0,.04.04.02.08.02.11-.02.03-.03.08,0,.11-.02.01.05-.03.08-.06.07-.05-.02-.06.02-.07.04.01.02.02.05.05.05.03,0,.05.04.08.02,0,0,0,0,0,0,0,0,0,0,0,0,.01,0,.02,0,.03-.01,0,0,0,0,0,0,.04,0,.04.06.08.05,0,0,0,0,0,.01.02,0,.04,0,.06-.02,0,0,0,0,0,0h0s-.07.02-.01.05c.05.02.11-.01.16,0,.02-.03.06-.05.05-.1,0,0,0,0,0,0,.03,0,.05-.01.08-.02,0,0,0,0,0,0,.06-.02.08-.04.04-.1-.01-.02-.02-.04-.03-.06-.08.05-.11.05-.16-.02,0,0,0,0,0,0-.01,0-.03,0-.04-.01-.01,0-.03,0-.04-.01-.01,0-.02,0-.03,0,0,0,0,0,0,0-.01-.01-.02-.02-.04-.02-.07.05-.07,0-.07-.05,0,0,0-.01-.01-.02-.02-.01-.04,0-.05-.02-.05-.03-.05,0-.05.04,0,0,0,0,0,0-.01,0-.02,0-.03,0,0-.03.04-.06.02-.1-.03-.04-.07-.06-.1-.1-.01-.01-.03-.03-.04-.03-.02-.01-.04-.01-.06.01,0,.01,0,.02-.01.03,0-.02-.01-.03-.03-.04,0,0,0,0,0,0,0-.04-.05-.04-.04-.07,0,0-.01-.01-.02-.02,0,0,0,0-.01-.01-.02,0-.02-.02-.04-.03-.02,0-.02.01-.03.03-.01-.03.02-.06.02-.09-.02-.01-.04-.02-.06-.03,0,0-.01,0-.02,0-.01,0-.03,0-.05,0,.02-.01.04-.03.05-.05,0-.02-.01-.03-.02-.03,0,0,0,0,0,0-.02-.01-.04-.02-.06,0h-.02s0,0,0,0c0,0,0,0,0,0h0s.01,0,.02,0c0-.01,0-.02,0-.03-.02,0-.02-.01-.03-.03,0,0,0,0,0,0,0-.02-.02-.02-.03-.02,0,0,0,0,0,0,0-.02-.02-.05-.01-.07,0,0,0,0-.01,0,0,0,0,0,0,0-.07-.03-.05-.08-.02-.12,0,0,0,0,0,0,.03-.01.06-.03.09-.04.04-.01.07-.01.09.03.01.02.03.02.05,0,.01-.01.02-.02,0-.04,0,0,.01,0,.02,0,0,0,.02-.01.02-.02,0,0,0,0,0,0,.03,0,.05,0,.08,0,0,0,0,.01,0,.02.01.03.03.03.05.02,0,0,0,0,0,0,0,0,0,0,.01.01-.01.01-.01.03,0,.04,0,0,0,0,.01,0,0,0,.01-.01.02-.02.05-.05.1-.01.15,0,.05,0,.08-.02.05-.08,0-.02,0-.04,0-.07,0,0,0,0,0,0,0,0,0-.01,0-.02.03,0,.07-.01.08-.05,0,0,0,0,0,0,0,0,.01-.01.02-.02,0,0,0,0,0,0,.02-.01.04.01.06.02,0,0,0,0,0,0,0,0,0,.01.01.02,0,0,0,0,0,0,.02.03.05.04.08.05.01,0,.02,0,.03,0,.01.02.04,0,.05.03.02,0,.03.02.05.03.06.02.11.08.18.05.02-.02.08-.01.04-.07-.01-.02,0-.03.03-.04.06-.01-.01-.02,0-.04,0-.02,0-.03,0-.05,0,0,0,0,0,0,.01,0,.01-.02,0-.03.03.01.06.02.09-.01,0,0,0,0,0,0,.01,0,.02.02.03.02,0,0,0,0,0,0,0,.03,0,.06.01.09,0,0,0,0,0,0-.04-.01-.06,0-.07.04.01.02.02.03.05.02.03.01.04,0,.04-.03,0,0,0,0,0,0,.03.04.1.02.12.08,0,0,.01,0,.02.01.02,0,.02.03.03.05.05.03.1,0,.15.04.03-.02.04,0,.07.02.01,0,.02,0,.03,0,0,0,0,.01,0,.02,0,0,0,.01.01.02h0s-.02,0-.02.01c.03.03.05.01.07-.01h0s0,0,0,0c0,.02.01.04.03.06-.06-.01-.07,0-.07.07.01.02.07.02.01.06-.03.02-.04.05-.04.09,0,.04.04.04.07.06.04-.01.07-.04.11,0,0,.02,0,.03.03.03.06,0,.12-.01.15.06,0,.01.04.02.04,0,0-.04.02-.04.03,0,.01.04.03.01.05.02-.02-.03-.03-.05-.05-.08-.06-.06-.12-.11-.16-.18-.01-.02.01-.04,0-.06.01.01.02.02.04.02,0,0,.01,0,.02,0,.01,0,.02,0,.03,0,.06.06.11,0,.16-.02.03-.01.05-.04.04-.08-.01-.06-.04-.11-.11-.11-.02,0-.03-.02-.03-.04,0-.02,0-.04-.02-.06-.01-.02-.02-.03-.01-.05.03-.06.02-.1-.05-.11-.02,0-.02-.02-.04-.03-.04-.02-.07-.02-.11.01,0,0,0,.01,0,.02,0,0,0,0,0,0,0,.03-.02.07-.06.03-.02-.01-.04-.02-.06-.03,0,0,0,0,0,0,0,0,0,0,0,0-.03-.02-.04-.05-.02-.08,0,0,0,0,0-.01.01-.04.05-.1-.03-.11-.08.02-.04-.04-.05-.08,0-.02-.02-.04-.04-.05-.03,0-.04.02-.04.04-.03.06-.08.01-.12.01,0,0,0,0,0,0,0-.02-.02-.04-.01-.06,0,0,0-.01,0-.02-.01-.02-.03-.03-.05-.04,0,0,0,0,0,0,0,0,0,0,0,0,0,0,0,0,0-.01-.03,0-.03-.03-.05-.04,0,0,0,0,0,0,.03-.06.08-.02.12-.02,0,0,0,.02,0,.02.07,0,.12.04.19.06.02-.02.04-.05.07-.07,0-.01.01-.03.02-.04.02-.02.04-.04.07,0,.04.04.09.03.13,0,.02-.03.03-.06,0-.09,0,0,0,0,0,0,.1,0,.1,0,.1-.1,0-.02-.03-.03-.03-.05,0-.02,0-.03-.02-.05-.03-.02-.04.04-.07.01-.05-.01-.08-.04-.1-.09-.02,0-.04-.01-.06-.01-.02,0-.04,0-.07,0-.04,0-.07.01-.11,0-.01,0-.03-.01-.04,0-.02.04-.01-.02-.02,0-.02,0-.04,0-.05.02,0,0,0,0,0,0,0,0,0,0,0-.01,0-.02,0-.04-.02-.05,0,0,0,0,0,0v-.03s-.02-.01-.03,0c0,.01,0,.02.01.03,0,0,0,0,0,0-.01.01-.03.02-.04.02,0,0,0,0,0,0,0-.04,0-.07-.04-.09-.03-.02-.05-.04-.06-.07,0,0,0,0,0,0,0-.02.01-.04.05-.03.04-.02.07-.01.11,0,.03.01.06.01.07-.02.03.07.06.07.1.03,0,0,0,.01,0,.02,0,0,0,0,0,0-.02.04.04.04.04.07.02.04.04.07.09.04.01-.02,0-.04.02-.05.02-.02.03-.03.05-.05.01.01.05.01.03.05,0,0,.02.03.03.04.04.03.08.02.1-.03,0,0,0,0,0,0,.03.03.08.04.12.05,0-.02-.03-.04-.02-.06.02,0,.02.03.05.02.02-.02.05-.03.08-.02h0s0,0,.01-.01c0,0-.02.01-.02.02,0,.04.03.04.06.03.06-.03.08-.1.15-.12,0,0,.02,0,.02,0,.04-.01.08,0,.12-.02.03-.05.06,0,.09,0h.01s0,.02.02.02c0,0,0,0,0,0,0,0,0,0-.01,0,0,.04.04.04.07.03.04-.01.09-.02.13-.04.02,0,.02-.02.03-.04,0,0,.02-.01.03-.02.01-.02.04-.04.05-.04.08.04.05-.03.06-.06,0-.02,0-.04.02-.06,0-.01,0-.02-.01-.03,0,0,0,0,0,0,0-.02,0-.03,0-.05,0-.01-.02-.03-.03-.03,0,0,0,0-.01,0,0,0-.01.01-.02.02-.02,0-.03.02-.05,0,0,0-.01,0-.01,0,0,0-.01,0-.02,0-.03,0-.05,0-.06.03,0,0-.01,0-.02-.01-.01,0-.02-.02-.04-.02.01,0,.02,0,.04,0,.01,0,.02-.02.02-.03,0,0,0,0,0,0,.01.01.02.02.04.02.02,0,0-.02,0-.03,0,0,.02.01.03.01.01,0,.03,0,.04-.01,0,0,.02.02.03.02.05,0,.05-.03.04-.06,0-.04,0-.09.01-.13,0-.01-.01-.02-.02-.03-.03-.01,0-.03,0-.05,0-.02,0-.04-.01-.05-.08-.07-.09-.09-.03-.19,0-.02.02-.03.01-.05,0-.13.09-.24.07-.37-.02-.02,0-.04-.02-.06,0,0-.01-.01-.02-.02-.01,0-.02,0-.03,0,0,0,0,0,0,0-.03-.09-.07-.18-.16-.24.05-.02.08,0,.11,0,.06,0,.09-.04.08-.1-.01-.02-.03-.04-.05-.05.03-.01.06-.02.09-.04-.04,0-.02-.12-.09-.04,0,0,0,0,0-.01,0-.05-.06-.06-.07-.1.01-.03,0-.04-.02-.06-.02-.02-.03-.04-.06-.04,0,0,0,0,0,0,.01-.03-.06-.04-.01-.08.04,0,.03-.04.05-.07-.05-.02-.05.02-.05.05-.02.02-.04.03-.05-.01,0,0-.01,0-.02,0,.02-.01.03-.04.06-.04.03-.02,0-.02,0-.03-.02-.03-.04-.05-.01-.08,0,0,0-.01,0-.01-.01-.01-.03,0-.05,0,0,0,0,0,0,0,0,0-.01,0-.02,0,0,0,0,0,0,0,0-.01.02-.02.03-.02,0,0,.01,0,.02,0,.02,0,.04-.02.05-.03,0,0,0,0,0,0,0,0,0,0,0-.01,0,0-.02,0-.03,0-.04-.02-.09-.03-.1-.08.05-.02,0-.06.02-.09,0-.01-.01,0-.02,0,0,0,0-.01,0-.02.03,0,.04.02.06.04,0,0,0,0,0,0,0,.02,0,.03.02.03.02,0,.04,0,.06-.01,0,0,.01-.02.02-.02.01-.01.03-.02.03-.05-.01-.06-.05,0-.07-.01,0,0,0,0,0,0h0c-.06,0-.03-.07-.07-.08-.01,0-.03,0-.03-.02.01,0,.03,0,.04-.01.02.03.04.01.07.01,0,0,0,0,0,0,0,0,0,0,0,0,.01,0,.02,0,.03,0h0s0,0,0,.01c.01.02.03.02.05,0,0,0,.01-.01.02-.02,0,0,0,0,0,0,0,0,0,0,0,0,0,0,0,0,0,0,0,0,.01,0,.02,0,.02,0,.03,0,.05,0v-.03s0-.03,0-.05c0,0,0,0,0,0,.02.02.04,0,.07,0,0,0,0,0,.02,0,0-.02,0-.03.01-.05,0,0,0,0,0,0,.01,0,.02,0,.03,0,.05-.03,0-.04-.02-.06.01,0,.02,0,.03-.02,0,0,0,0,0,0,.04,0,.07,0,.1,0,0,0,0,0,0,0,0,0,0,.01.01.02.03,0,.05,0,.06-.02.02-.08.09-.04.14-.05.06,0,.14.05.18-.05.01-.02.02,0,.03.02q0,.08.05.1s0,.01.01.02c0,0,0,0,0,0,0,.01,0,.03.02.03.06.01.12,0,.18.03.01,0,.01-.04.03-.02.05.03.1,0,.14,0,0,0,0,0,0-.02,0,0,0,0,.01,0,0,0,0,0,0,0,0,.03.02.05.06.05.02,0,.03-.01.05-.02,0,0,0,0,0,0,.04.02.09.05.12,0,.05-.08.17-.08.22-.16,0-.01.02-.01.03,0,.02.03.05.03.07,0,.02-.04-.02-.06-.04-.06-.05-.01-.06-.05-.06-.1,0-.06.03-.1.06-.13.04-.04.02-.08-.03-.09-.02,0-.04,0-.06,0-.01,0-.02-.02-.03,0,0,0,0,0,0,0,0,0,0,0,0,0-.02-.04-.04-.09-.08-.11-.01-.02-.03-.02-.04-.01,0,0,0,0,0,0,0-.02-.02-.03-.03-.05-.04-.01-.08-.03-.11-.07.04-.02.08-.03.12-.05.02,0,.03.01.05.02ZM17.59,7.7s0,0,0,0c0,0,0,0,0,0,0,0,0,0,0,0ZM18.74,6.86h0s0,0,0,0c0,0,0,0,0,0ZM18.37,7.06s0,0,0,0c0,0,0,0,0,0,0,0,0,0,0,0,0,0,0,0,0,0,0,0,0,0,0,.01ZM18.95,6.14s.01.02.02.02c0,0,0-.01-.01-.02,0,0,0,0,0,0,0,0,0,0,0,0-.01,0,0-.01,0-.01ZM18.69,6.26s0,0,0,0c0,0,0,0,.01,0,0,0,0,0,0,0,0,.01.02.01.03.02-.02,0-.03,0-.04-.01,0,0,0,0,0,0ZM18.64,6.26s-.01.01-.03.03c0,0,0,0,0,0-.01-.01-.02-.02-.03-.02.02,0,.03,0,.05,0ZM18.28,5.79s0,0,0,0c0,0,0,0,0,0,0,0,0,0,0,0ZM18.31,6.62s0,0,0,0c0,0,0,0,0,0,0,0,0,0,0,0,0,0,0,0,.01,0,0,0,0,0,0,0ZM18.35,6.57s0,0,0,0c-.03-.02-.07-.04-.1-.07.02.04.06.06.1.06ZM18.22,6.68s0,0,0,0c0,0,0,0,0,0,0,0,0,0,0,0,0,0-.01,0-.02-.01,0,0,.01,0,.02,0ZM18.19,6.11s0,0,0,0c0,0,0,0,0,0,0,0,0,0,0,0,0,0,0,0,0,0ZM18.12,6.59s0,.02,0,.03c0,0,0,0-.01-.01,0,0,.01,0,.02-.01ZM17.57,7.19s.03.02.05.01c0,0,.01-.01,0-.02,0,0,0,.02.01.02,0,0-.01.01-.01.02,0,0,0,0,0,0h0s-.04.01-.06,0c0-.01,0-.03,0-.04ZM17.64,4.56s0,0,0,0c0,0,0,0,0,0,0,0,0,0,0,0ZM17.57,4.73s0,0,.01-.01c0,0,0,0,0,0,0,0-.01,0-.01.01h0s0,0,0,0c0,0,0,0,0,0ZM17,3.63s0,0,.01,0c.03-.03.02-.06,0-.09.01,0,.03,0,.04,0,.03,0,.04.01.05.04,0,.03.03.03.05.03-.02.01-.03.03-.05.04,0,0,0-.01,0-.02-.01-.01-.02-.02-.04-.02-.02.03-.03.05-.05.08,0,0,0,0,0,0,0,0,0,0,0,0,0-.02,0-.03,0-.05ZM14.63,2.66s-.02.03-.02.02c0,0,0,0,0,0,.01,0,.03,0,.03-.02ZM14.62,2.37s0,0,0,0c0,0,0,0,0,0,0,0,0,0,0,0ZM14.62,1.93h0s0,0,0,0c0,0,0,0,0,0h0s0,0,0,0c0,0,0,0,0,0,0,0,0,0,0,0,0,0,0,0,0,0ZM14.54,1.61s0,.04.01.06c0-.02-.01-.03-.01-.05,0,0,0,0,0,0ZM14.54,1.56s0,0,0,0h0s0,0,0,0ZM14.54,1.76h0s0,.01,0,.01c0,0,0,0,0,0,0,0,0,0,0,0ZM14.5,1.88s0,0,0,0c0,0,0,0,0,0,0,0,0,0,0,0,0,0,0,0,0,0ZM14.43,2.22s0,0,0,0c0,0,0,0,0,0,0,0,0,0,0,0ZM7.32.82s.02,0,.03,0c0,0,0,.02,0,.02,0,0,0-.02-.03-.02ZM7.27,1.15s0,0,0,0c0,0,0,0,0,0,0,0,0,0,0,0,0,0,0,0,0,0ZM1.75,5.44s0,0,0-.01c0,0,0,0,0,0,0,0,0,.01-.01.02ZM1.81,5.66s0,0,0,0c0,0,0,0,0,0,0,0,0,0,0,0h0ZM1.81,5.64h0s0,0,0,0h0s0,0,0,0c0,0,0,0,0,0,0,0,0,0,.01,0,0,0,0,0,0,0h-.02ZM.31,7.22H.31s0,0,0,0c0,0,0,0,0,0ZM.51,7.07h0s0,0,0,0c0,0,0,0,0,0,0,0,0,0,0,0ZM.52,7.11s0,0,0,0c0,0,0,0,0,0,0,0,0,0,0,0ZM.54,7.23s0,0,0,0c0,0,0,0,0,0,0,0,0,0,0,0,0,0,0,0,0,0ZM.6,7.11s0,0,0,0c0,0,0,0,0,0,0,0,0,0,0,0ZM.62,7.32s0,0,0,0c0,0,0,0,0,0,0,0,0,0,0,0ZM.64,7.26s0,0,0-.01c0,0,0,0,0,0,0,0,0,0,0,0ZM.65,7.59s0,0,0,0c0,0,0,0,0,.01,0,0,0,0,0-.01ZM.75,7.14s0,0,0,0c0,0,0,0,0,0h0s0,0,0,0c0,0,0,0,0,0,0,0,0,0,0,0ZM.77,7.59s0,0,0,0c0,0,0,0,0,0,0,0,0,0,0,0ZM.84,7.18s0-.01-.01-.01c0,0,.01,0,.02,0,0,0,0,0-.01.01ZM.88,6.83s0,0,0,0c0,0,0,0,0,0,0,0,0,0,0,0ZM.89,6.42s0,0,0,0c0,0,0,0,0,0,0,0,0,0,0,0ZM.96,6.44s0,0,0,0c0-.02.01-.03.03-.03-.01,0-.02.01-.02.02ZM1.16,6.44s0,0,0,0c0,0,0,0,0,0,0,0,0,0,0,0ZM1.6,7.54s.02,0,.02,0c0,0,0,0,0,0-.01,0-.02,0-.03,0ZM1.11,8.52s0,0,0,0c0,0,0,0,0,0,0,0,0,0,0,0ZM1.13,8.56s0,0,0-.01c0,0,0,0,0,0h.01s0-.01,0-.01c.01,0,.02.02.03.03-.02-.01-.03-.01-.05,0ZM1.24,9.02s-.02.01-.02.03c0,0,0,0,0,0,0,0-.01-.01-.02,0,0-.01-.02-.02-.01-.04,0,0,0,0,0,0,0,0,0,0,.01,0,0,0,0,0,.01,0,0,0,.01.02.02.02,0,0,0,0,0,0ZM1.32,8.98s0,0,0,0c0,0,0,0,0,0,0,0,0,0,0,0ZM1.3,9.37s0-.02,0-.03c.02,0,.03,0,.05,0,0,.01-.02.02-.04.03ZM1.52,8.75s0,0,0,0c0,0,0,0,.01.01,0,0,0,0-.01,0ZM1.53,9.36s0,0,0,0c0,0,0,0,0,0h0ZM1.65,9.03s0-.01,0-.01c0,0,0,0,0,0,0,0,0,.01,0,.01ZM1.64,9.88s0,0,0,0c0,0,0,0,0-.01,0,0,0,0,0,0ZM1.64,10.22s0,0,0,0c0,0,0,0,0,0,0,0,0,0,0,0ZM1.71,9.32h0s0,0,0,0c0,0,0,0,0,0,0,0,0,0,0,0ZM1.73,8.44s0,0,0,0c0,0,0,0,.01,0,0,0,0,0,0,0ZM1.68,11.34s0,0,0,0c0,0,0,0,0,0,0,0,0,0,0,0,0,0,0,0,0,0,0,0,0,0,0,0,0,0,0,0,0,0,0,0,0,0,0,0,0,0,0,0,0,0,0,0,0,0,0,0ZM1.76,11.22s0,0,0,0c0,0,0,0-.01,0,0,0,0,0,0,0,0,0,0,0,.01,0,0,0,0,0,0,0,0,0,0,0,0,0ZM1.76,12.42s0,0,0,0h0s0,0,0,0h0ZM1.79,11.11s0,0,0,0h0s0,0,0,0ZM1.78,9.73s.01-.02.01-.03c0,0,0,0,0,0,0,.01-.01.02-.02.03ZM1.83,10.39s0-.01-.01-.02c0,0,0,0,0,0,0,0,0,.01.01.02,0,0,0,0,0,0ZM1.87,5.92s0,0,0,0c0,0,0,0,0,0,0,0,0,0,0-.01,0,0,0,0,0,0,0,0,0,0,0,0ZM1.87,5.68s0,0,0,0c0,0,0,0,0-.01,0,0,0,0,0,0h0ZM2,7.74s.01,0,.02,0c0,0,0,0,0,0,0,0-.02,0-.02,0,0,0,0,0,0,0ZM1.98,7.99s.01,0,.02,0c0,0,0,0,0,0,0,0,0,0-.01,0,0,0,0,0,0,0ZM1.93,5.83s0-.01,0-.02c0,0,0-.01,0-.02,0,.01,0,.03.01.04ZM1.92,7.62s0,0,0,0c0,0,0,0-.01,0,0,0,0,0,0,0,0,0,0,0,0,0ZM1.9,10.49s0,0,0,0c0,0,0,0,0,0,0,0,0,0,0,0,0,0,0,0,0,0ZM1.9,10.17s0,0,0,0c0,0,0,0,0,0,0,0,0,0,0,0ZM1.91,5.78s0,0,0,0c0-.01,0-.02-.02-.03,0,.01.02.02.03.04ZM1.89,10.92s0,0,0,0c0,0,0,0,0,0,0,0,0,0,0,0ZM1.89,12.51s0,0,0,0c0,0,0-.01,0-.02,0,0,0,0,0,0,0,0,.01,0,0,.02,0,0,0,0,0,0ZM1.92,12.59s0,0,0,0c0,0,0,0,0,0,0,0,0,0,0,0v-.03s0,0,0,0c0,0,0,0,0,0,0,0,0,0,0,0-.01.01,0,.02,0,.03,0,0,0,0,0,0,0,0,0,0,0,0ZM1.92,7.67s0,0,0,0c0,0,0,0,0,0,0,0,0,0,.02,0,0,0,0,0-.01.01ZM1.97,5.89h-.01s0,0,0,0c0,0,0,0,.01,0,0,0,0,0,0,0ZM1.98,10.02s.01,0,.02,0c0,0,0,0,0,0,0,0-.01,0-.02,0ZM2,10.61h0s0,0,0,0c0,0,0,0-.01,0,0,0,0,0,0,0,0,0,0,0,0,0,0,0,0,0,0,0,0,0,0,0,0,0ZM1.99,10.05s.02,0,.03,0c0,0,0,0,0,0-.01,0-.02,0-.03,0ZM2.03,8.17s0-.03-.01-.05c0,0,0,0,0,0,0,0,0,0,0,0,0,0,0,0,0,0,0,.02,0,.03.01.05,0,0,0,0,0,0ZM2.06,9.67s0,0,0,0c0,0,0,0,0,0,0,0,0,0,0,0ZM2.05,9.52s0-.02,0-.03c0,0,.01,0,.02,0,0,0,0,0,0,0,0,0-.01,0-.02.01ZM2.14,8.8s0,0,0,0c0,0,0,0,0,0,0,0,0,0,0,0ZM2.16,5.19s0,0,0,0h0s0,0,0,0ZM2.19,12.84s0,0,0,0c0,0,0,0,0,0h0ZM2.32,5.47s-.04,0-.06.01c-.02,0-.04,0-.06,0,.04,0,.08,0,.12-.01ZM2.32,7.63s-.01.01-.02.03c0-.01.02-.02.01-.03,0,0,0,0,0,0ZM2.29,7.67s0,0,0,0c0,0,0,0,0,0h0ZM2.26,8.07s0,0,0,0c.02-.01.03-.03.03-.05h0s-.02.03-.03.05ZM2.29,12.75h0s0,0,0,0c0,0,0,0,0,0,0,0,0,0,0,0,0,0,0,0,0,0ZM2.31,12.81s0,0,0,0c0,0,0,0,0,0,0,0,0,0,0,0ZM2.29,8s0-.05.03-.04c0,0,0,0,0,0-.02,0-.03.02-.03.04ZM2.31,7.69s0,0,0,0c.03,0,.05,0,.08,0,0,0,0,0,0,0-.03-.01-.06-.01-.08,0ZM2.52,5.32s0,0,0,0c0,0,0,0,0,0,0,0,0,0,0,0,0,0,0,0,0,0ZM2.52,7.72s0,0,0,0c.02,0,.02-.01.01-.02,0,0,0,0,0,0,0,0,0,.02-.01.02ZM2.66,12.8s0,0,0,0c0,0,0,0,0,0,0,0,0,0,0,0,0,0,0,0,0,0,0,0,0,0,0,0ZM2.55,5.17s0,0,0,0c0,0,0,0,0,0,0,0,0,0,0,0ZM2.62,12.99h0s0,0,0,0h0ZM2.63,5.11s0,0,0,0c0,0,0,0,0,0,0,0,0,0,0,0h0ZM2.64,5.06s0,0,0,0c0,0,0,.01,0,.02,0,0,0-.01,0-.02ZM2.65,12.83s0,0,0,0c0,0,.02,0,.03,0,0,0-.02,0-.03,0ZM2.7,13.15s0,0,0,0c0,0,0,0,0,0,0,0,0,0,0,0ZM2.7,12.94s0-.03,0-.04c.02,0,.02.03.04.03-.01,0-.02,0-.03.02ZM2.76,12.93s-.01,0-.02,0c0,0,.01,0,.02,0,0,0,0,0,0,0ZM2.76,12.82s.01,0,.02-.02c0,0,0,.01,0,.02,0,0-.02,0-.03,0ZM2.83,12.68s0,0,0,0c0,0,0,0,0,0,0,0,0,0,0,0,0,0,0,0,0,0,0,0,0,0,0,0ZM2.84,13.14s0,0,0,0c0,0,0,0,0,0,0,0,0,0,0,0,0,0,0,0,0,0,0,0,0,0,0,0ZM2.84,7.71s0,0,0,0c0,0,0,0,0,.01,0,0,0,0,0-.01ZM2.94,12.67s-.02.01-.03.02c0,0,0,0,0,0,.01,0,.03,0,.03-.02,0,0,0,0,0,0,0,0,0,0,0,0,0,0,0,0,0,0ZM3.04,4.4s0,0,0,0c0,0,0,0,0,0,0,0,0,0,0,0ZM3.04,13.09s0,0,0,0c0,0,0,0-.01,0,0,0,.01-.01.01-.02,0-.01.01,0,.02-.01,0,0-.01,0-.01.02,0,0,0,0,0,0,0,0,0,0,0,0ZM3.23,4.34s0,0,0,0c0,0,0,0,0,0,0,0,0,0,0,0ZM3.22,4.49s0,0,0,0c0,0,0,0,0,.01,0,0,0-.01,0-.02ZM3.24,13.13s-.05-.06-.09-.06c.03,0,.07,0,.1,0-.02.02-.02.04-.01.07,0,0,0,0,0,0ZM3.37,13.31s-.01.03-.02.04c0,0,0,0,0,0,0-.01-.02-.02-.03-.01.02-.02,0-.05.04-.06,0,0,.01.01.02.02,0,0,0,0-.01.01ZM3.33,13.03s0,0,0,0c0,0,0,0,0,0,0,0,0,0,0,0,0,0,0,0,0,0ZM3.37,4.26s-.03-.02-.05-.01c0,0,0,0,0,0,.02,0,.05.01.07.01,0,0-.01,0-.02,0ZM3.41,14.24s0,0,0,0c0,0,0,0,0,.01,0,0,0,0,0,0ZM3.46,14.38s0,0,0,0c0,0,0,0,0,0,0,0,0,0,0,0,0,0,0,0,0,0ZM3.57,14.68s0,0,0,0c0,0,0,0,0,0,0,0,0,0,0,0ZM3.59,13.77s0,0,0,0c0,0,0,0,0,0h0ZM3.82,3.7s0,0,0,0c0,0,0,0,0,0,0,0,0,0,0,0ZM3.81,3.53s0,0,0,0c0,0,0,0,0,0,0,0,0,0,0,0ZM3.77,3.83s0,0,0,.01c0,0,0,0-.01-.01,0,0,0,0,0,0ZM3.71,12.84s0,0,0,.01c0,.02.03.04.04.06-.01-.02-.02-.05-.04-.06,0,0,0,0,0,0,0,0,0,0,0,0ZM3.52,4.17s0,0,0,0c0,0,0,0,0,0,0,0,0,0,0,0ZM3.41,3.77s0,0,0,0c0-.02.02-.05.02-.07,0,0,0,0,0,0-.01.02-.02.05-.02.08ZM3.44,13.54s0-.01,0-.02c0,0,0,0,0,0,0,0,0,.01,0,.02,0,0,0,0,0,0ZM3.45,4.28s0,0,0,0c.04,0,.05-.04.07-.08-.01.03-.04.05-.07.08ZM3.48,12.88s0,0,0,0c0,0,0,0,0,0,0,0,0,0,0,0ZM3.51,13.47s0,0,0-.01c0,0,0,0,0,0,0,0,0,.01,0,.01,0,0,0,0,0,0ZM3.62,13.27s0,0,0,0c0,0,0,0,0,0,0,0,0,0,0,0ZM3.62,13.63s0,0,0,0c0,0,0,0,0,0,0,0,0,0,0,0ZM3.63,13.64s0,0,0,0h0s0,0,0,0ZM3.64,13.41s0,0,0,0c0,0,0,0,0,0,0,0,0,0,0,0,0,0,0,0,0,0,0,0,0,0,0,0,0,0,0,0,0,0ZM3.65,15.07s0-.01,0-.02c0,0,0,.01,0,.02,0,0,0,0,0,0ZM3.67,13.14s-.04.02-.06,0c-.02.02-.05.03-.06.06,0,0,0,0,0,0,0,0-.02,0-.02,0,0,0,0,.01-.01.02,0,0,0,0,0,0,0-.01,0-.02,0-.03,0,0,0-.02,0-.02,0,0,0,0,0-.01,0-.02,0-.03.02-.05.03.04.07.02.1.01.02,0,.03-.02.04-.04,0,0,0,0,0,0,0,.02,0,.03,0,.04ZM3.67,13.54s.03,0,.04-.01c0,0,0,0,0,.01-.01,0-.02,0-.03.01,0,0,0-.01-.01-.01ZM3.72,15.2s-.02-.02-.03-.03c0,0,.02.01.04.02,0,0,.01.01.02.02-.01,0-.02,0-.03-.01ZM3.75,13.62s0-.02.02-.02c.03-.02.06-.05.08-.07,0,0,0,0,0,0,0,0,0,0,0,0,0,0,0,0,0,0-.05.01-.07.05-.1.09ZM3.85,13.81s0,0,0,0c0,0,0,0,0,0,0,0,0,0-.01,0ZM3.93,15.12s0,0,0,0h0s0,0,0,0ZM3.96,15.11s0,0,0,0c0,0,0,0,.01,0,0,0,0,0,0,0ZM3.94,3.07s0-.02,0-.02c0,0,0,0,0,0,.02,0,.03-.01.05-.02-.01.02-.03.03-.05.04ZM4.07,3.17s.02-.01.03-.02c0,0,0-.01.01-.01,0,0,0,.01,0,.02-.02,0-.03,0-.05.01ZM4.19,15.19s0,0,0,0c0,0,0,0,0,0h0ZM4.29,4.07s0,0,0,0c0,0,0,0,0,0,0,0,0,0,0,0,0,0,0,0,0,0ZM4.38,3.05h0s0,0,0,0c0,0,0,0,0,0,0,0,0,0,0,0,0,0,0,0,0,0ZM4.41,3.7s0,0,0,0c.02,0,.04,0,.04-.02,0,0,0,0,0,0-.01,0-.02.04-.04.02ZM4.56,3.83s0,0,0,0c0,0,0,0,0,0,0,0,0,0,0,0ZM4.59,2.97s0,0,0,0c0,0,0,0,0,0,0,0,0,0,0,0,0,0,0,0,0,0ZM4.63,2.78s.03,0,.02.02c-.01,0-.03-.01-.04-.02,0,0,0,0,.01,0ZM4.61,3.69s0-.02,0-.02c0,0,.01.01,0,.02,0,0,0,0,0,0ZM4.63,2.93s-.01,0-.01,0c0,0,0,0,0,0,0,0,0,0,.01,0,0,0,0,0,0,0ZM4.64,2.89h0s0,0,0,0c0,0,0,0,0,0,0,0,0,0,0,0,0,0,0,0,0,0ZM4.64,3.52s.02.04.04.05c0,0,0,0,0,.02-.02,0-.04-.01-.04-.04,0,0,0-.01,0-.02ZM4.73,2.6s0,0,0,0c0,0,0,0,0,0,0,0,0,0,0,0ZM4.81,3.86s0,0,0,0c0,0,0,0,0,0,0,0,0,0,0,0ZM4.91,2.37s0,0,0,0c0,0,.01,0,.01-.02,0,0,0,0,0,0,0,0,0,.01,0,.01ZM5.05,3.07s0,0,0,0c0,0,0,0,0,0,0,0,0,0,0,0ZM5.16,3.16s.01-.01.01-.02c0,0,0,0,.01,0,0,0-.02.01-.02.02ZM5.21,8.29s0,0,0,0c0,0,0,0,0,0,0,0,0,0,0,0ZM5.24,15.42s0,0,0,0c0,0,0,0,0,0h0s0,0,0,0c0,0,0,0,0,0ZM5.32,2.9s0,0,0,0c0,0,0,0,0,0,0,0,0,0,0,0ZM5.33,2.71s0,0,0,0c0,0,0,0,0,0,0,0,0,0,0,0,0,0,0,0,0,0,0,0,0,0,0,0ZM5.5,15.44h0s0,0,0,0c0,0,0,0,0,0ZM5.71,1.75s0,0,0,0c0,.01-.01.03-.02.04,0,0,0,0,0,0,0-.01.02-.03.02-.04ZM5.59,8.89s-.02,0-.02,0c.03-.01.05-.02.08-.04-.01.01-.03.02-.05.03ZM5.74,9.81s0,0,0,0c0,0,0,0,0,0,0,0,0,0,0,0ZM5.75,15.6h0s0,0,0,0c0,0,0,0,0,0,0,0,0,0,0,0ZM5.82,6.68s0,0,0,0c0,0,0,0,0,0,0,0,0,0,0,0ZM5.8,15.13s-.01,0-.01-.02c.01,0,.02.02.03.02,0,0-.02,0-.02,0ZM5.83,7.59s0,0,0,0c0,0,0,0,0,0,0,0,0,0,0,0,0,0,0,0,0,0,0,0,0,0,0,0ZM5.84,15.46h0s0,0,0,0c0,0,0,0,0,0,0,0,0,0,0,0ZM5.94,14.22s0,0,0,0c0,0,0,0,0,0,0,0,0,0,0,0ZM5.93,9.17s0-.02-.01-.03c0,0,.02,0,.03,0-.01,0-.01.02-.01.03ZM5.94,7.72s0,0,0,0c0,0,0,0,0,0,0,0,0,0,0,0ZM5.96,11.06s0-.02,0-.02c0,0,.01,0,.02,0,0,0-.02.01-.02.02ZM5.99,14.97s0,0,0,0c0,0,0,0,0,0,0,0,0,0,0,0,0,0,0,0,0,0,0,0,0,0,0,0,0,0,0,0,0,0,0,0,0,0,0,0ZM6.01,1.35s0,0,0,0c0,0,0,0,0,0h0ZM6.04,1.46s0,0,0,0c0,0,0,0,0,0,0,0,0,0,0,0,0,0,0,0,0,0,0,0,0,0,0,0ZM6.1,7.28s0,0,0,0c0,0,0,0,0,0,0,0,0,0,0,0ZM6.14,8.63s0,0,0,0c0,0,0,0,.01,0,0,0,0,0-.01,0ZM6.21,8.3s0,0,0,0c0,0,0,0,0,0,0,0,0,0,0,0ZM6.24,8.3h0s0,0,0,0c0,0,0,0,0,0ZM6.25,8.76s0,0,0,0c0,0,0,0,.01-.01,0,0,0,.02,0,.01ZM6.31,6.25s-.01.01-.02.02c0-.03.02-.05.02-.07,0,0,0,0,0,.01,0,0,0,.03,0,.04ZM6.44,1.07s0,0-.01,0c0,0,0,0,0,0,0,0,0,0,.01,0ZM6.42,14.78s-.03-.01-.04-.02c.01,0,.03.01.04.02,0,0,0,0,0,0ZM6.43,7.26s0,0,.01-.01c0,0,0,0,0,.02,0,0-.01,0-.02,0ZM6.47,9.99s0,0,0,0c0,0,0,0,0,0,0,0,0,0,0,0ZM6.54,8.56s0,0,0,0c0,0,.01,0,.02,0,0,0,0,0-.01,0ZM6.54,7.78s.05,0,.05-.01c0,0,0,0,0,0-.02,0-.04,0-.06,0ZM6.69,5.66s0,0,0,0c0,0,0,0,0,0,0,0,0,0,0,0ZM6.69,10.6s0,0,0,0c0,0,0,0,0-.01,0,0,0,0,0,0ZM6.69,15.12s0-.01-.01-.01c0,0,0,0,0,0,0,0,0,0,.01.01,0,0,0,0,0,0ZM6.71,10.66s0,0,0,0c0,0,0,0,0,0,0,0,0,0,0,0ZM6.73,9.26s0,0-.01,0c.01,0,.02-.01.03-.02,0,0-.01.02-.01.02ZM6.76,8.84s0,0,0,0c0,0,0,0,0,0,0,0,0,0,0,.01ZM6.77,10.53s0,0,0,0c0,0,0,0,0,0,0,0,0,0,0,0ZM6.8,1.27s0,.02,0,.03c0,0,0,0,0,0,0,0,0-.02,0-.03ZM6.78,1.22s0,0,0,0c0,0,0,0,0,0,0,0,0,0,0,0ZM6.88,14.82s0,0,0,0c0,0,0,0,0,0,0,0,0,0,0,0ZM7.02,14.88s0,0,0,0c0,0,.01,0,.02,0,0,0,0,0,0,0h-.02ZM7,6.73s0,0-.01,0c.02,0,.04-.01.06-.02-.02.02-.05.03-.05.03ZM7.09,6.29s0,0,0,0c0,0,0,0,0,0,0,0,0,0,0,0ZM7.12,9.53h0s0,0,0,0c0,0,0,0,0,0ZM7.13,5.68s0,0,0,0c0,0,0,0,0,0,0,0,0,0,0,0ZM7.15,6.21s0,0,0,0c0,0,0,0,0,0,0,0,0,0,0,0ZM7.16,5.66s0,0,0-.01c0,0,.01,0,0,0,0,0,0,0,0,0ZM7.18,7.36s0,0,0,0c0,0,0,0,0,0,0,0,0,0,0,0ZM7.22,1.49s0,0,0,0h0s0,0,0,0ZM7.45,7.52s0,0,0,0c0,0,0,0,0,0,0,0,0,0,0,0,0,0,0,0,0,0,0,0,0,0,0,0ZM7.37,10.88s0,0,0,0c0,0,0,0-.01,0,0,0,0,0,0,0,0,0,0,0,0,0h.01ZM7.36,7.71s-.01,0-.02.01c0,0,0,0,0-.01,0,0,0,0,.01,0ZM7.34,5.81s0,.02,0,.03c0,0,0,0-.01,0,0,0,0-.02,0-.03ZM7.24,1.48h0s0,0,0,0c0,0,0,0,0,0,0,0,0,0,0,0ZM7.26,7.71s0,0-.01,0c0,0,0,0,.01,0,0,0,0,0,0,0,0,0,0,0,0,0ZM7.3,14.84s0,0,0,0c0,0,0,0,0,0,0,0,0,0,0,0ZM7.31,11.04s0,0,0,0c0,0,0,0,0,0,0,0,0,0,0,0ZM7.32,11.85s0,0,0,0c0,0,0,0,0,0,0,0,0,0,0,0ZM7.45,14.56s-.09.06-.12.1c0,0,0,0,0,0,0,0,0,0,0,0,.05-.03.09-.07.13-.1,0,0,0,.01,0,.02ZM7.46,5.6s0-.02,0-.03c0,0,0,0,.01.01,0,.01,0,0,0,.02ZM7.56,9.48s0,0,0,0c0,0,0,0,0,0,0,0,0,0,0,0ZM7.48,12.06s0,0,0,0c0,0,0,0,0,0,0,0,0,0,0,0ZM7.5,5.91s-.02,0,0-.02c0,0,0,0,0,0,0,0,0,.01,0,.02ZM7.51.75s-.02-.03-.02-.05c0,0,0,0,0,0,0,0,0,0,0,0,0,.01.02.03.01.04,0,0,0,0,0,0ZM7.53,14.34s0,0,0,0c.03,0,.04-.02.05-.03-.01.02-.03.03-.05.03ZM7.6,6.03s0,0,0,0c0,0,0,0,0,0,0,0,0,0,0,0ZM7.61.97s0,0-.01.01c0-.01,0-.02-.02-.04.01,0,.02.01.03.01,0,0,0,0,0,0ZM7.62,7.82s0,0,0,0c0,0,0,0,0,0,0,0,0,0,0,0ZM7.68,5.77s-.01,0-.02,0c0,0,.02,0,.02-.02,0,0,0,0,0,0ZM7.69.44s0,0,0,0c0,0,0,0,0,0,0,0,0,0,0,0,0,0,0,0,0,0ZM7.73.61s0,0,0,0c0,0,0,0,0,0,0,0,0,0,0,0,0,0,0,0,0,0,0,0,0,0,0,0ZM7.74,11.55s0,0,0,0c0,0,0,0,0,0,0,0,0,0,0,0,0,0,0,0,0,0ZM8.03,13.59s0,0-.02,0c0,0,0,0,0,0,0,0,0,0,0,0,0,0,0,.01.01.02ZM7.97.88s0,0,0,0c-.01,0-.02,0-.02,0,0,0,0,0,0,0,0,0,.01,0,.02,0ZM7.91,10.3s0,0,0,0c-.01,0-.03,0-.05,0,0,0,0,0,0,0,.02,0,.04-.02.05,0ZM7.89,13.49s0,0-.01.01c0,0,0,0,0,0,0,0,.01-.01.02-.02ZM7.83,6.47s0-.02.01-.04c0,0,0,0,0,0-.01.01-.02.02-.02.04ZM7.84,10.31s0,0,0,0h0s0,0,0,0h0ZM7.79,14.1h0s0,0,0,0c0,0,0,0,0,0ZM7.81.5s0-.01,0-.02c0,0,0,0,0,0,0,0,0,0,.01,0,0,0,0,.01,0,.02-.01,0-.03,0-.03.01,0,0,0,0,0,0ZM7.92,14.22s-.04.03-.04.06c0-.01,0-.03,0-.04,0,0-.02,0-.02-.01,0-.02,0-.04-.02-.05h0s.04-.01.06,0c0,.01,0,.03.03.02.02,0,.02-.02.01-.04.01.02.03.04,0,.05ZM7.98.95s0,0,0,0c0-.01-.01-.02-.02-.03.01,0,.03.01.02.02ZM7.97,9.01s.04.02.06.03c0,0,0,.01-.01.02,0-.02-.03-.04-.05-.05,0,0,0,0,0,0ZM8,13.61h0s0,0-.01,0c0,0,0,0,.01,0ZM8.01,14.09s0,0,0,0c0,0,0,0,0,0,0,0,0,0,0,0ZM8.03,13.7s-.02-.03-.03-.03c.02,0,.03-.01.04-.02,0,0,0,0,0,0-.02,0-.03,0-.04.02,0,0,.02.02.03.03,0,0,0,0,0,0ZM8.03,13.79s0,0,0,0c0,0,0,0,0,0,0,0,0,0-.01,0ZM8.11,14.11s0,0,0,0c-.02-.02-.03-.02-.04,0,0,0,0,0,0,0,0,0,0,0,0,0,.01-.01.02,0,.04,0,0,0,0,0,0,0ZM8.16,1.2s0,0,0,0c0,0,0,0,0,0,0,0,0,0,0,0ZM8.16,12.23s0,0,0,0c0,0,0,0,0,0,0,0,0,0,0,0,0,0,0,0,0,0ZM8.34,6.22s0,0,0,0c0,0,0,0-.01,0,0,0,0,0,0,0ZM8.29,13.77s0-.04-.01-.06c0,0-.01.02-.02.03-.01,0-.02,0-.03,0,0,0,0,0,0,0,0,0,0,0,0,0,0,0,0,0,0,0,0,0,0-.01,0-.02,0,0,0-.02,0-.03.03,0,.06,0,.09.01,0,0,0,0,0,0,0,0,.01.01,0,.02-.01.02,0,.02.01.03,0,0,0,0,0,0,0,0,0,0,0,0-.02,0-.04,0-.06.01ZM8.37,13.83s0,0,0,0c0,0,0,0,0,0,0,0,0,0,0,0ZM8.37,9.71s0,0,0,0c0,0,0,0,0,0,0,0,0,0,0,0ZM8.39,13.79s0,0,0,0c0,0,0,0,0,0,0,0,0,0,0,0ZM8.41,13.43s0,0,0,0c0,0,0,0,0,0,0,0,0,0,0,0ZM8.5,13.59s0,0,0,0c0,0,0,0,0,0,0,0,0,0,0,0ZM8.65,1.3h0s-.02.04-.02.06c0,0,0,0,0,0-.01,0-.02,0-.03,0,.03,0,.05-.03.05-.06ZM8.56,8.09s0,0,0,0c0,0,0,0,.01,0,0,0,0,0,0,0ZM8.55,1.52s.02-.02.02-.03c0,0,0,.02,0,.02-.01,0-.02,0-.03,0ZM8.63,14.02s0,0,0,0c0,0,0,0,0,0,0,0,0,0,0,0ZM8.69,13.74s0,0,0,0c0,0,0,0,0,0,0,0,0,0,0,0,0,0,0,0,0,0ZM8.79,8.18s0,0,0,0c0,0,0,0,0,0,0,0,0,0,0,0ZM8.78,14.18s.02-.02.03-.04c0,0,0,0,0,0-.02,0-.03.02-.03.03ZM8.89,14.83s0,0,0,0c0,0,0,0,0,0,0,0,0,0,0,0ZM8.98,14.44s0,0,0,0c0,0,0,0,.01,0,0,0,0,0-.01,0ZM9.02,14.94s0,0,0,0c0,0,0,0,.01,0,0,0,0,0,0,0ZM9.04,14.94s0,0,0,0c0,0,0,0,0,0h0s0,0,0,0c0,0,0,0,0,.01ZM9.24,5.17s0,0,0,0c0,0,0,0,0,0,0,0,0,0,0,0ZM9.17,1.37s0,0,0,0c0,0,0,0,0,0,0,0,0,0,0,0ZM9.15,6.45s0,0,0,0c0,0,0,0,0,0,0,0,0,0,0,0,0,0,0,0,0,0,0,0,0,0,0,0ZM9.13,1.25s0,0,0,0c0,0,0,0,0,0,0,0,0,0,0,0ZM9.21,14.22s-.05.04-.08.03c.04,0,.08-.01.12-.04,0,.03-.03,0-.04.01ZM9.45,1.18s0,0,0,0c0,0,0,0,0,0,0,0,0,0,0,0,0,0,0,0,0,0,0,0,0,0,0,0ZM9.44,14.24s0,0,0,0c-.02.01-.03.04-.04.06,0-.03.02-.07.04-.06ZM9.4,1.09s0,0,0,0h0s0,0,0,0ZM9.39,14.32s0,0,0,0c0,0,0,0,0-.01,0,0,0,0,.01,0ZM9.32,9.74s0,0,0,0c0,0,0,0,0,0,0,0,0,0,0,0ZM9.34,10.98s0-.02-.01-.02c0,0,.01.02.02.03,0,0,0,0,0,0ZM9.37,4.35s0,0,0,0c0,0,0,0,0,0,0,0,0,0,0,0ZM9.45,14.79s-.03-.01-.04-.02c-.01,0-.02,0-.03,0,0,0,0,0,0,0,0-.01,0-.01-.02-.01,0,0,0,0,0,0,0-.02-.01-.05.01-.04.03,0,.04-.02.06-.03,0,.01,0,.03,0,.04.01.01.02.02.04.01-.01.02-.01.04-.02.05ZM9.53,14.64s-.05.02-.08.03c0,0,0,0,0,0,0,0,0,0,0,0,.01-.01.05,0,.05-.03.01,0,.02,0,.03,0,0,0,0,0,0,0ZM9.54,11.89s0,0,0,0c0,0,0-.02,0-.02,0,0,0,0,0,0,0,0,0,.01,0,.02ZM9.56,14.55h0s0,0,0,0c0,0,0,0,0,0,0,0,0,0,0,0ZM9.65,4.14s0,0,0,0c0,0,0,0,0,0,0,0,0,0,0,0ZM9.65,14.05s-.01-.01-.02-.02c0,0,.02.02.03.02,0,0,0,0,0,0ZM9.67,14.55s0,0,0,0h0s0,0,0,0ZM9.67,14.39s0,0,0,0c0,0,0,0,0,0,0,0,0,0,0,0ZM9.69,14.5s0,0,0,0c0,0,0,0,0,0,0,0,0,0-.01,0,0,0,0,0,.01,0ZM9.68,14.86s0,0,0,0c0,0,0,0,0,0,0,0,0,0,0-.01ZM9.7,3.92s0,0,0,0c0,0,0,0,0,0,0,0,0,0,0,0,0,0,0,0,0,0ZM9.71,14.24s0,0,0,0c0,0,0,.02,0,.02,0,0,0-.01-.01-.02ZM9.69,1.09s.05-.03.07-.05c0,0,0,0,0,0,0,0,0,.01-.01.02-.02,0-.04.02-.06.02ZM9.76,2.81s0,0,0-.01c0,0,0,0,0,0,0,0,0,0,0,0ZM10.07.6s0,0,0,0c0,0,0,0,0,0,0,0,0,0,0,0ZM9.96,5.29h0s0,0,0,0c0,0,0,0,0,0ZM9.97,13.96s0,0,0,0c0,0,0,0,0,0,0,0-.02,0-.03.01,0,0,.02,0,.03-.02ZM9.91,3.72s0,0,0,0c0,0,0,0,0,0,0,0,0,0,0,0ZM9.83,14.23s0,0,0,0c0,0,0,0,0,0,0,0,0,0,0,0ZM9.94,14.88s0,0,0,0h0s0,0,.01,0c0,0,0,0,0,0ZM10.07,14.56s-.02.02-.02.04c0,.04-.01.08,0,.11,0,0,0,0,0,0,0,0-.01,0-.01,0,0,0-.01,0-.02.01,0,0-.01,0-.02,0,0,0-.01,0-.02,0-.02,0-.03.02-.03.03,0,0,0,0,0,0-.01-.02-.03-.03-.06-.03,0-.02,0-.04-.01-.05,0,0,0,0,0,0,0,0,.01-.02.02-.03,0,0,0,0,0,0,0,0,0,0,0,0,.04-.04.08-.1.13-.14,0-.02,0-.03,0-.05,0,0,0-.01-.02-.02.01,0,.02,0,.03-.01,0,0,0,.02,0,.03.03,0,.05.02.05.05,0,0,.01,0,.02.01,0,.03-.03.02-.03.04ZM10.11,13.8s0,0,0,0c0,0,0,0,0,0,0,0,0,0,0,0ZM10.38,13.58s0,0,0,.01c-.01,0-.01,0-.02,0,0,0,0,0,.01,0ZM10.3,13.87s0,.01.01.02c-.01,0-.02,0-.03,0,0,0,.02-.01.02-.02ZM10.27,13.65s0,0,0,0c0,0,0,0,0-.01,0,0,0,0,.01,0ZM10.19,5.29s0,0,0,0c0,0,0,0,0,0,0,0,0,0,0,0,0,0,0,0,0,0ZM10.16,14s0,0,0,0c0,0,0,0,0,0h0s0,0,0,0ZM10.13,13.93s.02,0,.02-.01c0,0,0,0,0,0h0s-.02,0-.02.01h0ZM10.26,14.45s-.04.03-.06.04c0,0,0,0,0,0-.01-.01-.03-.02-.04-.02.02,0,.03,0,.02-.03-.01,0-.03,0-.04-.01.03-.02.05-.06.06-.09.01.04.04.04.07.04-.02,0-.03.01-.03.03,0,.01.01.02.02.03ZM10.36,14.36s-.02.02-.03.01c0,0-.01,0-.02,0,0,0,0,0,0,0,0-.02.01-.04,0-.06-.02,0-.02-.04-.05-.03,0-.03.02-.05.05-.08,0,0,0,0,.01,0,0,.01.02.02.03.03,0,0,0,0,0,0-.01,0-.02.02-.02.04,0,.02.02.02.03.03.01,0,.03,0,.03.02,0,.02-.02.03-.03.05ZM10.6,14.5s0,0,0,0c0,0,0,0,0,0,0,0,0,0,0,.01ZM10.72,14.07s0,0,0,0c0,0,0,0,0,0,0,0,0,0,0,0ZM10.72.07s0,0,0-.01c0,0,0,0,0,0,0,0,.01,0,.02,0,0,.01,0,.02,0,.02-.01,0-.02-.01-.04-.02ZM10.89,14.81s0,0,0,0c0,0,0,0,0,0,0,.02,0,.04,0,.06,0,0,.01,0,.02.01-.02,0-.03,0-.04,0,0,0,.01-.01.01-.02,0-.01-.01-.03-.02-.03.01,0,.02,0,.03-.02ZM10.9,14.7s0,0,0,0c0,0,0,0,0,0,0,0,0,0,0,0ZM11,.59s0,0,0,0c0,0,0,0,0,0,0,0,0,0,0,0ZM11.01.74s0,0,0,0c0,0,0,0,0,0,0,0,0,0,0,0,0,0,0,0,0,0ZM11.01.73s0,0,0,0c0,0,0,0,0,0,0,0,0,0,0,0ZM11.02.53s0,0,0,0c0,0,0,0,0,0,0,0,0,0,0,0ZM11.14.7s0,0,0,0c0,0,0,0,0,0,0,0,.02-.02.02-.03h0s-.02.02-.02.03ZM11.16,14.68s0,0,0,0c0,0,0,0,0,0h0s0,0,0,0ZM11.19,14.58s0,0,0,0c0,0,0,0,.01,0,0,0,0,0,0,0,0,0,0,0,0,0ZM11.22,14.69s.01,0,.02-.02c0,0,0,0,0,0,0,0,0,.02,0,.02,0,0-.02,0-.02-.01ZM11.23,14.64s0,0,0,0c0,0,0,0,0,0,0,0,0,0,0,0ZM11.24.92s0-.03-.01-.04h0s0,.03.01.04c0,0,0,0,0,0ZM11.28,1.41s0,0,0,0c0,0,0,0,0,0,0,0,0,0,0,0,0,0-.02,0-.03,0,0,0,.01,0,.03,0ZM11.26,14.6s0,0,0,0c0,0,0,0,0,0,0,0,0,0,0,0ZM11.31,14.6h0s0,0,0,0c0,0,0,0,0,0ZM11.31,14.55h0s-.01,0-.02,0c0,0-.01,0-.02-.01,0,0,0,0,0,0,0,0,0,.02.02,0,0,0,.01,0,.01,0,0,0,0,.01.01.02,0,0,0,0-.01,0ZM11.33,1.05h0s0,0,0,0h0ZM11.37,1.78s0,0,0,0c0,0,0,0,0,0,0,0,0,0,0,0ZM11.41,15.05s0,0,0,0c0,0,0,0,0,0,0,0,0,0,0,0ZM11.44,14.87s0,0,0,0c0,0,0,0,0,0,0,0,0,0,0,0,0,0,0,0,0,0,0,0,0,.01.02.01,0,0,0,0,0,0,0,0,0,0,0,0ZM11.44,1.92s0,0,0,0c0,0,0,0,0,0,0,0,0,0,0,0ZM11.46,1.17s0,0,0,0c0,0,0,0,0,0h0s0,0,0,0c0,0,0,0,0,0ZM11.5,1.3s0-.01-.01-.01c0,0,0,0,0,0,0,0,0,0,.01.01,0,0,0,0,0,0ZM11.56,1.95s0,0,0,0c0,0,0,0,0,0,0,0,0,0,0,0,0,0,0,0,0,0,0,0,0,0,0,0,0,0,0,0-.01,0ZM11.57,2.14s0-.02,0-.03c0,0,0,.01,0,.02,0,0,0,0,0,0ZM11.7,1.88s0-.01,0-.02c0,0,0,.01,0,.02,0,0,0,0,0,0ZM11.79,2.33s0,0-.01,0c0,0,0,0,0,0,0,0,0,0,0,0,0,0,0,0,0,0,0,0,0,0,0,0,0,0,0,0,0,0ZM11.85,15.3s0,0,0,0h0s0,0,0,0c0,0,0,0,0,0h0ZM11.91,15.28s0,0,0,0c0,0,0,0,0,0,0,0,0,0,0,0,0,0,0,0,0,0,0,0,0,0,0,0h0s0,0,0,0c0,0,0,0,0,0ZM11.93,1.73s0,0,0,0c0,0,0,0,0,0h0ZM11.95,1.47s0,0-.01,0h0s0,0,0,0c0,0,0,0,0,0,0,0,0-.02.01-.02,0,0,0,.02,0,.02ZM11.96,1.12s0,0,0,0c0,0,0,0,0,0,0,0,0,0,0,0ZM12,14.85s0,0,0,0c.02-.02.03-.01.04,0-.02,0-.03,0-.05.01ZM12.13,14.5s0,0,0,0c0,0,0,0,0,0,0,0,0,0,0,0ZM12.17,1.91s0,0,0,0h0s0,0,0,0ZM12.2,14.92s0,0,0,0h0s0,0,0,0h0ZM12.3,13.95s0,0,0,0c0,0,0,0,0,0,0,0,0,0,0,0ZM12.3,14.66s0,0,0,0c0,0,0,0,0,0,0,0,0,0,0,0ZM12.32,14.92s0,0,0,0c0,0,0,0,0,0,0,0,0,0,0,0ZM12.4,15.02s0,0,0,0c0,0,0,0,0,0,0,0,0,0,0,0ZM12.41,14.13s0,0,0,0c0,0,0,.01,0,.02,0,0,0,0-.01-.01,0,0,0,0,0,0ZM12.43,14.98s0,0-.01,0c0,0,.01,0,.02,0,0,0,0,0,0,0ZM12.46,14.94s0,0,0,0c0,0,0,0,0,0,0,0,0,0,0,0,0,0,0,0,0,0ZM12.51,13.97s0,0,0,0c0,0,0,0,0,0,0,0,0,0,0,0ZM12.58,1.75s0,0,0,0c0,0-.01,0-.02,0,0,0,.01,0,.02,0ZM12.64,10.06s0,0,0,0c0,0,0,0,0,0h0ZM12.6,14.39s.02-.03.04-.04c0,.01,0,.03,0,.04-.02,0-.03,0-.05,0ZM12.65,14.53s0,0,0,0h0s0,0,0,0c0,0,0,0,0,0ZM12.73,2.06s0,0,0,0c0,0,0,0,0,0,0,0,0,0,0,0ZM12.72,14.52s0,0,0,0c0,0,0,0,0,0,0,0,0,0-.01,0,0,0,0,0,.01,0,0,0,0,0,0,0ZM12.73,2.2s0-.01,0-.02c0,0,0,.02,0,.02,0,0,0,0,0,0ZM12.79,14.2s0,0,0,0c0,0,0,0,0,0,0,0,0,0,0,0ZM12.84,1.8s0,0,0,0c0,0,0,.01,0,.02,0,0,0-.01-.01-.02,0,0,0,0,0,0ZM12.81,13.88h0,0s0,0,0,0ZM12.84,14.44s0,0,0,0c0,0,0,0,0,0,0,0,0,0,0,0ZM12.84,14.2s.01,0,.02,0c0,0,0,0,0,0-.01,0-.02,0-.02,0ZM12.87,13.97s-.01-.02-.02-.03c0,0,0,0,0,0,0,.01,0,.03.02.03,0,0,0,0,0,0,0,0,0,0,0,0ZM12.99,13.75s0-.02,0-.03c.01,0,.03.01.04.01-.01,0-.02,0-.03.02ZM13.05,4.76s0,0,0,0c0,0,0,0,0,0,0,0,0,0,0,0ZM13.07,14.43s0,0,0,0c0,0,0,0,0,0,0,0,0,0,0,0ZM13.1,2.02s-.03-.03-.05-.04c0,0,0,0,0,0,0,0,0,0,0,0,0,0,0,0,0,0,0,0,0,0,0,0h0s0,0,0,0c0,.02.03.03.05.04,0,0,0,0,0,0ZM13.14,14.01s0,0,0,0c0,0,0,0,0,0,0,0,0,0,0,0ZM13.15,13.95s0,0,0,0h0s0,0,0,0ZM13.21,14.58s0,0,0,0c0,0,0,0,0,0,0,0,0,0,0,0ZM13.22,10.63s0,0,0-.01c0,0,0,0,.01.01,0,0,0,0,0,0ZM13.25,14.76s0,0,0,0c0,0,0,0,0,0,0,0,0,0,0,0,0,0,0,0,0,0ZM13.26,14.77s0,0,0,0c0,0,0,0,0,0,0,0,0,0,0,0ZM13.29,2.33s0,0,0,0c0,0,0,0,0,0,0,0,0,0,0,0,0,0,0,0,0,0ZM13.64,13.52s0,0,0,0c0,0,0,0,0,0,0,0,0,0,0,0ZM13.63,14.22s0,0,0,0c0,0,0,0,0,0,0,0,0,0,0,0ZM13.45,2.19s0,0,0,0c0,0,0,0,0,.01,0,0,0,0,0-.01ZM13.4,2.27s0,0,0,0c.02,0,.03-.02.03-.04,0,0,0,0,0,0-.01.01-.03.02-.03.04ZM13.43,2.29s.02-.01.03-.02c0,0,0,0,0,0,0,0-.02,0-.03.02,0,0,0,0,0,0ZM13.45,14.63s0,0,0,0c0,0,0,0,0,0,0,0,0,0,0,0,0,0,0,0,0,0,0,0,0,0,0,0,0,0,0,0,0,0ZM13.48,14.11s0,0,0,0c.01-.01.02-.02.01-.04,0,0,0,0,0,0,0,.01,0,.03-.01.04ZM13.5,14.18s0-.02,0-.02c0,0,0,.02,0,.02h0ZM13.51,13.7s.03,0,.04,0h0s0,0,0,0c-.01,0-.03,0-.04,0ZM13.55,14.77s0-.02,0-.03c0,0,0,0,0,0,0,0,0,0,.01,0,0,0,0,0,0-.01,0,0,0,0,0,.01.03.02.05,0,.05-.03,0,0,0,0,0,0,0,0,0,0,0,0,.03.04.03.09.03.14-.02-.03-.07-.04-.09-.07ZM13.69,14.93s0,.03-.02.03c-.02,0-.03,0-.04.02.01-.02.02-.05.03-.07,0,0,0,0,.02.01.01,0,.03,0,.02.02ZM13.78,13.84s0,0,0,0c0,0,0,0,0,0,0,0,0,0,0,0,0,0,0,0,0,0ZM13.84,13.22s0,0,0,0c0,0,0,0,0,0,0,0,0,0,0,0ZM13.88,13.72s0,0,0,0c0,0,0,0,0,0,0,0,0,0,0,0,0,0,0,0,0,0ZM13.91,14.51s0,0,0,0c0,0,0,0,0,0,0,0,0,0,0,0ZM13.93,9.54s0,0,0,0c0,0,0,0,0,0,0,0,0,0,0,0ZM14,13.88s0,0,0,0h.01s0,0,0,0c0,0,0,0-.01,0ZM14.02,2.04s.01.02.03.01c0,0,0,0,0,0-.01,0-.02,0-.03-.01,0,0,0,0,0,0ZM14.05,14.24s0,0,0,0c0,0,0,0,0,0,0,0,0,0,0,0,0,0,0,0,0,0h0ZM14.15,14.37h0s0,0,0,0c0,0,0,0,0,0,0,0,0,0,0,0ZM14.13,10.13s0,0,0,0c0,0,0,0,0,0,0,0,0,0,0,0ZM14.15,13.43s0,0,0,0c0,0,0,0,0,0,0,0,0,0,0,0ZM14.18,8.86s0,0,0,0c0,0,0,0,0,0,0,0,0,0,0,0ZM14.26,10.3s0,0,0,0c0,0,0,0,0,0,0,0,0,0,0,0ZM14.29,9.74s0,0,0,0c0,0,0,0,0,0,0,0,0,0,0,0ZM14.38,2.01h0s0,0,0,0c0,0,0,0,0,0ZM14.32,3.62s0,0,0,0c0,0,0,0,0,0,0,0,0,.01,0,.01,0,0,0,0,0,0,0,0,0,0,0,0ZM14.29,5.32s0,0,0,0c0,0,0,0,0,0,0,0,0,0,0,0ZM14.33,13.24s0,0,0,0c0,0,0,0,0,0h0ZM14.32,13.95s0,0,0,0c0,0,0,0,0,0,0,0,0,0,0,0ZM14.35,14.04s-.02-.01-.02-.02c0,0,.02.01.02.02,0,0,0,0,0,0ZM14.44,9.59s0,0,0,0c0,0,0,0,0,0,0,0,0,0,0,0ZM14.46,3.07s0,0,0,0c0,0,0,.02,0,.03,0,0,0-.01,0-.02ZM14.46,3.18s0,0,0,0c0,0,0,0,0,0,0,0,0,0,0,0,0,0,0,0,0,0,0,0,0,0,0,0ZM14.47,13.92s0,0,0,0c0,0,0,0,0,0,0,0,0,0,0,0,0,0,0,0,0,0ZM14.49,13.19s0,0,0-.01c0,0,0,0,0,0,0,0,0,0,0,0ZM14.73,14.28s0,0,0,0c0,0,0,0-.01,0,0,0,0,0,.01,0ZM14.64,14.26h0s0,0,0,0h0ZM14.64,8.48s0,0,0,0c0,0,0,0,0,0,0,0,0,0,0,0ZM14.73,3.52s0,0,0,0c0,0,0,0,0,0,0,0,0,0,0,0ZM14.72,3.49s0,0,0,0c0,0,0,.02,0,.02,0,0,0-.02-.01-.03,0,0,0,0,0,0,0,0,0,0,0,0ZM14.72,3.7s0,0,0,0c0,0,0,0,0,0,0,0,0,0,0,0,0,0,0,0,0-.01,0,0,0,0,0,0ZM14.69,9.67s0,0,0,0c0,0,0,0,0,0,0,0,0,0,0,0,0,0,0,0,0,0ZM14.66,10.6s0,0,0,0c0,0,0,0,0,0h0ZM14.75,13.55s-.06.03-.09,0c0,0,0,0,0,0,.06,0,.11,0,.17-.01-.03,0-.05,0-.08.01ZM14.9,3.76s0,0,0,0c0,0,0,0,0,0,0,0,0,0,0,0ZM14.91,3.31s0,0,0,0c0,0,0,0,0,0,0,0,0,0,0,0ZM14.94,3.45h0s0,0,0,0c0,0,0,0,0,0,0,0,0,0,0,0ZM14.98,13.84s0,0,0,0c0,0,0,0,0,0,0,0,0,0,0,0ZM15.04,3.55s0,0,0,0c0,0,0,0,0,0,0,0,0,0,0,0ZM15.12,13.56s0,0-.01,0c0,0,0,0,.01,0h0ZM15.19,13.76s-.03-.04-.05-.05c.02,0,.04.02.05.05,0,0,0,0,0,0ZM15.77,13.85s0,0,0,0c0,0,0,0,0,0,0,0,0,0,0,0ZM15.61,13.97s0,0,0,0h0s0,0,0,0ZM15.5,13.42s-.01.02-.01.03c0,0,0,0,0,0,0,0,.01-.01.01-.02ZM15.46,8.42s0,0,0,0c0,0,0,0,0,0,0,0,0,0,0,0ZM15.43,13.24s0,0,0,0c0,0,0,0,0,0,0,0,0,0,0,0ZM15.28,13.75s0,0-.01.02c0,0,0-.02.01-.02,0,0,0,0,0,0ZM15.29,13.26s0,0,0,0h0s0,0,0,0ZM15.3,13.72s0,0,0,0c0,0,0,0,0,0,0,0,0,0,0,0,0,0,0,0,0,0ZM15.32,13.83s0-.02-.02-.02c.01,0,.03,0,.03.01,0,0,0,0-.02.01ZM15.35,10.3s0,0,0,0c0,0,0,0,0,0,0,0,0,0,0,0,0,0,0,0,0,0,0,0,0,0,0,0ZM15.42,13.72s-.02-.02-.02-.03c.01,0,.02.01.04.02,0,0,0,0-.01,0ZM15.72,13.01s0,0,0,0c0,0,0,0,0,0,0,0,0,0,0,0ZM15.76,13.15s0,0,0,0c0,0,0,0,0,0,0,0,0,0,0,0,0,0,0,0,0,0ZM15.81,8.34s0,0,0,0c0,0,0,0,0,0,0,0,0,0,0,0ZM15.84,5.72s0,0,0,0c0,0,0,0,0,0,0,0,0,0,0,0ZM15.87,12.67s0,0-.01,0c0,0,.01,0,.02,0,0,0,0,0,0,.01ZM15.92,5.71s0,0,0,0c0,0,0,0,0,0,0,0,0,0,0,0ZM15.9,3.32s0,0,0,0c0,0,.01,0,.02-.01,0,0-.01,0-.02.02ZM15.95,7.28s0,0,0,0c0,0,0,0,0,0,0,0,0,0,0,0,0,0,0,0,0,0,0,0,0,0,0,0ZM15.97,13.07h0s0,0,0,0c0,0,0,0,0,0,0,0,0,0,0,0ZM15.99,12.69s0,0,0,0c0,0,0,0,0,0,0,0,0,0,0,0ZM16.11,3.28s0,0,0,0c0,0,0,0,0,0,0,0,0,0,0,0,0,0,0,0,0,0,0,0,0,0,0,0ZM16.18,12.65h0s0,0,0,0c0,0,0,0,0,0,0,0,0,0,0,0,0,0,0,0,0,0h0ZM16.19,12.93s0,0,0,0c0,0,0,0,0,0,0,0,0,0,0,0,0,0,0,0,0,0ZM16.2,12.02s0,0,0,0c0,0,0,0,0,0,0,0,0,0,0,0,0,0,0,0,0,0ZM16.28,3.07s0,0,0,0c0,0,0,0,0,0,0,0,0,0,0,0ZM16.33,2.93h0s0,0,0,0c0,0,0,0,0,0ZM16.31,12.79s0,0,0,0c0,0,.02,0,.02,0,0,0-.01,0-.02,0ZM16.36,12.67s0,0,0,0c0,0,0,0,0,0h0s0,0,0,0c0,0,0,0,0,0ZM16.36,3.04s0,0,0,0c0,0,0,0,0,0,0,0,0,0,0,0ZM16.39,3.06s0,0,0,0c0,0,0-.02.01-.02,0,0,0,0,0,0,0,0-.02.01-.01.02ZM16.43,12.75s0,0,0,0c0,0,0,0,.01,0,0,0,0,0,0,0ZM16.44,3.17s0,0,0,0c0,0,0,0,0,0,0,0,0,0,0,0,0,0,0,0,0,0ZM16.45,4.41s0,0,0,0c0,0,0,0,0,0,0,0,0,0,0,0,0,0,0,0,0,0,0,0,0,0,0,0ZM16.47,2.97s0,0,0,0c0,0,0,0,0,0,0,0,0,0,0,0,0,0,0,0,0,0ZM16.5,4.15s0,0,0,0c0,0,0,0,0,0h0s0,0,0,0c0,0,0,0,0,0ZM16.54,2.91s0,.02,0,.03c0,0,0,0,0,0,0,0,0-.02,0-.03,0,0,0,0,0,0ZM16.54,2.85s0,0,0,0c0,0,0,0,0,0,0,0,0,0,0,0,0,0,0,0,0,0,0,0,0,0,0,0ZM16.58,12.13s0,0,0,0c0,0,0,0,0,0,0,0,0,0,0,0ZM16.59,3.15s0,0,0,0c0,0,0,0,0,0,0,0,0,0,0,0ZM16.66,2.8s0,.03-.02.03c-.01,0,0,0-.01,0,.02-.01.03-.03.03-.04ZM16.73,3.42s0,0,0,0c0,0,0,0,0,0,0,0,0,0,0,0ZM16.73,4.03s0,0,0,0h0s0,0,0,0c0,0,0,0,0,0ZM16.72,13.08s0,0,0,0c0,0,0,0,0,0h0s0,0,0,0ZM16.75,3.53s0,0,0,0h0s0,0,0,0c0,0,0,0,0,0ZM16.79,4.02s0,0,0,0c0,0,0,0,0,0,0,0,0,0,0,0ZM16.76,3.42s0,0,0,0c0,0,0,0,0,0,0,0,0,0,0,0ZM16.76,2.75s0,.01,0,.02c0,0,0,0,0,0,0,0,0-.01,0-.02ZM16.75,3.67s0,0,.01,0h0s0,0,0,0c0,0,0,0,0,0,0,0,0,0,0,0ZM16.81,9.08s0,0,0,0c0,0,0,0,0,0,0,0,0,0,0,0,0,0,0,0,0,0ZM16.8,11.91s0,0,0,0c0,0,0,0,0,0,0,0,0,0,0,0,0,0,0,0,0,0,0,0,0,0,0,0,0,0,0,0,0,0,0,0,0,0,0,0,0,0,0,0,0,0ZM16.79,12.42s0,0,0,0c.02,0,.03,0,.04,0-.02,0-.03,0-.04,0ZM16.83,4.1s0,0,0,0c.01,0,.01,0,.01-.01,0,0,0,0-.01.01ZM17.7,13.41s0,0,0,0c0,0,0,0,0,0,0,0,0,0,0,0ZM17.69,13.42s0,0,0,0c0,0,0,0,0,0,0,0,0,0,0,0ZM17.31,13.06s0,0,0,0c0,0,0,0,0,0,0,0,0,0,0,0,0,0,0,0,0,0ZM17.16,12.95s0,0,0,0c0,0,0,0,0,.01h0s-.01,0,0-.02h0ZM17.53,12.45s0-.02-.02-.01c0,0,0,0,0,0,0,0,0,0,0,0,0-.01-.02-.02-.03-.03.03,0,.07-.02.05.04ZM17.17,12.28s0,0,0,0c0,0,0,0,0,0,0,0,0,0,0,0ZM16.9,12.7s0,0,0,0c.01,0,.03-.01.03.02.02,0,.03-.02.05-.03,0,.04.03.07.01.1,0,0,0,0,0,0,0,0-.01,0-.02,0,0,0,0,0,0,0,0-.02,0-.03-.02-.04,0,0,0,0-.01,0,0,0,0-.02-.01-.02h-.04s0-.01,0-.02c0,0,0,0,0,0,0,0,0,0,0,0ZM16.99,7.63s0,0,0,.01c0,0,0,0,0-.01,0,0,0,0,0,0ZM17.17,4.42s0,0,0,0c0,0,0,0,0,0,0,0,0,0,0,0ZM17.22,4.15s0,0,0,0c0,0,0,0,0,0,0,0,0,0,0-.01,0,0,0,0,0,.01ZM17.24,11.93s0-.02,0-.02c0,0,0,0,0,.01,0,0,0,0-.01.01ZM17.4,7.29s0,0,0,0c.02.01.04.01.04,0,0,0,0,.01.01.02-.03-.01-.04-.02-.05-.02ZM17.49,7.56s0,0,0,0c0,0,0,0,0,0,0,0,0,0,0,0,0,0,0,0,0,0ZM17.62,11.69h0s0,.02,0,.04c0-.01,0-.02,0-.04ZM17.75,8.31s0,0,0,0c0,0,0,0,0,0,0,0,0,0,0,0,0,0,0,0,0,0,0,0,0,0,0,0ZM17.85,8.38s0,0,0,0c0,0,0,0,0,0,0,0,0,0,0,0ZM17.94,11.74s0,0,0,0c0,0,0,.01,0,.02,0,0,0-.01-.01-.02ZM17.98,11.56s-.05.02-.07.03c.02,0,.03-.02.05-.02,0,0,0,0,0,0,.01,0,.02,0,.03-.01,0,0,0,0-.01,0ZM18.13,9.53s0,.02,0,.03c0,0,0,0,0,0,0,0,0,0,0,0,0,0,0,0,0,0,0,0,0-.01,0-.02,0,0,0,0,0,0ZM18.12,11.73s0,0,0,0c0,0,0,0,0,0,0,0,0,0,0,0,0,0,0,0,0,0ZM18.04,9.57s0,.01,0,.01c0,0,0,0,0,0,0,0,0,0,0-.01ZM18.04,11.77s0,0,0,0c0-.01,0-.03,0-.04,0,0,0-.01,0-.02,0,0,0,0,.01,0,0,0,0,0,.01,0,0,0,0,.01.01.01,0,.01-.02.03-.03.04ZM18.09,9.57s0,0,0,0c0,0,0,0,0,0,0,0,0,0,0,0ZM18.07,9.37s0,0,0-.01c0-.01.01-.02.02-.03,0,0,0,.01,0,.02-.02,0-.02.01-.03.03ZM18.12,11.83s0,0,0,0c0,0,0,0,0,0,0,0,0,0,0,0,0,.01.02.02.03.03-.01,0-.02-.02-.03-.02ZM18.16,9.76s0,0,0,0h.01s0-.01,0-.01c0,0-.01,0-.01.01ZM18.49,10.22s0,0,0,0h0s0,0,0,0h0ZM18.37,10.07s0,0,0,0c-.01-.03-.03-.06-.05-.08.01.03.01.07.05.08ZM18.26,8.81s0,0,0,0c0,0,0,0,0,0,0,0,0,0,0,0ZM18.24,9.05s0,0,0,0c0,0,0,0,.01,0,0,0-.01,0-.02,0,0,0,0,0,0,0,0,0,0,0,0,0ZM18.26,9.69s-.03.06-.01.09c0,0,0,0,0,0,0-.02,0-.04-.02-.04,0,0,0,0,0,0,0-.01,0-.02.01-.04,0,0,0,0,0,0,0,0,.02,0,.02,0ZM18.22,9.29s0,0,0,0c.02,0,.02-.02.02-.04,0,0,0,0,0,0,0,.02-.01.03-.02.04ZM18.27,9.2s-.02,0-.03.02c0,0,0,0,0,0,0,0-.02-.01-.03-.02.02,0,.04,0,.06,0,0,0,0,0,0,0ZM18.32,9.05s0,0,0,0c0,0,0,0,0,0,0,0,0,0,0,0ZM18.36,8.97s0,0,0,0c0,0,0,0,0,0,0,0,0,0,0,0ZM18.36,9.16s-.01-.01-.03-.01c0,0,0,0,0,0,0,0,.02,0,.03.01,0,0,0,0,0,0ZM18.39,9.09s0,0,0,0c0,0,0,0,0,0,0,0,0,0,0,0,0,0,0,0,0,0,0,0,0,0,0,0ZM18.42,9.23s0,0,0,0c0,0,0,0,0,0,0,0,0,0,0,0ZM18.49,9.1s-.02.02-.03.04c0-.02.02-.05.02-.08,0,0,0,0,0,0,0,0,0,0,.01,0,0,.01-.01.03,0,.04ZM18.55,9.03h0s0,0-.01,0c0,0,0,0,0,0,0,0,0,0,0,0,0,0,0,0,0,0,0,0,0,0,0,0ZM18.57,9.02s0,0,0,0c0,0,.01,0,.02,0,0,0,0,0,0,0,0,0-.01,0-.02,0ZM18.64,9.03s0-.01,0-.02c0,0,0,0,0,0,0,0,.01,0,.02,0,0,0,0,.01,0,.02,0,0-.02,0-.03,0ZM18.84,8.42h0s0,0,0,0c0,0,0,0,0,0ZM18.98,8.85s-.03,0-.05,0c.02,0,.04,0,.06,0,0,0,0,0-.01,0ZM19.13,8.52s0,0,0,0h0s0,0,0,0c0,0,0,0,0,0,0,0,0,0,0,0ZM19.14,8.84s0,0,0,0c0,0,0,0,0,0,0,0,0,0,0,0ZM19.14,8.76s0,0,0,0c0,0,0,0,0,0,0,0,0,0,0,0ZM19.15,8.43s0-.03,0-.04c0,0,0,0,0,0,0,.02,0,.03,0,.04h-.01ZM19.17,8.84s0,0,0,0c0,0,0,0,.01,0,0,0,0,0-.01,0ZM19.32,8.94s0,0,0,0c0,0,0,0,0,0,0,0,0,0,0,0,0,0,0,0,0,0ZM19.32,8.43s0,0,0,0c0,0,0,0,0,0,0,0,0,0,0,0ZM19.36,8.37s0,0,0,0c0-.01,0-.03-.01-.04,0,0,0,0,0,0,0,.02,0,.03.01.04,0,0,0,0,0,0ZM19.35,7.79s0,0,0,0c0,0,0,0,0,0,0,0,0,0,0,0ZM19.44,8.81s0,0,0,0c0,0,0,0,0,0,0,0,0,0,0,0ZM19.49,7.84s0,0,0,0c0,0,0,0,0,0,0,0,0,0,0,0ZM19.53,7.87s0,0,0,0c0,0,0,0,0,0,0,0,0,0,0,0ZM19.6,9.02h-.02s0,0,0,0c0,0,.01,0,.02,0,0,0,0,0,0,0,0,0,0,0,0,0,0,0,0,0,0,0ZM19.88,8.53h0s0,0,0,0c0,0,0,0,0,0,0,0,0,0,0,0ZM19.86,8.53s0,0,0,0c0,0-.01,0-.01.01,0,0,0,0,0,0,0,0,0,0,.01-.01ZM19.76,9.13s0,0,0,0c0,0,0,0,0,0,0,0,0,0,0,0Z"/>
</svg>