<?xml version="1.0" encoding="UTF-8"?>
<svg id="Layer_1" data-name="Layer 1" xmlns="http://www.w3.org/2000/svg" viewBox="0 0 1920 1080">
  <defs>
    <style>
      .cls-1 {
        fill: #000;
        stroke-width: 0px;
      }
    </style>
    <filter id="mask-frame-blur" x="-20" y="-20" width="1960" height="1120" filterUnits="userSpaceOnUse" color-interpolation-filters="sRGB">
      <feGaussianBlur stdDeviation="5"/>
    </filter>
  </defs>
  <path class="cls-1" filter="url(#mask-frame-blur)" d="M592.45,48.31c.46-.15.93-.25,1.42-.29,5.56-2.03,5.86,4.81,10.41,4.5l-.16.21c1.07.75,1.02,1.87,1.36,2.85.78,1.12,2.1.88,3.32.9,6.29-1.84,12.79-.29,19.13-.93,3.19.35,5.26-2.72,5.34-3.53.31-3.79,3.1-4.14,6.18-4.02,5.77.22,11.18-2.45,17.02-1.36.72.83,2.01,1.35,2.01,2.58.16,1.09,1.07.88,1.94.77,1.02-.24,2.02-.43,3.04-.62,1.88-.35,3.68-.91,5.58-1.17,2.06-.28,4.12-.31,6.19-.35,4.67.14,9.28-.11,13.81-1.15,2.45-.28,4.96-.24,7.34-.94,1.2-.29,2.42-.47,3.65-.61,2.07-.15,4.07-.61,6.07-1.07,3.79-.69,7.65-.42,11.49-.66,1.72-.03,3.43-.11,5.11.35,3.86-.34,7.73-.63,11.59-1.04,1.85-.19,5.27.28,2.23-2.82.6-.43,1.14-1.13,1.81-1.24,13.53-2.31,27.17-4.07,40.88-5.33,2.64-.24,5.23,1.72,8.1.75,7.12,3.54,14.35.31,21.52.21,9.32-.13,18.65-.75,27.62,2.19.49.2,1.17.69,1.43.56,9.43-4.6,19.83-3.55,29.89-3.25,5.23.16,10.08.23,15.2-.97,5.02-1.17,10.4-1.27,15.61-1.84,3.27-1.47,7.07.33,10.35-1.19,4.96-.07,9.93-.14,14.89-.21,2.59-1.34,5.64.03,8.27-1.05,3.42.03,6.85.25,10.22-.46,7.18-1.15,14.43-.28,21.64-.51,10.1,1.71,20.45.63,30.57,2.01,7.23,1.05,14.48.41,21.68-.11,7.62-.55,14.89-1.04,22.71.71,5.42,1.22,12.03-.47,18.15-.28,11.31.34,22.46-1.81,33.85-1.56,6.54.14,13.12,2.55,19.81.13,1.73-.62,3.6,1.02,5.02,2.18,5.55,4.57,10.65,9.55,17.23,13.18,2.17,1.2,2.73,3.95.91,4.89-3.39,1.77-4.58,4.92-7.41,6.82-1.09.73-2.55,1.25-2.95,2.36-.92,2.65-5.32,5-3.35,7.44,2.22,2.76,6.21.47,9.17-.54,2.23-.75,4.32-.7,6.54-.67,1.67.03,3.6.41,4.98-.16,9.98-4.12,21.27-2.8,31.54-5.68,4.47-1.26,9.14-2.03,13.7-3.02,2.37-.72,4.97-.11,7.33-.93.72-.15,1.46-.23,2.19-.25,2.23-.08,4.47.02,6.69-.26,1.45-.09,2.9-.03,4.35-.03,1.06.05,2.11.17,3.17.14,3.05-.03,5.87-.69,8.39-2.19.19-.37.38-.73.57-1.1-.23.35-.45.71-.67,1.06,8.04.24,16.11.8,23.88-1.71,1.54-2.58,5.92-1.45,7.39-4.09.28-.57.78-.94,1.45-1.15,1.72-.29,2.12-1.07,1.17-2.34.68-.89,1.71-.95,2.86-1.1,12.6-1.58,24.91-4.6,37.65-5.56,16.85-1.27,33.31-5.41,50.37-5.1,8.38.16,16.35-.89,24.6-2.49,6.57-1.29,13.64-3.64,20.8-2.64.75,5.63-4.77,8.99-5.19,14.16,5.55.68,10.95,1.19,16.4-.26,2.95-.79,5.86-1.43,8.96-.17,3.11,1.27,5.93-1.02,8.96-.9,9.57.39,19.02.11,28.49,3.06,5.63,1.75,12.33,2.1,18.62,2.7,1.86.17,3.73.37,5.54.56-.19.95-.19,1.73-.37,1.76-9.17,1.63-17.76,4.66-27.95,2.21-7.24-1.75-15.24-2.89-23.12-2.85-2.74.01-5.54-.55-8.37,1.24,1.31,2.88,4.06,2.53,6.67,2.25,2.84-.3,4.51-.1,4.97,3.06.42,2.97,3.49,1.81,4.92.56,2.82-2.45,4.54-2.54,7.26.33,2.99,3.14,8.04,2.93,12.32,3.56,13.11,1.9,26.26,3.54,39.41,5.26,1.91.25,4,.17,4.85,2.14.24,1.4-.2,2.15-2.05,1.51-16.98-1.38-34.11,1.02-51.06-1.63-3.24-.51-6.71,0-10.05.18-2.62.15-3.07,1.75-2.75,3.59.31,1.8,1.74,2.12,3.67,2.03,2.26-.11,3.82-2.07,6.17-1.65,2.14,1.62-1.5,2.8-.42,4.13,1.04,1.27,3.02.99,4.59,1.39,4.42,1.09,9.55.08,13.28,3.22.74,1.23,4.29-.02,3.31,2.72-12.86,1.96-25.75,3.84-38.59,5.92-6.03.97-11.86,2.59-18.28,5.07,5.55,2.31,9.95,5.25,15.7,6.31,11.71,2.15,22.81,6,33.85,9.89,4.34,1.53,8.4,3.7,11.03,7.27-1.07,1.19-2.6,1.39-4.21,1.41-.76-.03-1.51-.15-2.24-.35-.68-.23-1.32-.54-1.92-.9-.3-.16-.6-.33-.9-.48-.59-.31-1.17-.64-1.72-.98-.63-.23-1.24-.49-1.85-.75-1.53-.71-3.2-.87-4.9-.93-1.53-.19-2.75-.95-3.95-1.52.11.06-.16.11-.12.14.68.23,1.18.62,1.79.92.8.39,1.65.57,2.53.69.6.1,1.18.25,1.73.45.82.31,1.61.67,2.41,1,.54.19,1.07.43,1.57.67.79.35,1.58.7,2.4,1.01.6.2,1.14.45,1.68.73.9.39,1.81.75,2.64,1.25,1.14.83,2.22,1.67,1.64,3.14-1.2,1.37-2.71.78-4.17.51-5.72-.61-10.16-4.32-15.95-4.74-1.49-.72-3.12.17-4.62-.29.18,1.51,2.17,2.11,2.5,3.55,1.92,2.77,4.69,4.38,8.32,5.48,10.51,3.2,21.19,5.92,31.52,9.63,15.5,5.56,28.24,13.98,39.19,24.64.75.73,1.46,1.32,1.64,2.33.97,5.27,4.3,8.43,10.7,9.52,3.64.61,6.53,2.73,7.87,5.89,2.8,6.67.47,10.35-7.8,11.97-3.24.63-6.65.67-9.94,1.19-3.81.6-5.26,3.1-2.48,4.84,5.36,3.35,5.08,8.05,5.74,12.61.46,3.21,1.72,6.06,4.49,8.23,4.38,3.42,5.56,7.24,3.92,12.21-1.32,3.99.05,4.93,5.28,3.74,2.71-.61,3.24-.03,4.09,1.9,3.76,8.54,13.8,14.24,24.19,14.48,6.96.16,13.78,1.65,20.84,1.53,5.26-.09,9.8-.88,14.06-3.69,4.47-2.96,4.46-2.62,8.54,1.67,3,3.16,5.99,6.96,12.8,4.7-.58,3.74.29,6.39,3.28,9.13,4.31,3.94,7.41,8.84,6.85,14.83-.42,4.42,3.15,7.84,5.22,11.59.83,1.49,2.16,2.78,3.27,4.15,3.47,4.3,2.95,8.29-.75,12.42-5.53,6.17-4,9.37,5.18,9.63,13.49.38,26.36,2.77,39.04,6.48,3.1.91,6.61.93,9.95,1.07,11.16.47,22.34.73,33.5,1.24,4.76.22,9.39.51,14.13-.7,4.58-1.17,7.44.22,8.76,4.34.94,2.97,2.85,4.94,5.26,7.03,5.16,4.48,5.66,10.65,7.21,16.35,2.01,7.44,1.75,15.38,7.73,21.87,2.17,2.36.2,4.4-2.02,6.14-9.46,7.37-9.57,7.57,1.45,13.04,4.54,2.25,4.58,4.65,2.88,8.26-1.67,3.54-3.25,7.33,2.59,9.69,1.61.65,1.65,2.41,1.66,3.86.02,1.19-.29,2.38-.22,3.56.59,10.12,2.69,19.89,10.8,27.82,1.62,1.58,1.07,3.03,1.24,4.58.5,4.72-1.1,9.51.72,14.2,2.14,5.53,2.41,5.78,9.35,5.88,1.12.02,2.24-.08,3.36-.12,3.2-1.62,7.01.33,10.22-1.27,1.51-.13,3.02-.25,4.52-.38,1.69-.33,3.59-1.03,3.78,1.46l-.71.31-.8-.03c-1.44,1.21-3.68.11-5.14,1.29-3.05,2.17-6.19,3.78-10.54,3.01-4.59-.81-8.53,1.73-12.86,2.41-1.78.28-2.95,1.58-2.6,3.15.44,2.03,2.41,1.44,4,1.22,2.73-.39,5.46-.85,8.19-1.28,2.59-.13,5.81-2.25,7.11,1.65-4.6,1.69-9.37,3.12-13.76,5.16-4.87,2.26-5.27,3.7-2.64,7.89,2.98,4.73.96,9.18-.5,13.68-.36,1.11-1.46,2.03-1.99,3.12-1.99,4.02.57,7,5.65,7.49,12.27,1.18,24.5-.78,36.75-.03.98,1.79,5.33-1.03,4.94,2.62-14.18,2.14-28.36,4.27-42.54,6.43-4.08.63-8.19,1.22-12.21,2.08-2.47.53-4.88,1.49-3.78,4.42.52.91,2.52,1.33,1.23,2.82-1.5.27-3.16,1.07-1.65,2.2,2.26,1.69,5.06,2.84,8.27,3.2,6.14.67,12.17.79,18.36-.11,9.63-1.41,19.35-2.99,29.07-3.19,18.71-.39,37.31-3.13,57.36-1.97-6.35,6.28-14.11,8.21-22.16,9.21-17.14,2.15-34.37,3.79-51.1,7.92-3.38.83-6.37,1.63-7.91,4.62-.94,1.81-2.79,3.08-4.82,3.86-8.22,3.14-15.2,8.79-24.91,9-1.69.03-3.26.6-3.7,2.78,2.87,1.61,6.1,1.27,9.35.91,10.5-1.17,20.97-2.56,31.51-3.4,8.65-.7,17.24-.03,27.17,3.42-9.73,3.56-18.13-.97-26.28.83-.71,2.06,4.4,2.13,2.27,5.08-1.07,1.47,1.89,2.02,3.32,2.38,6.4,1.64,12.94,2.81,18.78,5.88,2.4,1.27,5.55.8,8.23.16,3.11-.75,6.1-.81,9.06.13,5.3,1.68,10.77,2.35,16.38,2.74,5.31.38,5.29.6,3.86,5.58,8.78,1.53,16.79-3.24,25.61-2.51q-3.13,5.99,1.6,7.59c1.34.47,3.04.74,1.93,2.56-7.61,1.36-15.45,1.31-23.04,3.04-12.34,2.8-24.37,6.19-35.59,11.47-.58.48-1.21.87-2.02,1.01.24.69,1.03.51,1.57.7,1.22.43,2.66.23,3.78.96,4.47.97,8.96,1.94,13.43,2.92.57.4.74.9.5,1.5-.52.39-1.13.6-1.83.64-1.28.09-2.7-.21-3.72.8-1.13.46-2.25.92-3.38,1.38-1.28.95-1.39,1.87.08,2.77,2.58.8,5.16,1.6,7.76,2.4-.73,2.76-3.2,2.14-4.73,1.97-5.74-.63-11.04,1.47-16.63,1.62-1.07.03-2.49.28-3.1.89-3.48,3.5-8.39,3.27-12.99,3.89-13.53,1.81-27.11,3.38-40.56,5.54-17.96,2.89-36.22,2.29-54.28,3.88-2.78.25-5.59.31-8.38.54-1.64.14-2.22,1.21-2.55,2.5.87,1.7,2.77,1.05,4.2,1.13,21.77,1.21,43.58,2.21,65.38,1.29,15.01-.64,30.06-1.09,44.85-4.36,8.86-1.95,18.28-2.09,27.45-2.93,7.23-.66,14.42-1.3,21.62-2.33,9.79-1.4,19.21,1.91,28.9,3.54-14.71,4.55-30.55,4.15-46.33,7.83,5.63,4.78,12.23,6.06,18.85,7.15,4.11.68,8.32.95,12.48,1.41,1.05,1.61-.75,2.02-1.64,2.82-2.58,3.66-6.22,5.68-11.35,5.94-2.78.14-5.21,1.43-7.68,2.6-3.35,1.58-6.81,3.18-10.92,2.84-2.04-.17-3.84.45-5.35,1.62-7.13,5.54-16.29,6.65-25.18,8.26-8.92,1.61-18.2,1.73-26.82,4.64-1.27,3.19,1.86,1.89,3.08,1.98,6.23.44,12.54-.59,18.73.65,2.98.19,2.82.02,6.47-2.37,1.62-1.06,4.18-2.43,6.12-.79,2.15,1.81,4.9,2.2,7.36,3.22,4.76,1.96,7.97,3.82,7.47,9.52-.41,4.65,1.68,9.58,1.1,14.56q-4.73-2.31-14.35,1.42c.02,4.12,6.31,5.54,5.87,9.92-2.31,1.67-4.02-.15-5.93-.79-5.89-1.99-11.77-3.19-17.49.37-1.21.75-2.51,1.01-3.93.87-3.82-.39-4.95,1.25-4.74,4.22.08,1.21.76,3.1-2.01,2.98-1.51-.07-3.55-1.2-3.82,1.09-.17,1.47,1.18,2.62,2.65,3.4,5.22,2.74,10.52,5.38,15.69,8.21,4.07,2.23,4,2.32,5.89,7.58-4.72-.09-9.17.98-13.93-.11-4.2-.97-5.91.54-6.51,4.38-.35,2.24,1.21,5.24-1.61,6.48-1.99.89-4.94.09-7.43.29-11.61.91-23.24,1.33-34.84,2.88-9.55,1.28-19.44,1.52-29.19,1.91-8.34.33-16.63,1.51-25.07.77-4.64-.4-5.81.91-4.15,4.68,2.04,4.66,3.57,9.43,5.32,14.16,1.12,1.63-1.07,2.18-1.5,3.32.16,5.22-.86,9.66-6.97,12.72-3.61,1.81-5.4,5.61-4.74,9.35,1.48,8.38.82,16.92,3.85,25.24,1.85,5.08,4.69,7.81,10.74,8.4,2.49.24,4.94.78,7.4,1.23,2,.37,2.63,1.77,2.73,3.21.11,1.67-1.75,1.48-2.99,1.78-1.35.33-2.93.33-4,.97-2.49,1.49-5.27,2.96-6.95,5.02-1.94,2.38,1.13,4.36,2.29,6.4,1.16,2.05,2.11,4.2.37,6.05-2.62,2.78-1.89,6.07-2.86,9.01-2.23,6.7,2.25,9.64,7.4,12.7,1.78,1.06,4.53,1.66,4.06,4.01-.45,2.27-2.68,3.18-5.23,4.04-4.72,1.59-9.79,2.84-12.49,7.26-2.05,3.36-6.16,2.68-9.75,2.66-2.8-.03-5.74-.55-6.21,3.02-.17,1.34-1.76,1.73-3.06,2.16-3.82,1.27-6.31,3.72-8.64,6.5-4.47,5.31-4.69,5.4-.44,10.48,1.01,1.21,2.32,2.15,1.49,3.71-2.55,4.72,1.14,7.04,4.87,9.34,6.71,4.11,13.44,8.18,20.02,12.17-9.28,0-18.58.11-27.88-.05-4.32-.07-8.38-.17-11.09,3.45-1.26,1.69-3.17,2.66-5.69,2.4-2.99-.3-4.72,2.02-6.66,2.64-5.48,1.75-8.61,6.77-15.36,6.82-6.32.05-7.13,2.07-3.7,6.43,1.18,1.5,2.66,2.75-.55,3.7-1.77.53-2.38,1.95-2.92,3.3-1.05,2.58-3.46,3.16-6.06,2.61-10.12-2.13-16.5,4.12-23.82,7.87-2.03,1.04-3.14,2.1-5.61,1.37-2.08-.61-4.37-1.19-6.53-1.11-10.48.45-20.96,1.12-31.44,1.71-2.03.12-4.08.49-4.82,2.29-.78,1.91,1.03,2.89,2.45,4.1,2.55,2.17,4.6,4.78,8.43,5.57-6.41,6.68-15.79,6.32-23.86,8.55-2.28.63-5.08.38-7.13-1.23-2.25-1.77-5.62-1.7-6.95-.43-5.52,5.28-10.37,2.32-15.44-.21-2.81-.95-5.68-1.58-8.74-1.03-5.47-1.47-10.95-2.93-16.42-4.4-1.78.34-.2,3.81-3.51,2.74-4.73-3.16-9.81-4.84-16.12-4.21-2.75.27-7.78.7-7.54-3.38.25-4.37,4.9-2.72,7.85-2.48,10.16.83,20.43.4,30.41-.44,6.86-.57,13.06.75,19.56.99,3.23.13,6.52,1.53,9.72-.11,2.6-3.18,6.75-2.29,10.47-2.86-3.07-.35-6.12,1.31-9.02-.29-.16-1.74-2.64-2.95-3.22-2.81-4.58,1.1-8.07-1.93-12.43-1.9-16.45.09-32.84-.81-49.25-2.1-13.23-1.04-26.64-.41-39.91-1.15-8.92-.5-17.78-.19-26.68-.16-4.46.01-8.87,1.79-13.53-.45-2.22-1.07-5.42.39-8.02,1.31-1.72.97-1.87,3-3.64,3.95l.26.31c-4.22,1.95-8.95,1.57-13.48,2.14-3.66.47-7.35,1.18-5.27,5.65-6.54,2.98-13.11-.53-19.7.03-4.04.35-7.85-.14-12.08,1.33-3.67,1.27-8.83.15-13.12-.71-6.07-1.22-12.2-1.03-18.3-1.46-5.85-1.98-12.61,1.59-18.16-2.13-.24-.67-.31-1.36-.2-2.06.45-1.74,2.48-2.17,3.66-3.27-.3-.87-1.15-1.19-2-1.49-2.05-.61-4.14-.59-6.25-.44-2.8.09-5.5,1.03-8.34.61-4.64-.91-9.35-.45-14.03-.54-.86.03-1.73.03-2.59.03-13.36-1.81-27.01-1.5-40.14-5.18-9.39-2.63-19.22,1.11-28.89.35-1.25.13-2.49.13-3.73.03-.8-.06-1.59-.21-2.36-.38-1.84-.47-3.67-.99-5.52-1.43-2.59-.85-5.12-.39-7.62.34-5.65,1.78-11.33.64-17.01.19-5.81-.67-11.56-.21-16.93,1.61-4.74,1.61-9.48,1.99-14.44,1.67-1.32-.35-2.33-1.06-3.21-1.93-5.45-3.82-11.84-4.34-18.27-3.08-14.14,2.78-28.12,2.13-42.43.55-15.76-1.73-31.75-.17-47.65-.09-27.14.15-54.21-1.39-81.3-2.25-18.19-.57-36.38-.02-55.71-.45,7.26,3.36,3.5,6.72,1.36,10.07-.54,2.58-5.72,3.7-2.99,7.55.64.9-2.15,1.78-3.75,2.02-3.49.52-6.47,1.45-6.91,4.99-.57,1.38-1.54,2.47-3.13,3.1-4.57.2-8.83,2.01-13.46,1.85-1.33,0-2.65.29-4.07.21,1.68.67,3.2-.29,4.78-.15,7.32-1.21,14.81-1.5,22.09-2.92,6.5-.53,12.97-1.38,19.46-2.01,1.43,0,2.86-.02,4.29-.06,9.97-2.05,20.11-1.14,30.17-1.35,6.18.51,12-.96,17.84-2.31,2.06-.32,4.18-.37,6.22-.85.2-.05,2.43.76,1-.85-.3-.33-.87-.49-1.32-.76-4.7-3.34-10.93-.96-15.94-3.1-.83-1.48-.32-2.91.17-4.35.28-.79.67-1.51,1.14-2.23,1.92-3.58,5.65-4.12,9.65-4.12,8.52,0,17.04-.25,25.55.17,18.66,1.29,37.26,4.7,55.91,4.05,13.74-.49,27.27.17,40.89.73,4.08.17,7.79-1.08,11.27-2.5,6.79-2.78,13.37-3.11,20.06,0,1.53.6,3.07,1.22,4.03,2.48.47,1.47,1.29,2.59,3.39,2.49,5.07-.25,9.02,1.94,12.91,4.26,1.91,1.1,3.85.71,5.81.04,2.73-.8,4.96-2.13,6.8-4.04,2.72-2.81,5.61-2.78,8.5-.14,1.36.99,2.98,1.55,4.67,1.98,2.33.65,4.7.89,7.13.57,1.39-.21,2.75-.56,4.13-.81,1.4-.24,2.82-.31,4.23-.39.7-.09,1.39-.15,2.09-.23,1.71-.26,3.37-.75,5.1-.95.7-.09,1.39-.13,2.08-.15.7-.05,1.39-.05,2.08-.05,1.76,0,3.46-.36,5.19-.63.75-.05,1.47-.03,2.21.07,1.9.29,3.81.35,5.73.31,3.77-.04,7.52-.05,11.28-.07,1.27-.03,2.53-.03,3.8,0,2.08.05,4.15.05,6.22.07,4.45.09,8.86-.48,13.3-.67,4.05.58,8.01,1.48,11.78,2.86,1.5.55,2.89,1.85,2.57,3.3-.4,1.85-2.56,1.2-4.07,1.32-2.15.17-4.4-.38-6.46.62-4.03-1.18-8.28-1.37-12.41-1.23-7.79.27-15.55.45-23.33-.07-3.35-.22-6.16.09-5.49,4.18.46,2.85-1.85,3.54-4.86,3.12-6.4-.89-12.73-2.55-19.35-1.57-.68.1-.88-.15-1.35-.51-3.3-2.51-3.33-2.48-6.42,1.23-2.3-4.68-8.16-2.11-11.81-4.56-1.34-.9-3.32.34-4.38,1.4-2.61,2.62-5.79,2.56-9.17,1.75-2.48-.59-4.93-.46-7.46-.38-3.85.13-7.8.47-11.32-1.55-1.94-1.11-3.71-.57-5.24.75-11.45-.03-22.9-.5-34.38-.11-21.48.73-43.01-.22-64.49,1.15-2.84.18-5.49.85-8.13,1.65-1.65.47-3.34.66-5.07.53-.78-.05-1.56-.19-2.32-.34-2.88-.94-4.92.64-7.13,1.73-3.93,1.64-8.14,2.41-12.43,2.95-3,.03-5.96-1.09-9-.21-3.41.59-6.47,2.46-10.16,2.06-5.18-.91-10.36.29-15.53.03-3.25,0-6.5,0-9.74-.03-4.9-.58-9.68-.43-14.13,1.7-4.3-.15-7.36,2.43-11.01,3.66-.63.29-1.26.55-1.88.84-.29.17-.6.33-.89.5-1.14.71-2.26,1.47-3.54,1.98-1.79.31-2.91,1.35-3.85,2.58-1.97.84-4.03.36-6.07.33-.65-.09-1.31-.19-1.96-.27-1.37-.02-2.56.35-3.55,1.17-2.13.53-5.23,3.61-5.21-1.47,0-1.26-1.32-1.31-2.38-1.33-2.46-.05-4.93,0-7.4,0-.68.73-1.39.75-2.13.07-3.15-.07-4.89,2.98-8.14,2.68l.18.15c-1.32-1.49-2.4-2.94-5.19-2.96-10.53-.1-21.15,1.29-31.54-1.26-1.46-.36-2.49.58-3.69,1.23-3.38,1.82-6.46,4.86-11.27,1.89-1.03-.63-3.75,1.15-5.52.91-5.23-.68-10.18,2.58-15.54.51-1.15-.45-3.33.39-4.7,1.1-3.55,1.85-6.62,2.52-11.27,1.93-3.71-.47-10.55-1.88-13.11,4.17-.85,2.02-3.93.33-4.79-.81-2.51-3.32-5.7-2.86-9.48-2.31-11.63,1.67-23.31,3.12-34.98,4.56-3.55.44-7.3,1.36-9.79-2.19-.57-.82-2.03-.41-3.08.02-6.77,2.79-14.02,4.37-21.21,6.09-1.72.85-3.45,1.19-5.18.01-4.96-2.53-10.88-3.6-15.97-2.64-7.37,1.4-14.74-.22-21.92,1.29-1.44.3-2.9.83-4.27-.17-1.25-1.41-.68-3.02-.67-4.56.16-.63.53-1.14,1.13-1.54.6-.79,1.1-1.66,2.18-2.09.53-.6,2.12.05,2.04-1.27-.53.08-1.04.23-1.53.49-1.8.62-2.07,2.27-3.2,3.32-3.17-.06-5.3-1.6-7.11-3.62-.45-2.09-2.38-3.87-1.91-6.18.48-1.27,1.6-2.09,2.72-2.92,1.1-.85,2.12-1.77,3.32-2.53,3.22-1.39,6.65-2.64,6.59-6.47,2.27-1.87,5.19-1.61,7.97-1.81,4.03-.49,7.94.11,11.83.83-10.86-3.61-21.7.39-32.56.15-3.93.01-7.85,0-11.77.04-8.67-1.23-17.05,3.26-25.77.97-6.32-.28-12.44-2.75-18.94-1.33-.48.11-1.13-.11-1.6-.33-10.05-4.48-20.72-3.71-31.45-2.82-5.72.47-11.23-2.16-17.04-1.01-.51.1-1.18-.28-1.65-.15-10.33,3.08-21.29,2.79-31.87,4.44-7.06,1.09-14.3,1.4-21.18,3.47-2.82.85-6.02.53-7.69,3.48-1.05,1.85-3.17,1.07-5.15.63-12.28-2.73-23.86-2.92-34.11,5.24-4.19,3.34-9.5,5.94-14.79,7.91-8.82,3.26-17.88,2.41-26.63-.79-1.9-.69-3.26-1.65-3.16-3.72.1-1.88-1.62-2.25-3.42-2.31-1.72-2.88-3.31-5.54-7.71-2.19-2.04,1.55-4.81,2.31-7.63.88-2.49-3.48-5.46-4.06-9.84-2.03-2.52,1.17-4.93,3.35-8.07,2.85-.96-.15-1.18-2.72-3.46-1.71-1.91.83-1.47,2.31-1.23,3.75.37,2.2-1.21,2.86-3.43,3.12-4.97.56-9.9,1.6-14.88,1.72-6.15.15-10.78,2.51-14.28,6.32-1.55,1.68-2.85,1.91-4.85,1.67-6.44-.75-12.81-2.8-19.42-.89-6.18-4.6-17.28-2.45-20.5-11.64-1.29-3.7-7.05-5.19-11.34-6.72-4.8-1.71-7.65-5.14-13.66-8.07,12.21-1.26,19.78-7.23,29.09-9.83,10.28-3.5,21.47-2.18,31.98-4.34,4.48-.01,8.99.31,13.47-.64-3.9.71-7.8.76-11.71.51-2.56-.49-4.89-1.24-5.55-3.76,1.33-2.09,3.72-2.34,6.1-2.53.45-.05.94-.07,1.42-.17.41-.07.49-.26.24-.48-.31.3-.74.45-1.32.45-2.91.1-5.6.75-8.11,1.95-6.87,2.07-14.78,1.03-20.84,5.77-2.61,2.05-4.17-.88-5.7-2.41-5.98-3.48-12.25-.47-18.36-.47-8.09-.01-15.62,2.78-23.45,4.1-4.17.71-7.54.59-10.31-2.35-.81-1.29-2.38-1.93-3.47-2.96-.09-1-.25-1.99-1.55-2.46-1.6-.7-2.32-2.11-3.58-3.08-1.5-.99-2.21-2.78-4.48-3.02-3.27-.35-3.06-2.39-2.45-4.31.72-2.29,2.92-1.67,4.84-1.48,1.1.11,2.39-.07,3.29.34,2.87,1.31,5.45,2.2,8.38-.09.8-.62,2.65-.31,4.02-.35,4.95-.15,5.01-.15,3.78-4.28-.38-1.25-.66-2.66.96-2.97,5.34-1.02,1.69-2.92.68-4.45-1.01-1.51-2.86-2.18-4.65-2.92-1.57-.65-2.88-1.8-2.39-3.4,1.39-4.48-2.41-8.21-2.32-12.47.07-2.97-2.37-3.24-4.51-2.31-4.96,2.19-9.07,2.44-12.76-1.81-1.59-1.83-2.85-.33-3.52,1.05-.85,1.74.43,3.33,1.15,4.77,1.54,3.03-.12,4.14-3.03,5.37-3.2,1.35-6.22,1.79-7.98-1.07-1.58-2.59-3.02-3.86-6.81-4.08-2.63-.15-5.12-2.5-7.62-3.94-.39-.23-.85-1.04-.72-1.15,4.02-3.68.1-8.25,1.93-12.1.81-1.7.46-2.68-1.39-3.42-.5-.2-.96-.48-1.44-.74-7.04-3.95-15.27-6.42-20.79-12.25-2.58-2.72-5.81-2.38-9.17-1.32-3.63,1.15-6.41,4.43-10.59,3.88-3.49-.45-6.1-3.18-9.73-3.33.05-2.52,1.16-4.01,3.51-4.83,6.33-2.2,11.47-6.97,19.18-6.28,1.74.15,3.46-.86,2.84-2.66-.53-1.53-1.5-3.23-4.15-2.61-.26.06-.54.15-.74.29-4.93,3.44-9.39,1.4-13.9-.79-1.44-.7-3.03-1.18-5.16-2,1.48-1.91,2.82-3.58,4.11-5.29,2.16-2.88,1.92-5.82.2-8.76-1.53-2.62-3.05-4.78-7.51-4-3.22.57-6.39-1.62-7.71-3.66-2.07-3.2-5.05-3.17-8.3-2.96,0-.88-.22-1.5.03-1.7q6.97-5.58.17-11.53c-1.54-1.35-2.69-3.02-4.84-3.89-2.8-1.13-3.09-3.21-2.33-5.48.69-2.11.82-4.2.54-6.37-.44-3.36-1.49-6.19-7.36-6.01,2.8-3.49,6.08-6.19,4.09-9.95-2.38-4.48-5.67-8.2-11.73-9.45-2.41-.51-4.74-1.28-7.64-2.08.78-2.72,3.56-3.58,5.46-5.06,1.86-1.44,4.14-2.6,5.53-4.3s2.2-3.94.9-6.08c-1.42-2.32-4-2.29-6.58-2.12-3.31.22-6.51,1.57-10.57.64,1.91-3.18,5.62-3.58,8.65-4.69,6-2.21,6.28-2.23,4.34-7.14-1.1-2.8-.77-5.66-1.54-8.43-2.3-1.85-5.14-.49-7.67-.93-1.58-.27-4.14.77-3.88-2.05,2.88-2.29,6.02-4.19,9.86-5.24,6.41-1.77,9.75-6.93,14.96-10.09,2.36-1.44.5-5.52-2.88-6.92-1.2-.5-2.76-.31-4.07-.68-3.19-.91-3.74-2.9-1.12-4.68,1.71-1.16,3.98-1.69,5.86-2.69,3.78-1.99,3.56-3.56-.67-5.72-.71-.37-1.53-.61-1.54-1.98,6.97-2.26,12.5-7.2,20.03-9.19,2.12-.56,4.07-1.58,6.07-2.42,1.29-.55,2.62-1.29,2.06-2.68-.46-1.13-1.8-1.92-3.23-1.97-2.5-.09-5.02.02-7.52.18-1.65.11-3.28.59-4.94.62-2.12.05-2.84-1.55-3.14-2.86-.35-1.48,1.5-1.97,2.69-1.99,5.48-.07,10.33-2.01,15.28-3.61,2.46-.79,5.43-1.19,6.71-3.73-1.94-2.66-4.75,1.05-6.86-1.03-.9-1.34.54-2.56,1.3-3.65,1.85-2.67.96-3.88-2.41-4.37-3.02-.45-6.01-1.05-10.33-1.81,9.18-3.98,14.66-11.25,24.77-12.23,2.82-.27,5.28-1.45,7.65-2.78,7.25-4.03,9.03-8.18,6.66-15.21-.58-1.73-1.64-2.49-3.56-2.05-6.58,1.5-12.88-3.01-19.48-.62-8.67-6.4-20.21-1.31-29.46-5.34-2.89-1.26-3.71,2.09-6.63,1.89-4.38-.29-7.54-1.06-7.54-3.44,0-1.73,4.84-5.06,7.37-4.53,6.31,1.33,12.68-.43,18.96.62,2.19.37,4.6.11,6.63.77,12.05,3.88,22.63-1.09,33.89-3.12-2.84-6.64-3.37-6.9-10.15-6.4-3.89.29-7.8.46-11.7.56-.72.02-1.47-.55-2.3-.89.67-2.39,2.86-3.32,4.91-4.49,4.09-2.34,8.04-4.84,11.92-7.44,5.23-3.5,8.41-8.05,11.67-12.65,1.03-1.45,1.99-2.85,3.47-3.94,2.85-2.1,4.84-4.32,2.3-7.63-1.67-2.17-.08-3.58,1.9-4.68,1.63-.91,3.4-1.63,5.15-2.38,3.51-1.51,5.21-3.74,3.22-6.95-2.08-3.38.18-4.38,3.37-4.59,2.01-.13,3.07-.66,3.49-2.31.58-2.35-1.54-2.69-3.3-3.39-3.85-1.55-7.8-1.87-11.56-.37-.96-1.5-.31-2.33.02-3.22,2.3-6.39,2.15-6.38-4.98-8.45-3.85-1.13-7.63-2.31-8.25-6.91-.46-3.39-5.76-4.18-7.51-7.2-.9-1.46-3.06-2.24-3.15-4.15-.23-1-.27-2.01-.21-3.04.05-.67.2-1.33.44-1.98.42-.57.78-1.17,1.08-1.79,1.13-5.28,2.26-10.57,3.44-16.11-4.88-.49-6.5,4.71-11.31,3.01-.53-2.85,1.53-5.22,2.59-7.83,1.3-3.19-.08-4.72-3.93-3.82-4.61,1.07-9.46-.27-13.95,1.55-1.43.58-3.27.07-4.78-.65,2.99-9.27,8.47-12.27,18.73-9.51,7.43,1.99,13.06.48,17.13-4.9,2.98-3.94,7.97-6.5,10.4-10.69-1.83-1.63-4.1,0-5.75-1.22.72-1.81,4.69-2.41,2.98-4.99-1.56-2.36-3.85-4.02-7.53-3.38-1.91.33-3.96.05-5.83.45-7.97,1.69-15.69-.69-23.53-.89.5.09,1,.19,1.5.28-.5-.09-1-.17-1.5-.25,1.78.29,3.03-.51,4.19-1.47-.47-1.65-2.36-1.91-3.64-2.77-6.49-4.34-6.71-9.93-.47-14.45,2.33-1.69,4.91-3.17,7.54-4.52,9.03-4.62,17.6-9.95,27.48-13.34,1.21-1.06.83-1.95-.42-2.76-.26-.59-.12-1.08.47-1.46,2.58-1.77,6.5-1.65,8.43-4.32q.16-2.37-3.59-1.73c-9.37,1.59-18.74,3.18-28.11,4.77-1.18.51-2.62.37-3.75,1.01-1.04.11-2.08.22-3.13.33-1.81.47-2.33-.17-1.93-1.62h0c1-.72,2.53-.47,3.46-1.33,7.93-1.48,14.54-6.21,22.89-6.72,1.02-.07,2.07-.69,2.14-1.84.08-1.22-1.14-1.63-2.04-1.99-1.23-.49-2.66-1.01-3.96-.93-10.7.6-21.15-1.29-31.7-2.21-4.08-.36-8.3.98-12.36-.45.63-3.02.79-6.28,5.8-3.52.31.17,1.08-.15,1.57-.34,7.1-2.76,14.2-5.49,21.24-8.35.8-.33,2.12-.79,1.81-2.05-7.41-.73-14.71.21-22.47,1.97.92-3.47,2.95-5.39,5.41-6.12,8.19-2.44,15.43-6.78,24.01-8.43,3.22-.61,6.65-1.08,8.91-3.6,1.32-1.46,3.5-1.44,5.33-1.87,4.3-1.03,8.74-1.64,13.03-2.72,3.45-.86,8.28-.58,9.8-3.27,1.07-1.89-.76-5.32-2.07-7.76-1.43-2.66-.62-4.52,1.43-6.37,2.83-2.58,5.67-5.14,8.52-7.7.34-.42.87-.89,1.3-.76,11.1,3.48,23.26,2.47,34.33,5.91,4.33,1.34,17.56-.23,20.6-2.93,2.79-2.47,1.62-6.16-2.59-7.26-3.8-.99-7.76-.65-11.63-.02-1.5.33-2.96.77-4.45,1.13-.39.05-.78.09-1.17.14-.38-.03-.78-.07-1.16-.09-.37-.11-.74-.23-1.1-.33-2.59-1.34-5.86-1.86-7.41-4.45-1.24-1.36-1.35-3-1.39-4.58-.08-2.94-2.28-3.88-5.16-4.3-.6-.26-.8-.54-.62-.83.19-.29.38-.44.56-.44,1.62-.35,3.27-.66,4.87-1.06,1.1-.27,2.39-.91,1.86-1.93-2.01-3.8-.6-8.07-2.41-11.87-5.1-10.7-3.09-24.97,4.81-34.12.5-.57,1.13-1.07,1.57-1.68,1.55-2.12,1.22-3.93-2.03-3.87-6.39.13-12.9-.87-19.17.77-2.49.65-4.76,1.03-7.31.13-5.5-1.94-6.19-3.2-3.24-7.81,1.81-2.84,3.32-6.17,1.98-8.86-2.55-5.12,1.11-8.04,3.9-11.43.63-.77,1.74-1.23,2.43-1.96,2.29-2.45,1.84-4-1.75-4.33-3.28-.31-5.09-1.17-7.21-3.64-3.88-4.53-2.41-8.19-.09-12.49.81-1.49,5.74-2.86,1.25-5.52-.38-.22,1.45-1.62,2.57-2.28,2.64-1.57,6.16-2.48,6.8-6.37-3.38-1.05-6.92-.53-10.38-.53-3.16,0-6.38.95-10.51-.19,5.73-3.16,10.94-5.02,16.66-6.02,2.95-.51,5.3-1.27,4.65-5.09-.49-2.91-.44-6.17-.16-9.17.65-7.12-2.02-6.73-8.52-8.05-8.42-1.71-17.07-1.61-26.61-1.33,1.88-4.47,5.55-6.18,9.1-7.56,7.84-3.04,15.69-6.28,23.91-8.32,8.18-2.03,14.75-6.72,22.85-8.76,2.13-.53,4.89-1.29,5.63-3.94-8.34-2.22-17.22-1.08-25.47-3.29-1.1-1.63.71-2.01,1.65-2.76,1.51-.5,3.67-.56,4.09-2.05.65-2.27-2.06-2.6-3.63-3.09-3.4-1.06-7.04-1.23-10.66-1.35-3.32-.11-6.62-.49-9.93-.76-1.1-.9-1.1-1.85-.18-2.85,5.21-1.4,10.14-3,14.05-6.67,1.85-1.74,5.19-2.33,7.86-3.46,1.07-.69,2.55-.47,3.6-1.19,1.03-.12,2.05-.24,3.08-.36.49-.23.77-.58.81-1.06-.57-.71-1.47-.75-2.35-.85-1.48,0-2.94,0-4.4,0-1.85-.81-5.41,1.79-5.71-2.07,5.09-1.35,10.26-2.43,15.58-2.83,6.39-.49,11.63-3.13,16.43-6.46,2.18-1.51,2.05-3.09-.71-4.38-3.35-1.55-7.05-1.67-10.62-1.87-12.27-.68-24.59-.53-36.65-3.28-3.39-.78-7.24-.49-10.82.34-1.73.41-2.17-.2-1.71-1.54,7.73-5.22,16.65-8.45,25.78-11.34,2.33-.74,5.7-.77,4.64-4.52-.58-2.05,2.43-2.2,3.94-2.7,4.1-1.35,8.37-2.31,12.54-3.41-.7-3.7-5.45-3.92-6.54-6.56-1.21-2.92,4.33-3.39,3.85-6.52-.22-1.43-.99-3.48,1.19-4.54,2.39-1.15,4.85-2.74,7.42-2.97,8.37-.73,16.6-2.07,24.84-3.41,4.11-.67,8.18-1.67,12.41-1.23,3.94.41,6.63-2.08,10.92-2.89-3.17-4.42-4.35-9.32-8.67-12.86-3.17-1.01-1.5-4.25-3.64-5.73-2.67-1.03-5.35-2.05-8.02-3.07.5-3.34,7.27-1.53,6.6-5.84,2.67-2.19,5.92-3.57,7.34-7.16,1.23-3.1,12.11-4.32,15.15-1.74,4.92,4.17,10.77,3.82,16.49,3.38,8.37-.65,16.63-1.49,24.91.45,1.29.3,2.92.42,4.13.03,10.03-3.24,19.78.03,28.71,2.43,6.93,1.87,13.75,2.87,20.35,2.33,8-.66,15.93.25,23.95-.63,11.89-1.31,24.04.08,36.04-.94,5.24-.45,10.52-.68,15.73-1.31,4.51-.55,9.08-.53,13.35.33,6.6,1.33,12.54.45,18.63-1.69,4.42-1.55,9.24-1.18,13.94-.74,5.3.49,10.57.9,15.71-.84,1.02-.35,2.2-.61,3.27-.53,13.39.95,26.81-1.23,40.18.35.83.1,1.74.52,2.47.35,8.65-2.08,17.42-1.05,26.17-.87,10.72-4.9,21.9-3.26,33.09-1.73,1.11.63,1.94,1.47,2.46,2.51.24.66.23,1.33-.02,1.99-1,.7-2.29.43-3.41.73,1.04-.15,2.09-.05,3.13,0,2.64.2,5.1-.51,7.59-1.09,4.61-1.13,9.31-1.69,14.09-1.7,2.98-.73,6.31-.09,9.03-1.74.2-.77.5-1.47,1.33-1.9l-.12-.15c1.27-1.51,3.6-1.61,5.1-2.82Z"/>
</svg>
