<svg preserveAspectRatio="none" width="100%" height="100%" overflow="visible" style="display: block;" viewBox="0 0 56 56" fill="none" xmlns="http://www.w3.org/2000/svg">
<g id="Frame 75">
<rect width="56" height="56" rx="28" fill="var(--fill-0, white)"/>
<path id="Vector" d="M31.1953 34.4578C30.7771 34.4745 30.3784 34.4872 29.9992 34.4959C29.6193 34.5039 29.2823 34.5079 28.9879 34.5079H28.0353C26.9355 34.5079 25.9054 34.4912 24.945 34.4578C24.124 34.4245 23.3145 34.3784 22.5164 34.3197C21.719 34.2616 21.1421 34.1825 20.7858 34.0824C20.3831 33.9656 20.0346 33.7486 19.7402 33.4316C19.4459 33.1145 19.2445 32.7391 19.1361 32.3052C19.0432 31.9214 18.9697 31.4542 18.9158 30.9035C18.8613 30.3529 18.8186 29.8272 18.7876 29.3266C18.7566 28.7259 18.7411 28.1168 18.7411 27.4994C18.7411 26.882 18.7566 26.2729 18.7876 25.6722C18.8186 25.1716 18.8613 24.6459 18.9158 24.0953C18.9697 23.5446 19.0432 23.0774 19.1361 22.6936C19.2445 22.2597 19.4459 21.8843 19.7402 21.5672C20.0346 21.2502 20.3831 21.0332 20.7858 20.9164C21.1421 20.8163 21.719 20.7369 22.5164 20.6781C23.3145 20.6201 24.124 20.5743 24.945 20.541C25.9054 20.5076 26.9355 20.4909 28.0353 20.4909C29.1351 20.4909 30.1652 20.5076 31.1256 20.541C31.9466 20.5743 32.7561 20.6201 33.5542 20.6781C34.3516 20.7369 34.9285 20.8163 35.2848 20.9164C35.6875 21.0332 36.036 21.2502 36.3303 21.5672C36.6247 21.8843 36.826 22.2597 36.9345 22.6936C37.0274 23.0774 37.1008 23.5446 37.1547 24.0953C37.2093 24.6459 37.252 25.1716 37.283 25.6722C37.314 26.2729 37.3295 26.882 37.3295 27.4994V27.9249C37.0352 27.7914 36.7331 27.6873 36.4233 27.6125C36.1135 27.5371 35.7959 27.4994 35.4706 27.4994C34.1849 27.4994 33.0888 27.9873 32.1824 28.9632C31.2765 29.9397 30.8235 31.1204 30.8235 32.5055C30.8235 32.8559 30.8545 33.1936 30.9165 33.5187C30.9784 33.8444 31.0714 34.1575 31.1953 34.4578ZM26.1765 30.503L31.0094 27.4994L26.1765 24.4958V30.503ZM34.5412 35.5091V33.5067H32.6824V31.5042H34.5412V29.5018H36.4001V31.5042H38.2589V33.5067H36.4001V35.5091H34.5412Z" fill="var(--fill-0, black)"/>
</g>
</svg>
