<svg preserveAspectRatio="none" width="100%" height="100%" overflow="visible" style="display: block;" viewBox="0 0 20.2137 13.134" fill="none" xmlns="http://www.w3.org/2000/svg">
<g id="Group">
<path id="Vector" d="M0.001335 10.2872C0.001335 9.59296 -0.00252316 8.89837 0.00287827 8.20418C0.0059648 7.82787 0.0329719 7.45194 0.034901 7.07563C0.0395308 6.10952 0.0364443 5.14342 0.0356726 4.17692C0.0345152 2.89917 0.0325861 1.62102 0.0314287 0.343271C0.0314287 0.0382464 0.0754117 -0.00187818 0.38175 0.00240696C1.21627 0.0140937 2.05079 0.032403 2.88492 0.032403C3.57785 0.032403 4.27077 -0.00148862 4.9637 6.96111e-05C6.30055 0.00318608 7.63702 0.0273387 8.97387 0.0300656C9.89289 0.0320134 10.8119 0.00747123 11.7305 0.00474432C12.2251 0.00318608 12.7198 0.028897 13.214 0.0308448C14.3186 0.0355195 15.4228 0.0339612 16.5274 0.0339612C16.8183 0.0339612 16.9059 0.131351 16.892 0.422351C16.8762 0.757762 16.8839 1.09512 16.8545 1.42936C16.8318 1.68959 16.7716 1.72075 16.5173 1.72036C15.0007 1.71802 13.4841 1.71686 11.967 1.71608C10.0194 1.7153 8.07183 1.71647 6.12423 1.71569C4.92936 1.7153 3.73488 1.71335 2.54 1.71023C2.36639 1.70984 2.19316 1.69192 2.01954 1.69192C1.74291 1.69153 1.67732 1.75737 1.68118 2.03551C1.69391 2.98292 1.71474 3.92994 1.72169 4.87696C1.72516 5.33547 1.69777 5.79398 1.69661 6.2521C1.69545 6.61984 1.71976 6.98798 1.72053 7.35572C1.7213 7.74372 1.7078 8.13172 1.69893 8.51972C1.69545 8.67555 1.68156 8.83098 1.68156 8.98641C1.68079 10.2459 1.68234 11.5057 1.68311 12.7651C1.68349 13.0787 1.64684 13.115 1.34166 13.1142C1.00716 13.113 0.673041 13.1181 0.338538 13.1122C0.083128 13.1079 0.0345152 13.0554 0.0337435 12.7998C0.0322003 11.9623 0.0329719 11.1247 0.0329719 10.2872C0.0233265 10.2872 0.0121379 10.2872 0.001335 10.2872Z" fill="var(--fill-0, black)"/>
<path id="Vector_2" d="M11.7747 13.1133C9.19633 13.1133 6.61753 13.1059 4.03912 13.1176C3.22158 13.1215 3.36009 13.0732 3.35121 12.4203C3.34813 12.206 3.34658 11.9918 3.3516 11.7775C3.35777 11.5095 3.44535 11.4409 3.71118 11.4476C4.09661 11.4573 4.48243 11.4565 4.86824 11.4565C9.30513 11.4573 13.742 11.4577 18.1789 11.4581C18.5022 11.4581 18.557 11.3989 18.5558 11.072C18.5535 10.4032 18.5589 9.73429 18.5512 9.06581C18.545 8.53562 18.5161 8.00582 18.5119 7.47563C18.5088 7.06893 18.5362 6.66184 18.5358 6.25514C18.535 5.74482 18.5088 5.2345 18.5126 4.72456C18.5184 3.93298 18.5473 3.14179 18.5524 2.35059C18.5566 1.6899 18.5404 1.02882 18.5335 0.368128C18.5308 0.115304 18.6129 0.0358344 18.8687 0.0342762C19.2028 0.0323284 19.537 0.0272641 19.8711 0.0218103C20.1157 0.0175251 20.206 0.105565 20.2064 0.35761C20.2091 4.50018 20.2114 8.64314 20.2137 12.7857C20.2137 13.0822 20.1523 13.1351 19.8194 13.134C18.0832 13.1273 16.3474 13.1196 14.6113 13.1149C13.6652 13.1114 12.72 13.1133 11.7747 13.1133Z" fill="var(--fill-0, black)"/>
<path id="Vector_3" d="M10.2121 6.60295C10.2638 4.73424 11.5674 3.26132 13.4278 3.20873C15.4981 3.1499 16.8844 4.68243 16.8909 6.61542C16.8967 8.37467 15.5151 9.88771 13.571 9.9216C11.7839 9.95199 10.2352 8.46972 10.2121 6.60295ZM15.1667 6.57062C15.1987 5.55309 14.4097 4.92668 13.5297 4.92084C12.586 4.9146 11.9463 5.70969 11.9181 6.51452C11.8827 7.51881 12.6898 8.2391 13.5845 8.21105C14.453 8.18417 15.1968 7.57373 15.1667 6.57062Z" fill="var(--fill-0, black)"/>
<path id="Vector_4" d="M8.02779 3.21582C8.20102 3.21582 8.37502 3.22478 8.54787 3.21349C8.74657 3.20063 8.8326 3.30737 8.85344 3.48384C8.86694 3.59915 8.86424 3.71719 8.86231 3.83366C8.85074 4.46787 8.82836 5.10168 8.8272 5.73588C8.82643 6.27347 8.86154 6.81106 8.85961 7.34865C8.85691 8.0931 8.83569 8.83755 8.81987 9.582C8.8137 9.87066 8.75775 9.92091 8.47881 9.91935C8.15125 9.9178 7.82369 9.9213 7.49575 9.91896C7.24728 9.91702 7.17938 9.8578 7.17822 9.61121C7.17321 8.48305 7.17552 7.35528 7.17089 6.22711C7.16896 5.79315 7.15469 5.35918 7.14929 4.92521C7.1435 4.47215 7.13848 4.0187 7.13848 3.56565C7.13848 3.30659 7.21218 3.23102 7.46913 3.22128C7.65509 3.21427 7.84144 3.22011 8.02779 3.22011C8.02779 3.21855 8.02779 3.21738 8.02779 3.21582Z" fill="var(--fill-0, black)"/>
<path id="Vector_5" d="M4.5782 5.06162C5.18827 4.98525 5.80066 5.67371 5.80297 6.28853C5.80529 6.92556 5.17785 7.55479 4.5755 7.55674C3.9226 7.55908 3.30404 6.89049 3.338 6.20048C3.36732 5.60786 3.93495 5.06318 4.5782 5.06162Z" fill="var(--fill-0, black)"/>
</g>
</svg>
